{"glyphs":{"0":{"ha":857,"x_min":75,"x_max":779,"o":"m 75 397 q 176 696 75 588 q 429 804 276 804 q 681 699 582 804 q 779 399 779 593 q 678 95 779 208 q 428 -18 576 -18 q 175 92 275 -18 q 75 397 75 201 m 222 401 q 282 190 222 264 q 429 117 342 117 q 574 190 513 117 q 635 394 635 263 q 575 601 635 531 q 428 671 515 671 q 283 601 343 671 q 222 401 222 531 z "},"1":{"ha":596,"x_min":86,"x_max":522,"o":"m 522 0 l 103 0 l 90 111 l 240 111 l 240 604 l 160 554 q 123 608 142 581 q 86 661 104 635 l 293 786 l 397 786 l 397 111 l 508 111 q 516 55 513 83 q 522 0 519 26 z "},"2":{"ha":699,"x_min":43,"x_max":636,"o":"m 319 804 q 538 726 476 804 q 600 557 600 647 q 552 407 600 476 q 403 253 504 338 l 247 121 l 617 121 l 636 0 l 43 0 l 43 108 l 318 353 q 427 467 399 424 q 457 557 456 511 q 421 642 457 608 q 317 676 385 676 q 197 640 261 676 q 129 603 133 604 l 61 711 q 158 769 92 733 q 319 804 224 804 z "},"3":{"ha":736,"x_min":32,"x_max":650,"o":"m 346 804 q 562 733 490 804 q 633 567 633 663 q 595 448 633 500 q 510 378 557 396 q 604 307 558 365 q 650 163 650 249 q 562 -28 650 50 q 325 -106 474 -106 q 170 -79 249 -106 q 32 -22 92 -53 l 113 83 q 215 36 167 51 q 329 21 264 21 q 449 58 396 21 q 503 161 503 96 q 450 272 503 231 q 279 314 397 314 l 229 314 l 207 435 l 288 435 q 433 469 379 435 q 486 564 486 504 q 447 643 486 610 q 342 676 408 676 q 221 653 275 676 q 131 606 167 631 l 56 711 q 191 778 119 753 q 346 804 263 804 z "},"4":{"ha":807,"x_min":43,"x_max":763,"o":"m 746 88 l 617 88 l 617 -96 l 458 -96 l 458 88 l 64 88 l 43 217 l 501 793 l 617 793 l 617 217 l 763 217 l 746 88 m 213 217 l 458 217 l 458 536 l 213 217 z "},"5":{"ha":754,"x_min":61,"x_max":689,"o":"m 118 294 l 142 786 l 639 786 l 621 658 l 278 658 l 268 458 q 324 479 294 472 q 385 486 354 486 q 613 401 539 486 q 689 199 688 315 q 599 -19 689 68 q 353 -106 510 -106 q 197 -80 275 -106 q 61 -24 119 -54 l 140 88 q 242 41 193 57 q 357 25 292 25 q 490 72 438 25 q 543 199 543 118 q 500 317 543 274 q 390 360 457 360 q 306 338 340 360 q 260 294 272 315 l 118 294 z "},"6":{"ha":769,"x_min":75,"x_max":718,"o":"m 718 278 q 639 72 718 163 q 428 -18 560 -18 q 176 78 278 -18 q 75 364 75 174 q 189 680 75 517 q 486 881 303 843 l 554 779 q 361 672 443 753 q 244 493 279 592 q 328 538 282 519 q 422 557 375 557 q 638 473 557 557 q 718 278 718 389 m 576 269 q 534 389 576 335 q 417 443 492 443 q 294 405 346 443 q 222 321 243 367 q 280 169 232 228 q 419 111 328 111 q 533 160 490 111 q 576 269 576 208 z "},"7":{"ha":696,"x_min":61,"x_max":663,"o":"m 72 -53 l 467 658 l 81 658 l 61 786 l 615 786 l 663 722 l 219 -96 l 72 -53 z "},"8":{"ha":783,"x_min":72,"x_max":711,"o":"m 711 251 q 627 62 711 142 q 393 -18 543 -18 q 156 61 240 -18 q 72 251 72 140 q 122 388 72 322 q 236 472 172 453 q 144 544 181 496 q 108 654 108 593 q 184 822 108 750 q 393 893 260 893 q 600 822 525 893 q 675 654 675 750 q 638 544 675 593 q 547 472 600 496 q 660 390 608 453 q 711 251 711 326 m 251 654 q 287 570 250 604 q 393 526 324 536 q 497 570 461 536 q 532 654 532 604 q 493 732 532 699 q 389 765 454 765 q 290 731 328 765 q 251 654 251 697 m 392 108 l 393 108 q 514 146 460 108 q 568 249 568 183 q 523 351 568 306 q 393 410 478 396 q 260 351 304 396 q 217 249 217 306 q 269 146 217 183 q 392 108 322 108 z "},"9":{"ha":769,"x_min":50,"x_max":692,"o":"m 50 508 q 132 713 50 622 q 346 804 214 804 q 594 708 496 804 q 692 422 692 611 q 578 106 692 269 q 283 -96 465 -57 l 213 7 q 406 113 325 33 q 521 289 486 193 q 442 246 486 263 q 351 229 397 229 q 133 313 215 229 q 50 508 50 397 m 194 517 q 236 397 194 451 q 351 343 278 343 q 474 381 422 343 q 546 464 525 419 q 488 617 536 560 q 350 675 440 675 q 237 626 279 675 q 194 517 194 578 z "},"\u0000":{"ha":0,"x_min":0,"x_max":0,"o":""},"\r":{"ha":0,"x_min":0,"x_max":0,"o":""}," ":{"ha":328,"x_min":0,"x_max":0,"o":""}," ":{"ha":328,"x_min":0,"x_max":0,"o":""},"‌":{"ha":0,"x_min":-42,"x_max":42,"o":"m -42 1718 l 42 1718 l 42 -94 l -42 -94 l -42 1718 z "},"‍":{"ha":0,"x_min":-157,"x_max":158,"o":"m 103 1833 l 158 1778 l 56 1675 l 158 1572 l 104 1518 l 42 1579 l 42 -94 l -42 -94 l -42 1578 l -103 1518 l -157 1572 l -54 1675 l -157 1778 l -101 1833 l 0 1731 l 103 1833 z "},"◌":{"ha":933,"x_min":69,"x_max":864,"o":"m 465 708 q 433 721 446 708 q 421 753 421 733 q 433 785 421 772 q 465 799 446 799 q 498 785 485 799 q 511 753 511 772 q 498 721 511 733 q 465 708 485 708 m 604 685 q 572 697 585 685 q 560 729 560 710 q 572 762 560 749 q 604 775 585 775 q 637 762 624 775 q 650 729 650 749 q 637 697 650 710 q 604 685 624 685 m 329 775 q 361 762 349 775 q 374 729 374 749 q 361 697 374 710 q 329 685 349 685 q 297 697 310 685 q 283 729 283 710 q 297 762 283 749 q 329 775 310 775 m 722 607 q 690 619 703 607 q 678 651 678 632 q 690 684 678 671 q 722 697 703 697 q 755 684 742 697 q 768 651 768 671 q 755 619 768 632 q 722 607 742 607 m 211 697 q 243 684 231 697 q 256 651 256 671 q 243 619 256 632 q 211 607 231 607 q 178 619 192 607 q 165 651 165 632 q 178 684 165 671 q 211 697 192 697 m 796 485 q 764 497 776 485 q 751 529 751 510 q 764 562 751 549 q 796 575 776 575 q 828 562 815 575 q 842 529 842 549 q 828 497 842 510 q 796 485 815 485 m 138 575 q 169 562 157 575 q 182 529 182 549 q 169 497 182 510 q 138 485 157 485 q 105 497 118 485 q 92 529 92 510 q 105 562 92 549 q 138 575 118 575 m 818 353 q 786 365 799 353 q 774 397 774 378 q 786 430 774 417 q 818 443 799 443 q 851 430 838 443 q 864 397 864 417 q 851 365 864 378 q 818 353 838 353 m 115 443 q 147 430 135 443 q 160 397 160 417 q 147 365 160 378 q 115 353 135 353 q 83 365 96 353 q 69 397 69 378 q 83 430 69 417 q 115 443 96 443 m 796 224 q 764 236 776 224 q 751 268 751 249 q 764 301 751 288 q 796 314 776 314 q 828 301 815 314 q 842 268 842 288 q 828 236 842 249 q 796 224 815 224 m 138 314 q 169 301 157 314 q 182 268 182 288 q 169 236 182 249 q 138 224 157 224 q 105 236 118 224 q 92 268 92 249 q 105 301 92 288 q 138 314 118 314 m 724 100 q 692 113 704 100 q 679 144 679 125 q 692 177 679 164 q 724 190 704 190 q 756 177 743 190 q 769 144 769 164 q 756 113 769 125 q 724 100 743 100 m 210 190 q 242 177 229 190 q 254 144 254 164 q 242 113 254 125 q 210 100 229 100 q 177 113 190 100 q 164 144 164 125 q 177 177 164 164 q 210 190 190 190 m 329 114 q 361 101 349 114 q 374 68 374 88 q 361 36 374 49 q 329 24 349 24 q 297 36 310 24 q 283 68 283 49 q 297 101 283 88 q 329 114 310 114 m 604 24 q 572 36 585 24 q 560 68 560 49 q 572 101 560 88 q 604 114 585 114 q 637 101 624 114 q 650 68 650 88 q 637 36 650 49 q 604 24 624 24 m 465 0 q 433 13 446 0 q 421 44 421 25 q 433 77 421 64 q 465 90 446 90 q 498 77 485 90 q 511 44 511 64 q 498 13 511 25 q 465 0 485 0 z "},"A":{"ha":881,"x_min":8,"x_max":872,"o":"m 436 731 l 299 364 l 576 364 l 436 731 m 507 944 l 872 22 l 715 0 l 625 238 l 253 238 l 164 0 l 8 0 l 369 944 l 507 944 z "},"B":{"ha":888,"x_min":124,"x_max":819,"o":"m 442 944 q 671 886 582 944 q 760 685 760 828 q 733 584 760 628 q 663 510 706 540 q 775 422 731 479 q 819 274 819 364 q 725 69 819 138 q 481 0 631 0 l 124 0 l 124 944 l 442 944 m 422 814 l 279 814 l 279 551 l 411 551 q 544 581 494 551 q 594 682 594 611 q 548 787 594 760 q 422 814 501 814 m 485 424 l 279 424 l 279 129 l 471 129 q 605 164 553 129 q 657 272 657 199 q 610 385 657 347 q 485 424 563 424 z "},"C":{"ha":826,"x_min":85,"x_max":760,"o":"m 706 792 q 609 821 649 810 q 506 832 569 832 q 317 733 385 831 q 249 469 249 635 q 306 219 249 325 q 493 113 363 113 q 608 125 557 113 q 701 156 660 138 l 760 39 q 635 -3 710 13 q 501 -19 560 -19 q 183 123 282 -19 q 85 468 85 265 q 193 823 85 682 q 508 964 301 964 q 625 950 551 964 q 754 906 699 936 l 706 792 z "},"D":{"ha":972,"x_min":124,"x_max":886,"o":"m 124 0 l 124 944 l 458 944 q 783 812 679 944 q 886 478 886 679 q 774 133 886 264 q 456 0 663 1 l 124 0 m 465 811 l 279 811 l 279 131 l 454 131 q 651 215 576 131 q 726 476 726 299 q 663 720 726 629 q 465 811 600 811 z "},"E":{"ha":786,"x_min":124,"x_max":754,"o":"m 124 0 l 124 944 l 671 944 l 694 822 l 279 822 l 279 540 l 539 540 q 551 478 544 510 q 563 417 557 447 l 279 417 l 279 122 l 731 122 q 742 61 736 92 q 754 0 749 31 l 124 0 z "},"F":{"ha":688,"x_min":124,"x_max":669,"o":"m 547 411 l 279 411 l 279 0 l 124 0 l 124 944 l 646 944 l 669 822 l 279 822 l 279 532 l 525 532 l 547 411 z "},"G":{"ha":911,"x_min":85,"x_max":813,"o":"m 481 506 l 813 506 l 813 118 q 812 83 813 100 q 811 49 811 65 l 813 47 q 685 0 761 19 q 528 -19 608 -19 q 197 122 308 -19 q 85 467 85 263 q 210 824 85 685 q 546 964 335 964 q 665 950 589 964 q 797 904 742 936 l 749 792 q 652 820 692 810 q 549 831 613 831 q 333 739 418 831 q 247 468 247 647 q 319 208 247 304 q 524 113 390 113 q 607 119 571 113 q 669 132 643 125 l 669 386 l 468 386 l 481 506 z "},"H":{"ha":956,"x_min":124,"x_max":832,"o":"m 675 0 l 675 410 l 279 410 l 279 0 l 124 0 l 124 944 l 279 951 l 279 536 l 675 536 l 675 944 l 832 944 l 832 0 l 675 0 z "},"I":{"ha":404,"x_min":124,"x_max":279,"o":"m 124 0 l 124 944 l 279 944 l 279 0 l 124 0 z "},"J":{"ha":417,"x_min":24,"x_max":292,"o":"m 135 222 l 135 944 l 292 944 l 292 196 q 249 55 292 103 q 86 -31 206 7 l 24 83 q 115 133 96 110 q 135 222 135 157 z "},"K":{"ha":869,"x_min":110,"x_max":865,"o":"m 672 0 l 360 419 l 267 311 l 267 0 l 110 0 l 110 944 l 267 944 l 267 528 l 639 965 l 753 875 l 463 539 l 865 0 l 672 0 z "},"L":{"ha":742,"x_min":124,"x_max":724,"o":"m 724 0 l 124 0 l 124 944 l 279 944 l 279 122 l 701 122 l 724 0 z "},"M":{"ha":1069,"x_min":124,"x_max":947,"o":"m 524 294 l 279 622 l 279 0 l 124 0 l 124 944 l 221 944 l 547 493 l 850 944 l 947 944 l 947 0 l 789 0 l 789 600 l 583 303 l 524 294 z "},"N":{"ha":1017,"x_min":124,"x_max":893,"o":"m 124 0 l 124 944 l 272 944 l 658 394 q 697 338 678 367 q 736 279 717 308 l 736 944 l 893 944 l 893 0 l 743 0 l 350 563 l 279 668 l 279 0 l 124 0 z "},"O":{"ha":1028,"x_min":85,"x_max":943,"o":"m 85 468 q 197 823 85 683 q 514 967 308 963 q 839 823 735 967 q 943 478 943 679 q 831 124 943 264 q 513 -19 719 -15 q 189 124 293 -19 q 85 468 85 268 m 249 469 q 312 215 249 317 q 510 113 375 113 q 706 206 633 113 q 779 478 779 300 q 716 731 779 631 q 517 832 653 832 q 322 733 396 832 q 249 469 249 635 z "},"P":{"ha":832,"x_min":124,"x_max":772,"o":"m 124 0 l 124 944 l 407 944 q 666 876 560 944 q 772 646 772 807 q 657 413 771 486 q 393 339 543 339 l 279 339 l 279 0 l 124 0 m 403 814 l 279 814 l 279 468 l 401 468 q 546 508 489 468 q 607 638 603 549 q 553 775 607 736 q 403 814 499 814 z "},"Q":{"ha":1028,"x_min":85,"x_max":943,"o":"m 836 -43 l 742 44 q 638 -1 694 15 q 513 -19 581 -18 q 189 124 293 -19 q 85 468 85 268 q 197 823 85 683 q 514 967 308 963 q 839 823 735 967 q 943 478 943 679 q 915 283 943 374 q 835 129 886 193 l 928 39 l 836 -43 m 249 469 q 312 215 249 317 q 510 113 375 113 q 576 122 544 113 q 633 146 607 131 l 511 260 l 618 342 l 725 236 q 765 342 751 281 q 779 478 779 403 q 716 731 779 631 q 517 832 653 832 q 322 733 396 832 q 249 469 249 635 z "},"R":{"ha":872,"x_min":124,"x_max":844,"o":"m 403 814 l 279 814 l 279 496 l 401 496 q 548 531 489 496 q 607 653 607 567 q 552 778 607 743 q 403 814 497 814 m 676 0 l 469 372 q 432 369 451 369 q 393 368 413 368 l 279 368 l 279 0 l 124 0 l 124 944 l 407 944 q 666 876 560 944 q 772 660 772 808 q 726 506 772 568 q 608 411 681 444 l 844 0 l 676 0 z "},"S":{"ha":760,"x_min":61,"x_max":697,"o":"m 114 182 q 220 140 154 161 q 349 119 286 119 q 489 151 442 119 q 536 239 536 183 q 299 434 536 365 q 61 717 61 503 q 144 894 61 821 q 379 967 228 967 q 518 946 450 967 q 638 900 586 925 q 611 837 625 868 q 585 775 597 806 q 499 810 547 793 q 389 828 450 828 q 269 802 318 828 q 221 719 221 776 q 459 517 221 588 q 697 240 697 447 q 608 55 697 128 q 350 -18 518 -18 q 199 6 290 -18 q 78 57 108 31 l 114 182 z "},"T":{"ha":785,"x_min":10,"x_max":775,"o":"m 775 821 l 458 821 l 458 0 l 300 0 l 300 821 l 10 821 l 10 944 l 751 944 l 775 821 z "},"U":{"ha":981,"x_min":114,"x_max":865,"o":"m 271 353 q 331 174 271 235 q 489 113 392 113 q 648 175 589 113 q 707 353 707 238 l 707 944 l 865 944 l 865 340 q 764 86 865 188 q 489 -15 663 -15 q 215 86 315 -15 q 114 340 114 188 l 114 944 l 271 944 l 271 353 z "},"V":{"ha":881,"x_min":8,"x_max":872,"o":"m 374 0 l 8 922 l 163 944 l 443 211 l 715 944 l 872 944 l 511 0 l 374 0 z "},"W":{"ha":1407,"x_min":8,"x_max":1400,"o":"m 935 0 l 700 707 l 475 0 l 332 0 l 8 922 l 163 944 l 404 222 l 629 944 l 776 944 l 1014 224 l 1243 944 l 1400 944 l 1079 0 l 935 0 z "},"X":{"ha":911,"x_min":14,"x_max":897,"o":"m 14 10 l 360 478 l 33 921 l 186 944 l 456 576 l 733 944 l 897 944 l 535 468 l 879 0 l 714 0 l 440 369 l 160 -14 l 14 10 z "},"Y":{"ha":819,"x_min":8,"x_max":813,"o":"m 326 0 l 328 372 l 8 922 l 171 944 l 404 529 l 647 944 l 813 944 l 485 369 l 485 0 l 326 0 z "},"Z":{"ha":800,"x_min":25,"x_max":767,"o":"m 767 0 l 43 0 q 33 61 38 31 q 25 122 29 92 q 303 472 163 296 q 582 821 444 647 l 83 821 q 74 883 79 851 q 64 944 69 914 l 746 944 l 763 821 l 194 122 l 749 122 q 757 61 753 92 q 767 0 761 31 z "},"a":{"ha":711,"x_min":68,"x_max":624,"o":"m 204 197 q 231 135 204 164 q 304 107 257 107 q 390 128 347 107 q 467 185 432 150 l 467 304 l 317 304 q 233 272 261 304 q 204 197 204 240 m 106 631 q 221 674 144 657 q 340 692 297 692 q 542 624 460 692 q 624 450 624 556 l 624 0 l 539 0 q 519 30 529 14 q 500 60 510 46 q 411 6 464 29 q 307 -17 358 -17 q 127 43 186 -17 q 68 197 68 103 q 138 355 68 300 q 319 410 207 410 l 465 410 q 435 509 461 469 q 343 549 408 549 q 238 535 290 549 q 149 503 186 521 q 126 567 138 535 q 106 631 115 599 z "},"b":{"ha":793,"x_min":100,"x_max":731,"o":"m 100 0 l 100 965 l 257 981 l 257 643 q 343 683 297 668 q 428 697 389 697 q 653 595 576 697 q 731 340 731 493 q 652 85 731 188 q 428 -17 574 -17 q 324 3 383 -17 q 222 57 265 22 l 183 0 l 100 0 m 257 165 q 324 130 288 143 q 392 117 360 117 q 530 187 490 117 q 569 339 569 257 q 533 497 569 431 q 392 564 496 564 q 324 550 360 564 q 257 514 288 536 l 257 165 z "},"c":{"ha":667,"x_min":61,"x_max":618,"o":"m 399 558 q 269 495 314 558 q 224 338 224 432 q 267 179 224 242 q 397 117 311 117 q 488 128 451 117 q 571 163 525 140 l 615 49 q 505 -1 571 15 q 396 -17 439 -17 q 149 81 236 -17 q 61 338 61 178 q 151 594 63 496 q 399 692 239 692 q 506 674 440 692 q 618 624 571 657 l 572 511 q 490 545 526 532 q 399 558 453 558 z "},"d":{"ha":804,"x_min":61,"x_max":704,"o":"m 401 564 q 263 494 301 564 q 224 340 224 424 q 260 183 224 250 q 401 117 297 117 q 474 133 436 117 q 546 174 513 149 l 546 507 q 474 549 513 533 q 401 564 436 564 m 704 981 l 704 0 l 619 0 l 576 64 q 472 4 532 25 q 363 -17 413 -17 q 138 85 215 -17 q 61 340 61 188 q 142 595 61 493 q 369 697 224 697 q 457 683 408 697 q 546 642 506 668 l 546 965 l 704 981 z "},"e":{"ha":749,"x_min":61,"x_max":693,"o":"m 693 294 l 226 294 q 286 165 236 215 q 428 115 336 115 q 519 128 481 115 q 603 161 558 140 q 627 104 615 133 q 650 47 639 75 q 536 -1 604 14 q 425 -17 468 -17 q 157 80 253 -17 q 61 336 61 176 q 150 594 61 496 q 392 692 239 692 q 629 572 565 692 q 693 294 693 451 m 543 400 q 491 516 529 475 q 388 557 453 557 q 280 515 321 557 q 229 400 239 474 l 543 400 z "},"f":{"ha":488,"x_min":14,"x_max":479,"o":"m 117 738 q 179 911 117 847 q 354 975 242 975 q 422 963 385 975 q 479 938 460 951 l 436 822 q 400 834 418 829 q 365 839 382 839 q 295 805 317 839 q 274 719 274 771 l 274 660 l 400 660 l 450 538 l 274 538 l 274 0 l 117 0 l 117 538 l 14 538 l 14 660 l 117 660 l 117 738 z "},"g":{"ha":804,"x_min":61,"x_max":704,"o":"m 546 507 q 474 548 511 532 q 401 564 436 564 q 262 494 301 564 q 222 340 222 424 q 260 183 222 249 q 401 117 297 117 q 474 133 436 117 q 546 174 511 149 l 546 507 m 704 -17 q 625 -212 704 -133 q 378 -290 546 -290 q 257 -272 335 -290 q 128 -219 179 -254 q 152 -163 140 -192 q 175 -107 164 -135 q 274 -149 231 -133 q 374 -164 318 -164 q 501 -125 456 -164 q 546 -15 546 -86 l 546 42 q 455 -1 504 15 q 363 -17 406 -17 q 138 85 215 -17 q 61 339 61 186 q 142 595 61 493 q 369 697 222 697 q 478 675 418 697 q 582 615 539 653 l 619 674 l 704 674 l 704 -17 z "},"h":{"ha":801,"x_min":101,"x_max":714,"o":"m 257 614 q 360 675 300 653 q 471 697 421 697 q 658 622 601 697 q 714 433 714 546 l 714 0 l 557 0 l 557 424 q 526 526 557 489 q 432 564 494 564 q 343 541 392 564 q 257 483 294 518 l 257 0 l 101 0 l 101 965 l 257 981 l 257 614 z "},"i":{"ha":347,"x_min":79,"x_max":265,"o":"m 172 782 q 107 808 133 782 q 81 874 81 835 q 106 940 79 913 q 172 967 133 967 q 238 940 211 967 q 265 874 265 913 q 238 808 265 835 q 172 782 211 782 m 93 0 l 93 674 l 251 674 l 251 0 l 93 0 z "},"j":{"ha":369,"x_min":-19,"x_max":285,"o":"m 190 782 q 125 808 151 782 q 99 874 99 835 q 125 940 99 913 q 190 967 151 967 q 257 940 229 967 q 285 874 285 913 q 257 808 285 835 q 190 782 229 782 m 113 4 l 113 674 l 271 674 l 271 -6 q 222 -174 271 -112 q 40 -278 172 -236 l -19 -160 q 82 -97 51 -133 q 113 4 113 -61 z "},"k":{"ha":717,"x_min":100,"x_max":704,"o":"m 100 0 l 100 965 l 257 981 l 257 413 l 551 692 l 640 583 q 544 494 593 539 q 446 406 494 450 l 704 0 l 522 0 l 336 304 q 296 267 317 286 q 257 231 275 249 l 257 0 l 100 0 z "},"l":{"ha":357,"x_min":100,"x_max":257,"o":"m 100 0 l 100 965 l 257 981 l 257 0 l 100 0 z "},"m":{"ha":1222,"x_min":93,"x_max":1136,"o":"m 653 590 q 765 667 696 638 q 892 697 835 697 q 1079 622 1022 697 q 1136 433 1136 546 l 1136 0 l 978 0 l 978 424 q 947 526 978 489 q 853 564 915 564 q 767 542 813 564 q 683 486 721 519 q 686 460 685 474 q 688 433 688 447 l 688 0 l 529 0 l 529 424 q 498 526 529 489 q 406 564 467 564 q 326 546 367 564 q 250 497 286 528 l 250 0 l 93 0 l 93 674 l 179 674 l 219 607 q 328 673 264 649 q 443 697 392 697 q 573 669 521 697 q 653 590 625 640 z "},"n":{"ha":796,"x_min":93,"x_max":708,"o":"m 226 593 q 340 669 271 640 q 464 697 408 697 q 651 622 593 697 q 708 433 708 546 l 708 0 l 551 0 l 551 424 q 520 526 551 489 q 426 564 489 564 q 338 541 386 564 q 250 483 289 518 l 250 0 l 93 0 l 93 674 l 179 674 l 226 593 z "},"o":{"ha":797,"x_min":61,"x_max":736,"o":"m 388 -17 q 146 81 231 -15 q 61 339 61 178 q 151 594 63 497 q 399 692 240 690 q 649 592 561 692 q 736 332 736 492 q 640 78 735 174 q 388 -17 546 -17 m 575 332 q 533 495 575 433 q 403 557 490 557 q 269 501 315 557 q 224 340 224 444 q 263 176 224 235 q 389 117 301 117 q 525 171 476 117 q 575 332 574 225 z "},"p":{"ha":793,"x_min":100,"x_max":731,"o":"m 257 165 q 324 130 288 143 q 392 117 360 117 q 530 187 490 117 q 569 339 569 257 q 533 497 569 431 q 392 564 496 564 q 324 550 360 564 q 257 514 288 536 l 257 165 m 100 -304 l 100 674 l 183 674 l 218 619 q 322 676 263 654 q 428 697 381 697 q 653 595 576 697 q 731 340 731 493 q 652 85 731 188 q 428 -17 574 -17 q 343 -3 389 -17 q 257 36 297 11 l 257 -289 l 100 -304 z "},"q":{"ha":804,"x_min":61,"x_max":704,"o":"m 704 674 l 704 -290 l 546 -304 l 546 42 q 455 -1 504 15 q 363 -17 406 -17 q 138 85 215 -17 q 61 340 61 188 q 142 595 61 493 q 369 697 224 697 q 479 675 419 697 q 583 617 539 653 l 619 674 l 704 674 m 401 564 q 263 494 301 564 q 224 340 224 424 q 260 183 224 250 q 401 117 297 117 q 474 133 436 117 q 546 174 513 149 l 546 507 q 474 549 513 533 q 401 564 436 564 z "},"r":{"ha":485,"x_min":93,"x_max":475,"o":"m 93 0 l 93 674 l 178 674 q 203 624 190 649 q 229 576 217 600 q 329 642 269 611 q 443 674 389 674 l 475 547 q 365 519 425 547 q 250 442 304 492 l 250 0 l 93 0 z "},"s":{"ha":607,"x_min":50,"x_max":556,"o":"m 485 511 q 399 545 442 532 q 306 558 357 558 q 238 541 263 558 q 213 493 213 524 q 242 451 213 469 q 328 411 272 432 q 483 328 411 382 q 556 189 556 275 q 485 38 556 92 q 279 -17 415 -17 q 167 -1 236 -17 q 51 49 97 14 l 99 163 q 190 128 144 140 q 278 117 236 117 q 367 134 336 117 q 399 182 399 151 q 366 241 399 215 q 272 286 333 267 q 122 360 193 313 q 50 490 50 408 q 119 638 50 585 q 308 692 189 692 q 418 674 351 692 q 532 625 485 657 l 485 511 z "},"t":{"ha":494,"x_min":14,"x_max":474,"o":"m 474 10 q 416 -15 453 -4 q 349 -25 379 -25 q 171 33 236 -25 q 106 201 106 92 l 106 549 l 14 549 l 14 669 l 106 669 l 106 832 l 263 864 l 263 669 l 385 669 l 433 549 l 263 549 l 263 228 q 286 142 263 176 q 360 108 310 108 q 395 113 378 108 q 429 125 413 118 l 474 10 z "},"u":{"ha":783,"x_min":86,"x_max":689,"o":"m 558 69 q 449 1 513 26 q 331 -25 385 -25 q 143 51 200 -25 q 86 239 86 128 l 86 674 l 244 674 l 244 249 q 276 147 244 185 q 369 108 307 108 q 450 128 406 108 q 532 176 494 147 l 532 674 l 689 674 l 689 0 l 603 0 l 558 69 z "},"v":{"ha":683,"x_min":14,"x_max":671,"o":"m 271 0 l 14 651 l 175 674 l 346 226 l 508 674 l 671 674 l 411 0 l 271 0 z "},"w":{"ha":1047,"x_min":14,"x_max":1035,"o":"m 672 0 l 519 446 l 376 0 l 238 0 l 14 651 l 175 674 l 310 240 l 439 674 l 608 674 l 743 240 l 871 674 l 1035 674 l 808 0 l 672 0 z "},"x":{"ha":732,"x_min":13,"x_max":719,"o":"m 13 0 l 267 342 l 33 650 l 194 674 l 368 439 l 549 674 l 719 674 l 461 317 l 699 0 l 526 0 l 357 219 l 186 0 l 13 0 z "},"y":{"ha":683,"x_min":14,"x_max":671,"o":"m 225 -58 l 260 33 l 14 651 l 174 674 l 346 228 l 508 674 l 671 674 l 426 40 l 371 -106 q 269 -235 342 -181 q 114 -307 197 -289 l 60 -182 q 158 -133 110 -160 q 225 -58 207 -106 z "},"z":{"ha":632,"x_min":31,"x_max":597,"o":"m 589 585 l 239 126 l 583 126 l 597 0 l 51 0 l 31 82 l 376 544 l 85 544 l 54 674 l 581 674 l 589 585 z "},"ﬁ":{"ha":836,"x_min":14,"x_max":753,"o":"m 14 0 m 117 738 q 179 911 117 847 q 354 975 242 975 q 422 963 385 975 q 479 938 460 951 l 436 822 q 400 834 418 829 q 365 839 382 839 q 295 805 317 839 q 274 719 274 771 l 274 660 l 400 660 l 450 538 l 274 538 l 274 0 l 117 0 l 117 538 l 14 538 l 14 660 l 117 660 l 117 738 m 660 782 q 594 808 621 782 q 568 874 568 835 q 594 940 567 913 q 660 967 621 967 q 726 940 699 967 q 753 874 753 913 q 726 808 753 835 q 660 782 699 782 m 581 0 l 581 674 l 739 674 l 739 0 l 581 0 z "},"ﬂ":{"ha":846,"x_min":14,"x_max":744,"o":"m 14 0 m 117 738 q 179 911 117 847 q 354 975 242 975 q 422 963 385 975 q 479 938 460 951 l 436 822 q 400 834 418 829 q 365 839 382 839 q 295 805 317 839 q 274 719 274 771 l 274 660 l 400 660 l 450 538 l 274 538 l 274 0 l 117 0 l 117 538 l 14 538 l 14 660 l 117 660 l 117 738 m 588 0 l 588 965 l 744 981 l 744 0 l 588 0 z "},"`":{"ha":290,"x_min":22,"x_max":269,"o":"m 22 1042 l 186 1042 l 269 818 l 150 818 l 22 1042 z "},"¨":{"ha":464,"x_min":22,"x_max":440,"o":"m 106 1007 q 163 983 140 1007 q 186 925 186 958 q 163 867 186 890 q 106 843 140 843 q 47 867 71 843 q 22 925 22 890 q 47 983 22 958 q 106 1007 71 1007 m 358 1007 q 417 983 393 1007 q 440 925 440 958 q 417 867 440 890 q 358 843 393 843 q 300 867 325 843 q 275 925 275 890 q 300 983 275 958 q 358 1007 325 1007 z "},"¯":{"ha":400,"x_min":22,"x_max":379,"o":"m 22 985 l 379 985 l 379 861 l 22 861 l 22 985 z "},"´":{"ha":290,"x_min":22,"x_max":269,"o":"m 106 1042 l 269 1042 l 142 818 l 22 818 l 106 1042 z "},"ˆ":{"ha":528,"x_min":22,"x_max":507,"o":"m 171 818 l 22 818 l 217 1042 l 311 1042 l 507 818 l 361 818 l 267 924 l 171 818 z "},"ˇ":{"ha":528,"x_min":22,"x_max":507,"o":"m 22 1042 l 171 1042 l 267 936 l 361 1042 l 507 1042 l 311 818 l 217 818 l 22 1042 z "},"˘":{"ha":440,"x_min":22,"x_max":418,"o":"m 418 1038 q 371 889 418 954 q 221 822 324 824 q 70 889 118 824 q 22 1038 22 954 l 131 1038 q 151 969 131 1001 q 221 936 172 936 q 290 969 268 936 q 311 1038 311 1001 l 418 1038 z "},"˙":{"ha":231,"x_min":22,"x_max":207,"o":"m 115 1019 q 181 992 154 1019 q 207 926 207 965 q 181 860 207 886 q 115 833 154 833 q 49 860 76 833 q 22 926 22 886 q 49 992 22 965 q 115 1019 76 1019 z "},"˚":{"ha":329,"x_min":22,"x_max":307,"o":"m 164 1089 q 264 1050 221 1089 q 307 956 307 1011 q 264 861 307 897 q 164 825 221 825 q 65 861 107 825 q 22 956 22 897 q 65 1050 22 1011 q 164 1089 107 1089 m 164 899 q 204 916 188 899 q 221 956 221 933 q 204 994 221 978 q 164 1011 188 1011 q 124 994 142 1011 q 107 956 107 978 q 124 916 107 933 q 164 899 142 899 z "},"˜":{"ha":483,"x_min":24,"x_max":461,"o":"m 361 988 l 461 988 q 418 865 461 900 q 321 831 375 831 q 239 858 269 831 q 171 885 208 885 q 142 869 154 885 q 128 838 129 854 l 24 838 q 66 959 24 925 q 164 993 108 993 q 248 967 215 993 q 319 940 281 940 q 348 955 336 940 q 361 988 360 969 z "},"˝":{"ha":518,"x_min":22,"x_max":496,"o":"m 343 1042 l 496 1042 l 367 818 l 260 818 l 343 1042 m 106 1042 l 257 1042 l 129 818 l 22 818 l 106 1042 z "},"˛":{"ha":335,"x_min":22,"x_max":313,"o":"m 82 7 l 226 7 q 178 -53 201 -14 q 154 -124 154 -93 q 168 -158 154 -146 q 206 -171 182 -171 q 234 -165 217 -171 q 267 -146 251 -158 l 313 -243 q 251 -276 283 -265 q 179 -287 218 -287 q 65 -244 108 -287 q 22 -136 22 -200 q 40 -60 22 -104 q 82 7 58 -15 z "},"¸":{"ha":339,"x_min":22,"x_max":317,"o":"m 129 18 l 244 18 l 217 -49 q 288 -98 260 -62 q 317 -169 317 -133 q 265 -274 317 -240 q 147 -307 213 -307 q 83 -297 121 -307 q 22 -271 44 -287 l 58 -178 q 103 -194 76 -186 q 147 -203 129 -203 q 185 -197 167 -203 q 203 -172 203 -190 q 168 -131 203 -150 q 79 -107 133 -112 l 129 18 z "},"":{"ha":231,"x_min":19,"x_max":208,"o":"m 114 -29 q 181 -60 153 -29 q 208 -142 208 -90 q 164 -279 208 -215 q 56 -374 119 -343 l 19 -300 q 64 -267 42 -290 q 94 -214 86 -244 q 44 -186 68 -214 q 21 -124 21 -158 q 48 -59 21 -89 q 114 -29 75 -29 z "},"Þ":{"ha":836,"x_min":124,"x_max":772,"o":"m 124 0 l 124 944 l 279 944 l 279 786 l 407 786 q 666 718 560 786 q 772 489 772 650 q 656 253 772 328 q 393 179 540 179 l 279 179 l 279 0 l 124 0 m 403 657 l 279 657 l 279 310 l 401 310 q 545 351 489 310 q 607 481 601 392 q 553 618 607 579 q 403 657 499 657 z "},"Ð":{"ha":982,"x_min":25,"x_max":896,"o":"m 132 0 l 132 410 l 40 410 l 25 532 l 132 532 l 132 944 l 468 944 q 792 812 688 944 q 896 478 896 679 q 784 133 896 264 q 465 0 672 1 l 132 0 m 403 410 l 290 410 l 290 131 l 464 131 q 660 215 586 131 q 735 476 735 299 q 672 720 735 629 q 474 811 608 811 l 290 811 l 290 532 l 390 532 l 403 410 z "},"Æ":{"ha":1299,"x_min":1,"x_max":1265,"o":"m 635 0 l 635 238 l 308 238 q 230 118 269 178 q 150 0 190 58 q 76 11 114 6 q 1 22 39 17 l 618 944 l 1185 944 l 1207 822 l 793 822 l 793 540 l 1050 540 l 1075 417 l 793 417 l 793 122 l 1243 122 q 1254 61 1249 92 q 1265 0 1260 31 l 635 0 m 393 364 l 635 364 l 635 729 l 393 364 z "},"Đ":{"ha":982,"x_min":25,"x_max":896,"o":"m 132 0 l 132 410 l 40 410 l 25 532 l 132 532 l 132 944 l 468 944 q 792 812 688 944 q 896 478 896 679 q 784 133 896 264 q 465 0 672 1 l 132 0 m 403 410 l 290 410 l 290 131 l 464 131 q 660 215 586 131 q 735 476 735 299 q 672 720 735 629 q 474 811 608 811 l 290 811 l 290 532 l 390 532 l 403 410 z "},"Ł":{"ha":756,"x_min":15,"x_max":738,"o":"m 738 0 l 138 0 l 138 315 l 76 268 l 15 376 l 138 471 l 138 944 l 294 944 l 294 593 l 429 699 l 492 592 l 294 438 l 294 122 l 715 122 l 738 0 z "},"Œ":{"ha":1379,"x_min":85,"x_max":1346,"o":"m 717 793 q 625 822 661 811 q 526 832 589 832 q 326 733 404 831 q 249 469 249 635 q 316 219 249 325 q 513 113 383 113 q 625 125 576 113 q 717 156 674 138 l 717 793 m 1346 0 l 717 0 l 717 14 q 617 -10 669 0 q 521 -19 564 -19 q 193 123 301 -19 q 85 468 85 265 q 203 823 85 682 q 529 964 322 964 q 614 955 563 964 q 717 928 665 946 l 717 944 l 1264 944 l 1288 822 l 872 822 l 872 540 l 1132 540 l 1156 417 l 872 417 l 872 122 l 1324 122 l 1346 0 z "},"Ø":{"ha":1028,"x_min":85,"x_max":943,"o":"m 85 468 q 197 823 85 683 q 514 967 308 963 q 839 823 735 967 q 943 478 943 679 q 831 124 943 264 q 513 -19 719 -15 q 189 124 293 -19 q 85 468 85 268 m 517 832 q 322 733 396 832 q 249 469 249 635 q 267 320 249 389 q 321 204 285 251 l 582 824 q 551 830 567 828 q 517 832 535 832 m 449 122 q 478 115 463 118 q 510 113 493 113 q 706 206 633 113 q 779 478 779 300 q 762 622 779 556 q 710 735 744 688 l 449 122 z "},"ß":{"ha":867,"x_min":101,"x_max":807,"o":"m 101 657 q 186 883 101 799 q 419 967 271 967 q 650 901 556 967 q 744 704 744 835 q 713 589 744 643 q 631 511 681 535 q 753 426 699 492 q 807 268 807 360 q 712 69 807 138 q 467 0 617 0 l 346 0 l 346 129 l 458 129 q 588 166 533 129 q 643 272 643 203 q 592 384 643 343 q 471 425 542 425 l 357 425 l 357 551 l 403 551 q 535 591 490 551 q 581 694 581 631 q 535 797 581 761 q 425 832 489 832 q 303 784 350 832 q 257 654 257 736 l 257 0 l 101 0 l 101 657 z "},"ð":{"ha":769,"x_min":50,"x_max":692,"o":"m 558 867 l 494 814 q 635 617 579 731 q 692 365 692 503 q 594 80 692 176 q 346 -17 496 -17 q 132 73 214 -17 q 50 278 50 163 q 133 474 50 390 q 351 558 215 558 q 446 538 399 558 q 529 492 493 518 q 474 622 511 561 q 388 731 436 683 l 240 613 l 178 721 l 283 807 q 212 843 249 828 q 139 867 175 858 l 208 971 q 302 940 256 961 q 394 892 349 919 l 497 975 l 558 867 m 194 271 q 237 160 194 210 q 350 111 279 111 q 488 169 440 111 q 546 321 536 228 q 474 406 525 367 q 351 444 422 444 q 236 390 278 444 q 194 271 194 336 z "},"þ":{"ha":793,"x_min":100,"x_max":731,"o":"m 257 165 q 324 130 288 143 q 392 117 360 117 q 530 187 490 117 q 569 339 569 257 q 533 497 569 431 q 392 564 496 564 q 324 550 360 564 q 257 514 288 536 l 257 165 m 100 -304 l 100 965 l 257 981 l 257 643 q 343 683 297 668 q 428 697 389 697 q 653 595 576 697 q 731 340 731 493 q 652 85 731 188 q 428 -17 574 -17 q 343 -3 389 -17 q 257 36 297 11 l 257 -289 l 100 -304 z "},"ƒ":{"ha":488,"x_min":-89,"x_max":479,"o":"m 274 83 q 211 -88 274 -25 q 36 -151 149 -151 q -32 -141 6 -151 q -89 -115 -69 -131 l -46 0 q -11 -12 -29 -7 q 25 -17 7 -17 q 95 17 74 -17 q 117 101 117 50 l 117 538 l 14 538 l 14 660 l 117 660 l 117 738 q 179 911 117 847 q 354 975 242 975 q 422 963 385 975 q 479 938 460 951 l 436 822 q 400 834 418 829 q 365 839 382 839 q 295 805 317 839 q 274 719 274 771 l 274 660 l 400 660 l 450 538 l 274 538 l 274 83 z "},"æ":{"ha":1150,"x_min":68,"x_max":1094,"o":"m 1094 294 l 628 294 q 688 165 638 215 q 829 115 738 115 q 922 128 883 115 q 1006 161 960 140 q 1028 104 1017 133 q 1053 47 1040 75 q 938 -1 1007 14 q 826 -17 869 -17 q 659 14 731 -17 q 542 100 588 44 q 442 20 507 57 q 308 -17 376 -17 q 126 41 185 -17 q 68 193 68 99 q 138 348 68 296 q 319 400 207 400 l 467 400 l 467 419 q 435 513 467 478 q 343 549 403 549 q 238 535 290 549 q 149 503 186 521 q 126 567 138 535 q 106 631 115 599 q 221 674 144 657 q 340 692 297 692 q 465 667 408 692 q 558 599 521 642 q 660 667 600 642 q 792 692 719 692 q 1031 572 968 692 q 1094 294 1094 453 m 943 400 q 892 516 932 475 q 789 557 853 557 q 683 515 724 557 q 629 400 642 474 l 943 400 m 204 193 q 231 133 204 160 q 304 107 257 107 q 400 133 353 107 q 482 203 447 158 q 472 247 476 224 q 464 294 467 269 l 317 294 q 233 265 261 294 q 204 193 204 236 z "},"đ":{"ha":804,"x_min":61,"x_max":782,"o":"m 401 564 q 263 494 301 564 q 224 340 224 424 q 260 183 224 250 q 401 117 297 117 q 474 133 436 117 q 546 174 513 149 l 546 507 q 474 549 513 533 q 401 564 436 564 m 782 764 l 704 764 l 704 0 l 619 0 l 576 64 q 472 4 532 25 q 363 -17 413 -17 q 138 85 215 -17 q 61 340 61 188 q 142 595 61 493 q 369 697 224 697 q 457 683 408 697 q 546 642 506 668 l 546 764 l 424 764 l 410 879 l 546 879 l 546 965 l 704 981 l 704 879 l 768 879 l 782 764 z "},"œ":{"ha":1206,"x_min":61,"x_max":1151,"o":"m 1151 294 l 683 294 q 742 165 693 215 q 883 115 792 115 q 978 128 939 115 q 1061 161 1017 140 l 1108 47 q 994 -1 1063 14 q 882 -17 925 -17 q 753 0 811 -17 q 650 47 694 17 q 540 -1 604 14 q 432 -17 475 -17 q 161 80 261 -17 q 61 335 61 176 q 160 592 61 494 q 432 690 260 690 q 533 676 468 690 q 644 629 597 661 q 736 675 685 658 q 847 692 788 692 q 1088 572 1024 692 q 1151 294 1151 451 m 222 338 q 276 178 222 242 q 435 115 331 115 q 506 123 476 115 q 565 144 535 131 q 531 232 542 183 q 519 336 519 281 q 530 442 519 393 q 563 529 540 490 q 504 550 533 542 q 435 558 475 558 q 277 494 332 558 q 222 338 222 431 m 999 400 q 949 516 988 475 q 846 557 910 557 q 738 515 778 557 q 686 400 697 474 l 999 400 z "},"ĺ":{"ha":357,"x_min":100,"x_max":358,"o":"m 192 1160 l 358 1160 q 297 1074 328 1117 q 235 989 265 1032 l 115 989 q 153 1074 133 1032 q 192 1160 174 1117 m 100 0 l 100 935 l 257 951 l 257 0 l 100 0 z "},"ł":{"ha":357,"x_min":-60,"x_max":417,"o":"m 417 621 l 257 496 l 257 0 l 100 0 l 100 374 q 51 335 76 354 q 1 296 26 315 q -28 350 -12 322 q -60 404 -44 378 q 20 467 -19 435 q 100 531 60 499 l 100 965 l 257 981 l 257 651 l 353 728 q 385 674 369 701 q 417 621 401 647 z "},"ı":{"ha":347,"x_min":93,"x_max":251,"o":"m 93 0 l 93 674 l 251 674 l 251 0 l 93 0 z "},"ø":{"ha":797,"x_min":61,"x_max":736,"o":"m 388 -17 q 146 81 231 -15 q 61 339 61 178 q 151 594 63 497 q 399 692 240 690 q 649 592 561 692 q 736 332 736 492 q 640 78 735 174 q 388 -17 546 -17 m 436 551 q 421 556 432 554 q 403 557 410 557 q 269 501 315 557 q 224 340 224 444 q 229 268 224 301 q 247 208 235 235 l 436 551 m 389 117 q 525 171 476 117 q 575 332 574 225 q 568 401 575 368 q 550 460 561 435 l 361 119 q 374 117 367 118 q 389 117 382 117 z "},"ģ":{"ha":804,"x_min":61,"x_max":704,"o":"m 371 758 q 304 790 332 758 q 276 872 276 821 q 322 1008 276 944 q 429 1104 367 1072 q 447 1067 438 1086 q 465 1029 456 1049 q 421 997 443 1019 q 392 944 399 975 q 440 916 415 944 q 465 854 465 888 q 438 790 465 821 q 371 758 410 758 m 546 507 q 474 548 511 532 q 401 564 436 564 q 262 494 301 564 q 222 340 222 424 q 260 183 222 249 q 401 117 297 117 q 474 133 436 117 q 546 174 511 149 l 546 507 m 704 -17 q 625 -212 704 -133 q 378 -290 546 -290 q 257 -272 335 -290 q 128 -219 179 -254 q 152 -163 140 -192 q 175 -107 164 -135 q 274 -149 231 -133 q 374 -164 318 -164 q 501 -125 456 -164 q 546 -15 546 -86 l 546 42 q 455 -1 504 15 q 363 -17 406 -17 q 138 85 215 -17 q 61 339 61 186 q 142 595 61 493 q 369 697 222 697 q 478 675 418 697 q 582 615 539 653 l 619 674 l 704 674 l 704 -17 z "},"À":{"ha":881,"x_min":8,"x_max":872,"o":"m 293 1250 l 458 1250 l 542 1026 l 422 1026 l 293 1250 m 436 731 l 299 364 l 576 364 l 436 731 m 507 944 l 872 22 l 715 0 l 625 238 l 253 238 l 164 0 l 8 0 l 369 944 l 507 944 z "},"Á":{"ha":881,"x_min":8,"x_max":872,"o":"m 419 1250 l 583 1250 l 456 1026 l 336 1026 l 419 1250 m 436 731 l 299 364 l 576 364 l 436 731 m 507 944 l 872 22 l 715 0 l 625 238 l 253 238 l 164 0 l 8 0 l 369 944 l 507 944 z "},"Â":{"ha":881,"x_min":8,"x_max":872,"o":"m 339 1026 l 190 1026 l 385 1250 l 479 1250 l 675 1026 l 529 1026 l 435 1132 l 339 1026 m 436 731 l 299 364 l 576 364 l 436 731 m 507 944 l 872 22 l 715 0 l 625 238 l 253 238 l 164 0 l 8 0 l 369 944 l 507 944 z "},"Ã":{"ha":881,"x_min":8,"x_max":872,"o":"m 547 1196 l 649 1196 q 606 1074 649 1108 q 507 1039 563 1039 q 426 1066 457 1039 q 358 1093 394 1093 q 329 1078 342 1093 q 315 1046 317 1063 l 210 1046 q 253 1167 210 1133 q 350 1201 296 1201 q 435 1175 403 1201 q 507 1149 468 1149 q 535 1163 524 1149 q 547 1196 547 1178 m 576 364 l 435 731 q 366 547 400 639 q 297 364 332 456 l 576 364 m 507 944 l 872 22 q 794 11 833 17 q 715 0 754 6 l 624 238 l 253 238 q 208 118 231 178 q 164 0 186 58 l 8 0 q 189 472 97 235 q 369 944 281 710 l 507 944 z "},"Ä":{"ha":881,"x_min":8,"x_max":872,"o":"m 308 1215 q 366 1191 343 1215 q 389 1133 389 1167 q 366 1075 389 1099 q 308 1051 343 1051 q 249 1075 274 1051 q 225 1133 225 1099 q 249 1191 225 1167 q 308 1215 274 1215 m 561 1215 q 619 1191 596 1215 q 643 1133 643 1167 q 619 1075 643 1099 q 561 1051 596 1051 q 503 1075 528 1051 q 478 1133 478 1099 q 503 1191 478 1167 q 561 1215 528 1215 m 436 731 l 299 364 l 576 364 l 436 731 m 507 944 l 872 22 l 715 0 l 625 238 l 253 238 l 164 0 l 8 0 l 369 944 l 507 944 z "},"Å":{"ha":881,"x_min":8,"x_max":872,"o":"m 435 1297 q 534 1258 492 1297 q 576 1164 576 1219 q 534 1069 576 1106 q 435 1033 492 1033 q 334 1069 376 1033 q 292 1164 292 1106 q 334 1258 292 1219 q 435 1297 376 1297 m 435 1107 q 474 1124 457 1107 q 490 1164 490 1142 q 474 1203 490 1186 q 435 1219 457 1219 q 394 1203 411 1219 q 378 1164 378 1186 q 394 1124 378 1142 q 435 1107 411 1107 m 436 731 l 299 364 l 576 364 l 436 731 m 507 944 l 872 22 l 715 0 l 625 238 l 253 238 l 164 0 l 8 0 l 369 944 l 507 944 z "},"Ă":{"ha":881,"x_min":8,"x_max":872,"o":"m 633 1246 q 586 1097 633 1163 q 436 1031 539 1032 q 285 1097 333 1032 q 238 1246 238 1163 l 346 1246 q 367 1177 346 1210 q 436 1144 388 1144 q 505 1177 483 1144 q 526 1246 526 1210 l 633 1246 m 436 731 l 299 364 l 576 364 l 436 731 m 507 944 l 872 22 l 715 0 l 625 238 l 253 238 l 164 0 l 8 0 l 369 944 l 507 944 z "},"Ą":{"ha":881,"x_min":8,"x_max":944,"o":"m 507 944 l 872 22 q 818 -45 850 3 q 786 -124 786 -93 q 799 -158 786 -146 q 836 -171 813 -171 q 866 -165 849 -171 q 899 -146 883 -158 l 944 -242 q 883 -276 915 -265 q 811 -287 850 -287 q 697 -244 740 -287 q 654 -136 654 -200 q 672 -60 654 -103 q 713 6 690 -17 q 668 122 690 64 q 624 238 646 179 l 253 238 q 208 118 231 178 q 164 0 186 58 l 8 0 q 189 472 97 235 q 369 944 281 710 l 507 944 m 576 364 l 435 731 q 366 547 400 639 q 297 364 332 456 l 576 364 z "},"Ā":{"ha":881,"x_min":8,"x_max":872,"o":"m 253 1193 l 610 1193 l 610 1069 l 253 1069 l 253 1193 m 436 731 l 299 364 l 576 364 l 436 731 m 507 944 l 872 22 l 715 0 l 625 238 l 253 238 l 164 0 l 8 0 l 369 944 l 507 944 z "},"Ç":{"ha":826,"x_min":85,"x_max":760,"o":"m 706 792 q 609 821 649 810 q 506 832 569 832 q 317 733 385 831 q 249 469 249 635 q 306 219 249 325 q 493 113 363 113 q 608 125 557 113 q 701 156 660 138 l 760 39 q 663 3 719 18 q 551 -17 606 -11 l 539 -49 q 610 -98 582 -62 q 639 -169 639 -133 q 587 -274 639 -240 q 469 -307 535 -307 q 405 -297 443 -307 q 344 -271 367 -287 l 381 -178 q 425 -194 399 -186 q 469 -203 451 -203 q 507 -197 489 -203 q 525 -172 525 -190 q 491 -131 525 -150 q 401 -107 457 -112 l 438 -15 q 168 144 251 6 q 85 468 85 282 q 193 823 85 682 q 508 964 301 964 q 625 950 551 964 q 754 906 699 936 l 706 792 z "},"Ć":{"ha":826,"x_min":85,"x_max":760,"o":"m 493 1250 l 657 1250 l 528 1026 l 410 1026 l 493 1250 m 706 792 q 609 821 649 810 q 506 832 569 832 q 317 733 385 831 q 249 469 249 635 q 306 219 249 325 q 493 113 363 113 q 608 125 557 113 q 701 156 660 138 l 760 39 q 635 -3 710 13 q 501 -19 560 -19 q 183 123 282 -19 q 85 468 85 265 q 193 823 85 682 q 508 964 301 964 q 625 950 551 964 q 754 906 699 936 l 706 792 z "},"Č":{"ha":826,"x_min":85,"x_max":760,"o":"m 263 1250 l 411 1250 l 507 1144 l 601 1250 l 747 1250 l 551 1026 l 457 1026 l 263 1250 m 706 792 q 609 821 649 810 q 506 832 569 832 q 317 733 385 831 q 249 469 249 635 q 306 219 249 325 q 493 113 363 113 q 608 125 557 113 q 701 156 660 138 l 760 39 q 635 -3 710 13 q 501 -19 560 -19 q 183 123 282 -19 q 85 468 85 265 q 193 823 85 682 q 508 964 301 964 q 625 950 551 964 q 754 906 699 936 l 706 792 z "},"Ď":{"ha":972,"x_min":124,"x_max":886,"o":"m 194 1250 l 343 1250 l 439 1144 l 533 1250 l 679 1250 l 483 1025 l 389 1025 l 194 1250 m 124 0 l 124 944 l 458 944 q 783 812 679 944 q 886 478 886 679 q 774 133 886 264 q 456 0 663 1 l 124 0 m 465 811 l 279 811 l 279 131 l 454 131 q 651 215 576 131 q 726 476 726 299 q 663 720 726 629 q 465 811 600 811 z "},"È":{"ha":786,"x_min":124,"x_max":754,"o":"m 261 1250 l 426 1250 l 510 1026 l 390 1026 l 261 1250 m 124 0 l 124 944 l 671 944 l 694 822 l 279 822 l 279 540 l 539 540 q 551 478 544 510 q 563 417 557 447 l 279 417 l 279 122 l 731 122 q 742 61 736 92 q 754 0 749 31 l 124 0 z "},"É":{"ha":786,"x_min":124,"x_max":754,"o":"m 388 1250 l 551 1250 l 424 1026 l 304 1026 l 388 1250 m 124 0 l 124 944 l 671 944 l 694 822 l 279 822 l 279 540 l 539 540 q 551 478 544 510 q 563 417 557 447 l 279 417 l 279 122 l 731 122 q 742 61 736 92 q 754 0 749 31 l 124 0 z "},"Ê":{"ha":786,"x_min":124,"x_max":754,"o":"m 307 1026 l 158 1026 l 353 1250 l 447 1250 l 643 1026 l 497 1026 l 403 1132 l 307 1026 m 124 0 l 124 944 l 671 944 l 694 822 l 279 822 l 279 540 l 539 540 q 551 478 544 510 q 563 417 557 447 l 279 417 l 279 122 l 731 122 q 742 61 736 92 q 754 0 749 31 l 124 0 z "},"Ë":{"ha":786,"x_min":124,"x_max":754,"o":"m 529 1215 q 588 1191 564 1215 q 611 1132 611 1167 q 588 1074 611 1097 q 529 1050 564 1050 q 471 1074 496 1050 q 446 1132 446 1097 q 471 1191 446 1167 q 529 1215 496 1215 m 276 1215 q 334 1191 311 1215 q 357 1132 357 1167 q 334 1074 357 1097 q 276 1050 311 1050 q 217 1074 242 1050 q 193 1132 193 1097 q 217 1191 193 1167 q 276 1215 242 1215 m 124 0 l 124 944 l 671 944 l 694 822 l 279 822 l 279 540 l 539 540 q 551 478 544 510 q 563 417 557 447 l 279 417 l 279 122 l 731 122 q 742 61 736 92 q 754 0 749 31 l 124 0 z "},"Ē":{"ha":786,"x_min":124,"x_max":754,"o":"m 221 1193 l 578 1193 l 578 1068 l 221 1068 l 221 1193 m 124 0 l 124 944 l 671 944 l 694 822 l 279 822 l 279 540 l 539 540 q 551 478 544 510 q 563 417 557 447 l 279 417 l 279 122 l 731 122 q 742 61 736 92 q 754 0 749 31 l 124 0 z "},"Ė":{"ha":786,"x_min":124,"x_max":754,"o":"m 403 1228 q 468 1200 442 1228 q 494 1133 494 1172 q 468 1068 494 1094 q 403 1042 442 1042 q 336 1068 364 1042 q 308 1133 308 1094 q 336 1200 308 1172 q 403 1228 364 1228 m 124 0 l 124 944 l 671 944 l 694 822 l 279 822 l 279 540 l 539 540 q 551 478 544 510 q 563 417 557 447 l 279 417 l 279 122 l 731 122 q 742 61 736 92 q 754 0 749 31 l 124 0 z "},"Ę":{"ha":786,"x_min":124,"x_max":754,"o":"m 124 0 l 124 944 l 671 944 l 694 822 l 279 822 l 279 540 l 539 540 q 551 478 544 510 q 563 417 557 447 l 279 417 l 279 122 l 731 122 q 742 61 736 92 q 754 0 749 31 l 660 0 q 617 -58 638 -22 q 596 -124 596 -94 q 610 -158 596 -146 q 647 -171 624 -171 q 676 -165 658 -171 q 708 -146 693 -158 q 732 -194 719 -169 q 754 -242 744 -218 q 692 -276 725 -265 q 621 -287 660 -287 q 507 -244 550 -287 q 464 -136 464 -200 q 480 -65 464 -106 q 517 0 496 -24 l 124 0 z "},"Ě":{"ha":786,"x_min":124,"x_max":754,"o":"m 157 1250 l 306 1250 q 354 1197 329 1224 q 401 1144 379 1171 q 449 1197 425 1171 q 496 1250 474 1224 l 642 1250 l 447 1026 l 351 1026 l 157 1250 m 124 0 l 124 944 l 671 944 l 694 822 l 279 822 l 279 540 l 539 540 q 551 478 544 510 q 563 417 557 447 l 279 417 l 279 122 l 731 122 q 742 61 736 92 q 754 0 749 31 l 124 0 z "},"Ğ":{"ha":911,"x_min":85,"x_max":813,"o":"m 746 1246 q 698 1097 746 1163 q 547 1031 650 1032 q 397 1097 444 1032 q 349 1246 349 1163 l 458 1246 q 478 1176 458 1210 q 547 1143 499 1143 q 617 1176 594 1143 q 639 1246 639 1210 l 746 1246 m 481 506 l 813 506 l 813 118 q 812 83 813 100 q 811 49 811 65 l 813 47 q 685 0 761 19 q 528 -19 608 -19 q 197 122 308 -19 q 85 467 85 263 q 210 824 85 685 q 546 964 335 964 q 665 950 589 964 q 797 904 742 936 l 749 792 q 652 820 692 810 q 549 831 613 831 q 333 739 418 831 q 247 468 247 647 q 319 208 247 304 q 524 113 390 113 q 607 119 571 113 q 669 132 643 125 l 669 386 l 468 386 l 481 506 z "},"Ì":{"ha":404,"x_min":60,"x_max":308,"o":"m 60 1250 l 224 1250 l 308 1026 l 189 1026 l 60 1250 m 124 0 l 124 944 l 279 944 l 279 0 l 124 0 z "},"Í":{"ha":404,"x_min":103,"x_max":350,"o":"m 186 1250 l 350 1250 q 286 1138 318 1194 q 221 1026 254 1082 l 103 1026 l 186 1250 m 124 0 l 124 944 l 279 944 l 279 0 l 124 0 z "},"Î":{"ha":404,"x_min":-43,"x_max":440,"o":"m 106 1026 l -43 1026 q 53 1138 4 1082 q 151 1250 103 1194 l 246 1250 l 440 1026 l 296 1026 q 248 1079 272 1053 q 201 1132 224 1106 q 153 1079 178 1106 q 106 1026 128 1053 m 124 0 l 124 944 l 279 944 l 279 0 l 124 0 z "},"Ï":{"ha":404,"x_min":-8,"x_max":410,"o":"m 328 1215 q 386 1191 363 1215 q 410 1132 410 1167 q 386 1074 410 1097 q 328 1050 363 1050 q 269 1074 293 1050 q 244 1132 244 1097 q 269 1191 244 1167 q 328 1215 293 1215 m 75 1215 q 133 1191 110 1215 q 156 1132 156 1167 q 133 1074 156 1097 q 75 1050 110 1050 q 16 1074 40 1050 q -8 1132 -8 1097 q 16 1191 -8 1167 q 75 1215 40 1215 m 124 0 l 124 944 l 279 944 l 279 0 l 124 0 z "},"Ī":{"ha":404,"x_min":19,"x_max":376,"o":"m 19 1193 l 376 1193 l 376 1068 l 19 1068 l 19 1193 m 124 0 l 124 944 l 279 944 l 279 0 l 124 0 z "},"Į":{"ha":404,"x_min":75,"x_max":365,"o":"m 124 1 l 124 944 l 279 944 l 279 0 q 231 -55 256 -26 q 207 -124 207 -83 q 220 -158 207 -146 q 257 -171 233 -171 q 287 -165 269 -171 q 319 -146 304 -158 l 365 -242 q 303 -276 336 -265 q 232 -287 271 -287 q 118 -244 161 -287 q 75 -136 75 -200 q 89 -61 75 -100 q 124 1 103 -22 z "},"İ":{"ha":404,"x_min":107,"x_max":292,"o":"m 201 1228 q 266 1200 240 1228 q 292 1133 292 1172 q 266 1068 292 1094 q 201 1042 240 1042 q 135 1068 163 1042 q 107 1133 107 1094 q 135 1200 107 1172 q 201 1228 163 1228 m 124 0 l 124 944 l 279 944 l 279 0 l 124 0 z "},"Ĺ":{"ha":742,"x_min":124,"x_max":724,"o":"m 233 1250 l 397 1250 l 268 1026 l 150 1026 l 233 1250 m 724 0 l 124 0 l 124 944 l 279 944 l 279 122 l 701 122 l 724 0 z "},"Ľ":{"ha":742,"x_min":124,"x_max":724,"o":"m 543 1017 q 610 986 582 1017 q 639 904 639 956 q 590 752 639 831 q 469 635 542 674 l 433 708 q 492 763 468 736 q 522 832 515 789 q 474 860 499 833 q 450 922 450 888 q 477 987 450 957 q 543 1017 504 1017 m 724 0 l 124 0 l 124 944 l 279 944 l 279 122 l 701 122 l 724 0 z "},"Ñ":{"ha":1017,"x_min":124,"x_max":893,"o":"m 635 1196 l 735 1196 q 692 1074 735 1108 q 594 1039 650 1039 q 513 1066 544 1039 q 444 1093 482 1093 q 415 1078 428 1093 q 403 1046 403 1063 l 297 1046 q 340 1167 297 1133 q 438 1201 382 1201 q 523 1175 490 1201 q 593 1149 556 1149 q 622 1163 610 1149 q 635 1196 633 1178 m 124 0 l 124 944 l 272 944 l 658 394 q 697 338 678 367 q 736 279 717 308 l 736 944 l 893 944 l 893 0 l 743 0 l 350 563 l 279 668 l 279 0 l 124 0 z "},"Ń":{"ha":1017,"x_min":124,"x_max":893,"o":"m 506 1250 l 671 1250 q 606 1138 638 1194 q 542 1026 574 1082 l 422 1026 l 506 1250 m 124 0 l 124 944 l 272 944 l 658 394 q 697 338 678 367 q 736 279 717 308 l 736 944 l 893 944 l 893 0 l 743 0 l 350 563 l 279 668 l 279 0 l 124 0 z "},"Ň":{"ha":1017,"x_min":124,"x_max":893,"o":"m 275 1250 l 425 1250 q 472 1197 447 1224 q 521 1144 497 1171 q 567 1197 543 1171 q 615 1250 592 1224 l 760 1250 l 565 1026 l 471 1026 l 275 1250 m 124 0 l 124 944 l 272 944 l 658 394 q 697 338 678 367 q 736 279 717 308 l 736 944 l 893 944 l 893 0 l 743 0 l 350 563 l 279 668 l 279 0 l 124 0 z "},"Ò":{"ha":1028,"x_min":85,"x_max":943,"o":"m 374 1250 l 538 1250 l 621 1026 l 501 1026 l 374 1250 m 85 468 q 197 823 85 683 q 514 967 308 963 q 839 823 735 967 q 943 478 943 679 q 831 124 943 264 q 513 -19 719 -15 q 189 124 293 -19 q 85 468 85 268 m 249 469 q 312 215 249 317 q 510 113 375 113 q 706 206 633 113 q 779 478 779 300 q 716 731 779 631 q 517 832 653 832 q 322 733 396 832 q 249 469 249 635 z "},"Ó":{"ha":1028,"x_min":85,"x_max":943,"o":"m 499 1250 l 664 1250 l 535 1026 l 415 1026 l 499 1250 m 85 468 q 197 823 85 683 q 514 967 308 963 q 839 823 735 967 q 943 478 943 679 q 831 124 943 264 q 513 -19 719 -15 q 189 124 293 -19 q 85 468 85 268 m 249 469 q 312 215 249 317 q 510 113 375 113 q 706 206 633 113 q 779 478 779 300 q 716 731 779 631 q 517 832 653 832 q 322 733 396 832 q 249 469 249 635 z "},"Ô":{"ha":1028,"x_min":85,"x_max":943,"o":"m 418 1026 l 269 1026 l 464 1250 l 558 1250 l 754 1026 l 608 1026 l 514 1132 l 418 1026 m 85 468 q 197 823 85 683 q 514 967 308 963 q 839 823 735 967 q 943 478 943 679 q 831 124 943 264 q 513 -19 719 -15 q 189 124 293 -19 q 85 468 85 268 m 249 469 q 312 215 249 317 q 510 113 375 113 q 706 206 633 113 q 779 478 779 300 q 716 731 779 631 q 517 832 653 832 q 322 733 396 832 q 249 469 249 635 z "},"Õ":{"ha":1028,"x_min":85,"x_max":943,"o":"m 628 1196 l 728 1196 q 685 1074 728 1108 q 588 1039 642 1039 q 506 1066 536 1039 q 438 1093 475 1093 q 408 1078 421 1093 q 394 1046 396 1063 l 290 1046 q 333 1167 290 1133 q 431 1201 375 1201 q 515 1175 482 1201 q 586 1149 547 1149 q 615 1163 603 1149 q 628 1196 626 1178 m 514 967 q 839 822 735 967 q 943 478 943 678 q 831 124 943 264 q 511 -19 718 -15 q 188 124 292 -19 q 85 468 85 267 q 196 823 85 683 q 514 967 307 963 m 247 469 q 311 215 247 317 q 510 113 375 113 q 706 206 633 113 q 778 478 778 300 q 715 731 778 631 q 517 832 651 832 q 322 733 396 832 q 247 469 247 633 z "},"Ö":{"ha":1028,"x_min":85,"x_max":943,"o":"m 388 1215 q 446 1191 422 1215 q 469 1133 469 1167 q 446 1075 469 1099 q 388 1051 422 1051 q 328 1075 353 1051 q 304 1133 304 1099 q 328 1191 304 1167 q 388 1215 353 1215 m 640 1215 q 699 1191 675 1215 q 724 1133 724 1167 q 699 1075 724 1099 q 640 1051 675 1051 q 583 1075 607 1051 q 558 1133 558 1099 q 583 1191 558 1167 q 640 1215 607 1215 m 85 468 q 197 823 85 683 q 514 967 308 963 q 839 823 735 967 q 943 478 943 679 q 831 124 943 264 q 513 -19 719 -15 q 189 124 293 -19 q 85 468 85 268 m 249 469 q 312 215 249 317 q 510 113 375 113 q 706 206 633 113 q 779 478 779 300 q 716 731 779 631 q 517 832 653 832 q 322 733 396 832 q 249 469 249 635 z "},"Ō":{"ha":1028,"x_min":85,"x_max":943,"o":"m 333 1193 l 689 1193 l 689 1069 l 333 1069 l 333 1193 m 85 468 q 197 823 85 683 q 514 967 308 963 q 839 823 735 967 q 943 478 943 679 q 831 124 943 264 q 513 -19 719 -15 q 189 124 293 -19 q 85 468 85 268 m 249 469 q 312 215 249 317 q 510 113 375 113 q 706 206 633 113 q 779 478 779 300 q 716 731 779 631 q 517 832 653 832 q 322 733 396 832 q 249 469 249 635 z "},"Ő":{"ha":1028,"x_min":85,"x_max":943,"o":"m 653 1250 l 806 1250 l 676 1026 l 569 1026 l 653 1250 m 415 1250 l 567 1250 l 438 1026 l 332 1026 l 415 1250 m 85 468 q 197 823 85 683 q 514 967 308 963 q 839 823 735 967 q 943 478 943 679 q 831 124 943 264 q 513 -19 719 -15 q 189 124 293 -19 q 85 468 85 268 m 249 469 q 312 215 249 317 q 510 113 375 113 q 706 206 633 113 q 779 478 779 300 q 716 731 779 631 q 517 832 653 832 q 322 733 396 832 q 249 469 249 635 z "},"Ŕ":{"ha":872,"x_min":124,"x_max":844,"o":"m 389 1250 l 553 1250 l 424 1026 l 306 1026 l 389 1250 m 403 814 l 279 814 l 279 496 l 401 496 q 548 531 489 496 q 607 653 607 567 q 552 778 607 743 q 403 814 497 814 m 676 0 l 469 372 q 432 369 451 369 q 393 368 413 368 l 279 368 l 279 0 l 124 0 l 124 944 l 407 944 q 666 876 560 944 q 772 660 772 808 q 726 506 772 568 q 608 411 681 444 l 844 0 l 676 0 z "},"Ř":{"ha":872,"x_min":124,"x_max":844,"o":"m 163 1250 l 311 1250 l 407 1144 l 501 1250 l 647 1250 l 451 1026 l 357 1026 l 163 1250 m 403 814 l 279 814 l 279 496 l 401 496 q 548 531 489 496 q 607 653 607 567 q 552 778 607 743 q 403 814 497 814 m 676 0 l 469 372 q 432 369 451 369 q 393 368 413 368 l 279 368 l 279 0 l 124 0 l 124 944 l 407 944 q 666 876 560 944 q 772 660 772 808 q 726 506 772 568 q 608 411 681 444 l 844 0 l 676 0 z "},"Ś":{"ha":760,"x_min":61,"x_max":697,"o":"m 344 1250 l 508 1250 q 444 1138 476 1194 q 379 1026 413 1082 l 261 1026 l 344 1250 m 114 182 q 220 140 154 161 q 349 119 286 119 q 489 151 442 119 q 536 239 536 183 q 299 434 536 365 q 61 717 61 503 q 144 894 61 821 q 379 967 228 967 q 518 946 450 967 q 638 900 586 925 q 611 837 625 868 q 585 775 597 806 q 499 810 547 793 q 389 828 450 828 q 269 802 318 828 q 221 719 221 776 q 459 517 221 588 q 697 240 697 447 q 608 55 697 128 q 350 -18 518 -18 q 199 6 290 -18 q 78 57 108 31 l 114 182 z "},"Š":{"ha":760,"x_min":61,"x_max":697,"o":"m 157 1250 l 306 1250 l 401 1144 l 496 1250 l 642 1250 l 446 1026 l 351 1026 l 157 1250 m 114 182 q 220 140 154 161 q 349 119 286 119 q 489 151 442 119 q 536 239 536 183 q 299 434 536 365 q 61 717 61 503 q 144 894 61 821 q 379 967 228 967 q 518 946 450 967 q 638 900 586 925 q 611 837 625 868 q 585 775 597 806 q 499 810 547 793 q 389 828 450 828 q 269 802 318 828 q 221 719 221 776 q 459 517 221 588 q 697 240 697 447 q 608 55 697 128 q 350 -18 518 -18 q 199 6 290 -18 q 78 57 108 31 l 114 182 z "},"Ť":{"ha":785,"x_min":10,"x_max":775,"o":"m 154 1250 l 303 1250 l 399 1144 l 493 1250 l 639 1250 l 443 1026 l 349 1026 l 154 1250 m 775 821 l 458 821 l 458 0 l 300 0 l 300 821 l 10 821 l 10 944 l 751 944 l 775 821 z "},"Ù":{"ha":981,"x_min":114,"x_max":865,"o":"m 358 1250 l 522 1250 l 607 1026 l 488 1026 l 358 1250 m 271 353 q 331 174 271 235 q 489 113 392 113 q 648 175 589 113 q 707 353 707 238 l 707 944 l 865 944 l 865 340 q 764 86 865 188 q 489 -15 663 -15 q 215 86 315 -15 q 114 340 114 188 l 114 944 l 271 944 l 271 353 z "},"Ú":{"ha":981,"x_min":114,"x_max":865,"o":"m 454 1250 l 618 1250 l 490 1026 l 371 1026 l 454 1250 m 271 353 q 331 174 271 235 q 489 113 392 113 q 648 175 589 113 q 707 353 707 238 l 707 944 l 865 944 l 865 340 q 764 86 865 188 q 489 -15 663 -15 q 215 86 315 -15 q 114 340 114 188 l 114 944 l 271 944 l 271 353 z "},"Û":{"ha":981,"x_min":114,"x_max":865,"o":"m 396 1026 l 247 1026 l 442 1250 l 538 1250 l 732 1026 l 586 1026 l 492 1132 q 444 1079 469 1106 q 396 1026 419 1053 m 271 353 q 331 174 271 235 q 489 113 392 113 q 648 175 589 113 q 707 353 707 238 l 707 944 l 865 944 l 865 340 q 764 86 865 188 q 489 -15 663 -15 q 215 86 315 -15 q 114 340 114 188 l 114 944 l 271 944 l 271 353 z "},"Ü":{"ha":981,"x_min":114,"x_max":865,"o":"m 617 1215 q 675 1191 651 1215 q 699 1132 699 1167 q 675 1074 699 1097 q 617 1050 651 1050 q 558 1074 583 1050 q 533 1132 533 1097 q 558 1191 533 1167 q 617 1215 583 1215 m 364 1215 q 422 1191 399 1215 q 444 1132 444 1167 q 422 1074 444 1097 q 364 1050 399 1050 q 305 1074 329 1050 q 281 1132 281 1097 q 305 1191 281 1167 q 364 1215 329 1215 m 271 353 q 331 174 271 235 q 489 113 392 113 q 648 175 589 113 q 707 353 707 238 l 707 944 l 865 944 l 865 340 q 764 86 865 188 q 489 -15 663 -15 q 215 86 315 -15 q 114 340 114 188 l 114 944 l 271 944 l 271 353 z "},"Ū":{"ha":981,"x_min":114,"x_max":865,"o":"m 311 1193 l 668 1193 l 668 1068 l 311 1068 l 311 1193 m 271 353 q 331 174 271 235 q 489 113 392 113 q 648 175 589 113 q 707 353 707 238 l 707 944 l 865 944 l 865 340 q 764 86 865 188 q 489 -15 663 -15 q 215 86 315 -15 q 114 340 114 188 l 114 944 l 271 944 l 271 353 z "},"Ů":{"ha":981,"x_min":114,"x_max":865,"o":"m 488 1297 q 588 1258 544 1297 q 631 1163 631 1219 q 588 1069 631 1106 q 488 1033 544 1033 q 388 1069 431 1033 q 346 1163 346 1106 q 388 1258 346 1219 q 488 1297 431 1297 m 488 1107 q 528 1124 511 1107 q 544 1163 544 1140 q 528 1203 544 1186 q 488 1219 511 1219 q 448 1203 465 1219 q 431 1163 431 1186 q 448 1124 431 1140 q 488 1107 465 1107 m 271 353 q 331 174 271 235 q 489 113 392 113 q 648 175 589 113 q 707 353 707 238 l 707 944 l 865 944 l 865 340 q 764 86 865 188 q 489 -15 663 -15 q 215 86 315 -15 q 114 340 114 188 l 114 944 l 271 944 l 271 353 z "},"Ű":{"ha":981,"x_min":114,"x_max":865,"o":"m 617 1250 l 771 1250 l 642 1026 l 533 1026 l 617 1250 m 379 1250 l 532 1250 q 467 1138 499 1194 q 403 1026 435 1082 l 296 1026 l 379 1250 m 271 353 q 331 174 271 235 q 489 113 392 113 q 648 175 589 113 q 707 353 707 238 l 707 944 l 865 944 l 865 340 q 764 86 865 188 q 489 -15 663 -15 q 215 86 315 -15 q 114 340 114 188 l 114 944 l 271 944 l 271 353 z "},"Ų":{"ha":981,"x_min":114,"x_max":865,"o":"m 271 353 q 331 174 271 235 q 489 113 392 113 q 648 175 589 113 q 707 353 707 238 l 707 944 l 865 944 l 865 340 q 800 128 865 218 q 619 3 735 38 q 574 -55 596 -17 q 553 -124 553 -93 q 566 -158 553 -146 q 603 -171 579 -171 q 632 -165 615 -171 q 665 -146 649 -158 q 688 -194 675 -169 q 711 -242 700 -218 q 649 -276 682 -265 q 576 -287 615 -287 q 463 -244 507 -287 q 419 -136 419 -200 q 431 -75 419 -110 q 461 -14 443 -40 q 207 94 300 -6 q 114 340 114 193 l 114 944 l 271 944 l 271 353 z "},"Ý":{"ha":819,"x_min":8,"x_max":813,"o":"m 374 1250 l 539 1250 l 410 1026 l 290 1026 l 374 1250 m 326 0 l 328 372 l 8 922 l 171 944 l 404 529 l 647 944 l 813 944 l 485 369 l 485 0 l 326 0 z "},"Ÿ":{"ha":819,"x_min":8,"x_max":813,"o":"m 283 1215 q 342 1191 318 1215 q 365 1133 365 1167 q 342 1075 365 1099 q 283 1051 318 1051 q 224 1075 249 1051 q 200 1133 200 1099 q 224 1191 200 1167 q 283 1215 249 1215 m 536 1215 q 595 1191 571 1215 q 619 1133 619 1167 q 595 1075 619 1099 q 536 1051 571 1051 q 478 1075 503 1051 q 454 1133 454 1099 q 478 1191 454 1167 q 536 1215 503 1215 m 326 0 l 328 372 l 8 922 l 171 944 l 404 529 l 647 944 l 813 944 l 485 369 l 485 0 l 326 0 z "},"Ź":{"ha":800,"x_min":25,"x_max":767,"o":"m 367 1250 l 531 1250 q 467 1138 499 1194 q 401 1026 435 1082 l 283 1026 l 367 1250 m 767 0 l 43 0 q 33 61 38 31 q 25 122 29 92 q 303 472 163 296 q 582 821 444 647 l 83 821 q 74 883 79 851 q 64 944 69 914 l 746 944 l 763 821 l 194 122 l 749 122 q 757 61 753 92 q 767 0 761 31 z "},"Ż":{"ha":800,"x_min":25,"x_max":767,"o":"m 403 1228 q 467 1200 442 1228 q 493 1133 493 1172 q 467 1068 493 1094 q 403 1042 442 1042 q 336 1068 364 1042 q 308 1133 308 1094 q 336 1200 308 1172 q 403 1228 364 1228 m 767 0 l 43 0 q 33 61 38 31 q 25 122 29 92 q 303 472 163 296 q 582 821 444 647 l 83 821 q 74 883 79 851 q 64 944 69 914 l 746 944 l 763 821 l 194 122 l 749 122 q 757 61 753 92 q 767 0 761 31 z "},"Ž":{"ha":800,"x_min":25,"x_max":767,"o":"m 158 1250 l 308 1250 q 356 1197 331 1224 q 404 1144 381 1171 q 451 1197 426 1171 q 499 1250 475 1224 l 643 1250 l 449 1026 l 354 1026 l 158 1250 m 767 0 l 43 0 q 33 61 38 31 q 25 122 29 92 q 303 472 163 296 q 582 821 444 647 l 83 821 q 74 883 79 851 q 64 944 69 914 l 746 944 l 763 821 l 194 122 l 749 122 q 757 61 753 92 q 767 0 761 31 z "},"Ş":{"ha":760,"x_min":61,"x_max":697,"o":"m 114 182 q 220 140 154 161 q 349 119 286 119 q 489 151 442 119 q 536 239 536 183 q 299 434 536 365 q 61 717 61 503 q 144 894 61 821 q 379 967 228 967 q 518 946 450 967 q 638 900 586 925 q 611 837 625 868 q 585 775 597 806 q 495 813 544 794 q 382 831 446 831 q 266 802 311 831 q 221 719 221 774 q 459 517 221 588 q 697 240 697 447 q 622 66 697 136 q 403 -15 546 -4 l 390 -49 q 460 -97 432 -62 q 489 -168 489 -132 q 437 -273 489 -239 q 319 -307 385 -307 q 255 -297 293 -307 q 194 -271 217 -286 q 213 -224 204 -249 q 231 -176 221 -200 q 276 -194 249 -186 q 319 -203 303 -203 q 356 -196 339 -203 q 374 -171 374 -189 q 340 -130 374 -149 q 253 -106 307 -111 q 271 -59 261 -83 q 289 -11 281 -35 q 165 17 229 -3 q 78 57 100 36 l 114 182 z "},"Ģ":{"ha":911,"x_min":85,"x_max":813,"o":"m 481 506 l 813 506 l 813 107 q 812 77 813 92 q 811 49 811 63 l 813 47 q 707 7 769 24 q 579 -15 644 -10 l 567 -49 q 638 -97 610 -62 q 665 -168 665 -132 q 613 -273 665 -239 q 496 -307 561 -307 q 431 -297 469 -307 q 371 -271 393 -286 q 389 -224 381 -249 q 407 -176 397 -200 q 451 -194 425 -186 q 496 -203 478 -203 q 532 -196 514 -203 q 550 -171 550 -189 q 517 -130 550 -149 q 429 -106 483 -111 l 464 -15 q 181 141 276 4 q 85 467 85 278 q 210 824 85 685 q 546 964 335 964 q 665 950 589 964 q 797 904 742 936 l 749 792 q 652 820 692 810 q 549 831 613 831 q 333 739 418 831 q 247 468 247 647 q 319 208 247 304 q 524 113 390 113 q 607 119 571 113 q 669 132 643 125 l 669 386 l 468 386 l 481 506 z "},"Ķ":{"ha":869,"x_min":110,"x_max":865,"o":"m 672 0 l 360 419 l 267 311 l 267 0 l 110 0 l 110 944 l 267 944 l 267 528 l 639 965 l 753 875 l 463 539 l 865 0 l 672 0 m 453 -29 q 518 -60 490 -29 q 546 -142 546 -90 q 501 -279 546 -215 q 393 -374 456 -343 q 375 -337 383 -356 q 357 -300 367 -318 q 401 -267 379 -289 q 432 -214 424 -244 q 382 -185 406 -212 q 358 -122 358 -157 q 386 -58 358 -87 q 453 -29 414 -29 z "},"Ļ":{"ha":742,"x_min":124,"x_max":724,"o":"m 724 0 l 124 0 l 124 944 l 279 944 l 279 122 l 701 122 l 724 0 m 429 -29 q 497 -60 468 -29 q 525 -142 525 -90 q 479 -279 525 -215 q 371 -374 433 -343 l 336 -300 q 380 -267 358 -290 q 410 -214 401 -244 q 360 -186 383 -214 q 336 -124 336 -158 q 363 -59 336 -89 q 429 -29 390 -29 z "},"Ņ":{"ha":1017,"x_min":124,"x_max":893,"o":"m 124 0 l 124 944 l 272 944 l 658 394 q 697 338 678 367 q 736 279 717 308 l 736 944 l 893 944 l 893 0 l 743 0 l 350 563 l 279 668 l 279 0 l 124 0 m 515 -28 q 583 -59 556 -28 q 610 -140 610 -90 q 565 -278 610 -215 q 457 -372 519 -342 q 438 -335 447 -354 q 421 -299 429 -317 q 465 -267 443 -289 q 496 -214 488 -244 q 447 -185 471 -212 q 424 -122 424 -157 q 450 -56 424 -85 q 515 -28 476 -28 z "},"Ŗ":{"ha":872,"x_min":124,"x_max":844,"o":"m 403 814 l 279 814 l 279 496 l 401 496 q 548 531 489 496 q 607 653 607 567 q 552 778 607 743 q 403 814 497 814 m 676 0 l 469 372 q 432 369 451 369 q 393 368 413 368 l 279 368 l 279 0 l 124 0 l 124 944 l 407 944 q 666 876 560 944 q 772 660 772 808 q 726 506 772 568 q 608 411 681 444 l 844 0 l 676 0 m 463 -29 q 529 -60 501 -29 q 557 -142 557 -90 q 512 -279 557 -215 q 403 -374 467 -343 l 368 -300 q 413 -267 390 -290 q 444 -214 435 -244 q 394 -186 418 -214 q 369 -124 369 -158 q 397 -59 369 -89 q 463 -29 424 -29 z "},"Ţ":{"ha":785,"x_min":10,"x_max":775,"o":"m 775 821 l 458 821 l 458 0 l 440 0 l 421 -49 q 491 -97 463 -62 q 519 -168 519 -132 q 467 -273 519 -239 q 350 -307 415 -307 q 285 -297 324 -307 q 225 -271 247 -286 q 243 -224 235 -249 q 261 -176 251 -200 q 306 -194 279 -186 q 350 -203 332 -203 q 386 -196 368 -203 q 404 -171 404 -189 q 370 -130 404 -149 q 282 -106 336 -111 q 303 -53 292 -79 q 325 0 314 -26 l 300 0 l 300 821 l 10 821 l 10 944 l 751 944 l 775 821 z "},"Ș":{"ha":760,"x_min":61,"x_max":697,"o":"m 114 182 q 220 140 154 161 q 349 119 286 119 q 489 151 442 119 q 536 239 536 183 q 299 434 536 365 q 61 717 61 503 q 144 894 61 821 q 379 967 228 967 q 518 946 450 967 q 638 900 586 925 q 611 837 625 868 q 585 775 597 806 q 499 810 547 793 q 389 828 450 828 q 269 802 318 828 q 221 719 221 776 q 459 517 221 588 q 697 240 697 447 q 608 55 697 128 q 350 -18 518 -18 q 199 6 290 -18 q 78 57 108 31 l 114 182 m 349 -29 q 415 -60 388 -29 q 443 -142 443 -90 q 399 -279 443 -215 q 292 -374 354 -343 l 256 -300 q 299 -267 278 -289 q 329 -214 321 -244 q 281 -185 304 -212 q 257 -122 257 -157 q 283 -58 257 -87 q 349 -29 310 -29 z "},"Ț":{"ha":785,"x_min":10,"x_max":775,"o":"m 775 821 l 458 821 l 458 0 l 300 0 l 300 821 l 10 821 l 10 944 l 751 944 l 775 821 m 382 -29 q 449 -60 421 -29 q 476 -142 476 -90 q 431 -279 476 -215 q 322 -374 386 -343 l 288 -300 q 332 -267 310 -289 q 363 -214 354 -244 q 312 -185 336 -212 q 288 -122 288 -157 q 315 -58 288 -87 q 382 -29 343 -29 z "},"à":{"ha":711,"x_min":68,"x_max":624,"o":"m 199 1042 l 364 1042 l 447 818 l 328 818 l 199 1042 m 204 197 q 231 135 204 164 q 304 107 257 107 q 390 128 347 107 q 467 185 432 150 l 467 304 l 317 304 q 233 272 261 304 q 204 197 204 240 m 106 631 q 221 674 144 657 q 340 692 297 692 q 542 624 460 692 q 624 450 624 556 l 624 0 l 539 0 q 519 30 529 14 q 500 60 510 46 q 411 6 464 29 q 307 -17 358 -17 q 127 43 186 -17 q 68 197 68 103 q 138 355 68 300 q 319 410 207 410 l 465 410 q 435 509 461 469 q 343 549 408 549 q 238 535 290 549 q 149 503 186 521 q 126 567 138 535 q 106 631 115 599 z "},"á":{"ha":711,"x_min":68,"x_max":624,"o":"m 326 1042 l 490 1042 l 361 818 l 242 818 l 326 1042 m 204 197 q 231 135 204 164 q 304 107 257 107 q 390 128 347 107 q 467 185 432 150 l 467 304 l 317 304 q 233 272 261 304 q 204 197 204 240 m 106 631 q 221 674 144 657 q 340 692 297 692 q 542 624 460 692 q 624 450 624 556 l 624 0 l 539 0 q 519 30 529 14 q 500 60 510 46 q 411 6 464 29 q 307 -17 358 -17 q 127 43 186 -17 q 68 197 68 103 q 138 355 68 300 q 319 410 207 410 l 465 410 q 435 509 461 469 q 343 549 408 549 q 238 535 290 549 q 149 503 186 521 q 126 567 138 535 q 106 631 115 599 z "},"â":{"ha":711,"x_min":68,"x_max":624,"o":"m 265 818 l 115 818 l 313 1042 l 404 1042 l 600 818 l 456 818 l 361 924 q 313 871 338 897 q 265 818 288 844 m 204 197 q 231 135 204 164 q 304 107 257 107 q 390 128 347 107 q 467 185 432 150 l 467 304 l 317 304 q 233 272 261 304 q 204 197 204 240 m 106 631 q 221 674 144 657 q 340 692 297 692 q 542 624 460 692 q 624 450 624 556 l 624 0 l 539 0 q 519 30 529 14 q 500 60 510 46 q 411 6 464 29 q 307 -17 358 -17 q 127 43 186 -17 q 68 197 68 103 q 138 355 68 300 q 319 410 207 410 l 465 410 q 435 509 461 469 q 343 549 408 549 q 238 535 290 549 q 149 503 186 521 q 126 567 138 535 q 106 631 115 599 z "},"ã":{"ha":711,"x_min":68,"x_max":624,"o":"m 465 988 l 565 988 q 522 865 565 900 q 424 831 479 831 q 342 858 372 831 q 274 885 313 885 q 244 869 257 885 q 232 838 232 854 l 125 838 q 169 959 125 925 q 268 993 213 993 q 353 967 321 993 q 422 940 385 940 q 451 955 438 940 q 465 988 464 969 m 204 197 q 231 135 204 164 q 304 107 257 107 q 390 128 347 107 q 467 185 432 150 l 467 304 l 317 304 q 233 272 261 304 q 204 197 204 240 m 106 631 q 221 674 144 657 q 340 692 297 692 q 542 624 460 692 q 624 450 624 556 l 624 0 l 539 0 q 519 30 529 14 q 500 60 510 46 q 411 6 464 29 q 307 -17 358 -17 q 127 43 186 -17 q 68 197 68 103 q 138 355 68 300 q 319 410 207 410 l 465 410 q 435 509 461 469 q 343 549 408 549 q 238 535 290 549 q 149 503 186 521 q 126 567 138 535 q 106 631 115 599 z "},"ä":{"ha":711,"x_min":68,"x_max":624,"o":"m 482 1007 q 540 983 517 1007 q 564 924 564 958 q 540 865 564 889 q 482 842 517 842 q 424 865 449 842 q 399 924 399 889 q 424 983 399 958 q 482 1007 449 1007 m 229 1007 q 288 983 264 1007 q 311 924 311 958 q 288 865 311 889 q 229 842 264 842 q 169 865 194 842 q 144 924 144 889 q 169 983 144 958 q 229 1007 194 1007 m 204 197 q 231 135 204 164 q 304 107 257 107 q 390 128 347 107 q 467 185 432 150 l 467 304 l 317 304 q 233 272 261 304 q 204 197 204 240 m 106 631 q 221 674 144 657 q 340 692 297 692 q 542 624 460 692 q 624 450 624 556 l 624 0 l 539 0 q 519 30 529 14 q 500 60 510 46 q 411 6 464 29 q 307 -17 358 -17 q 127 43 186 -17 q 68 197 68 103 q 138 355 68 300 q 319 410 207 410 l 465 410 q 435 509 461 469 q 343 549 408 549 q 238 535 290 549 q 149 503 186 521 q 126 567 138 535 q 106 631 115 599 z "},"å":{"ha":711,"x_min":68,"x_max":624,"o":"m 353 1089 q 453 1050 410 1089 q 496 954 496 1011 q 453 861 496 897 q 353 825 410 825 q 253 861 296 825 q 210 954 210 897 q 253 1050 210 1011 q 353 1089 296 1089 m 353 899 q 392 915 376 899 q 408 954 408 932 q 392 994 408 978 q 353 1011 376 1011 q 314 994 331 1011 q 297 954 297 978 q 314 915 297 932 q 353 899 331 899 m 204 197 q 231 135 204 164 q 304 107 257 107 q 390 128 347 107 q 467 185 432 150 l 467 304 l 317 304 q 233 272 261 304 q 204 197 204 240 m 106 631 q 221 674 144 657 q 340 692 297 692 q 542 624 460 692 q 624 450 624 556 l 624 0 l 539 0 q 519 30 529 14 q 500 60 510 46 q 411 6 464 29 q 307 -17 358 -17 q 127 43 186 -17 q 68 197 68 103 q 138 355 68 300 q 319 410 207 410 l 465 410 q 435 509 461 469 q 343 549 408 549 q 238 535 290 549 q 149 503 186 521 q 126 567 138 535 q 106 631 115 599 z "},"ā":{"ha":711,"x_min":68,"x_max":624,"o":"m 179 985 l 536 985 l 536 860 l 179 860 l 179 985 m 204 197 q 231 135 204 164 q 304 107 257 107 q 390 128 347 107 q 467 185 432 150 l 467 304 l 317 304 q 233 272 261 304 q 204 197 204 240 m 106 631 q 221 674 144 657 q 340 692 297 692 q 542 624 460 692 q 624 450 624 556 l 624 0 l 539 0 q 519 30 529 14 q 500 60 510 46 q 411 6 464 29 q 307 -17 358 -17 q 127 43 186 -17 q 68 197 68 103 q 138 355 68 300 q 319 410 207 410 l 465 410 q 435 509 461 469 q 343 549 408 549 q 238 535 290 549 q 149 503 186 521 q 126 567 138 535 q 106 631 115 599 z "},"ă":{"ha":711,"x_min":68,"x_max":624,"o":"m 550 1038 q 502 889 550 954 q 353 822 454 824 q 201 889 249 824 q 153 1038 153 954 l 263 1038 q 283 968 263 1001 q 353 935 303 935 q 421 968 400 935 q 442 1038 442 1001 l 550 1038 m 204 197 q 231 135 204 164 q 304 107 257 107 q 390 128 347 107 q 467 185 432 150 l 467 304 l 317 304 q 233 272 261 304 q 204 197 204 240 m 106 631 q 221 674 144 657 q 340 692 297 692 q 542 624 460 692 q 624 450 624 556 l 624 0 l 539 0 q 519 30 529 14 q 500 60 510 46 q 411 6 464 29 q 307 -17 358 -17 q 127 43 186 -17 q 68 197 68 103 q 138 355 68 300 q 319 410 207 410 l 465 410 q 435 509 461 469 q 343 549 408 549 q 238 535 290 549 q 149 503 186 521 q 126 567 138 535 q 106 631 115 599 z "},"ą":{"ha":711,"x_min":68,"x_max":718,"o":"m 106 631 q 221 674 144 657 q 340 692 297 692 q 542 624 460 692 q 624 450 624 556 l 624 0 q 581 -56 601 -21 q 560 -124 560 -90 q 572 -158 560 -146 q 610 -171 585 -171 q 638 -165 621 -171 q 671 -146 656 -158 l 718 -242 q 655 -276 689 -265 q 582 -287 621 -287 q 469 -244 514 -287 q 425 -136 425 -200 q 452 -36 425 -82 q 511 38 479 10 l 500 60 q 411 6 464 29 q 307 -17 358 -17 q 127 43 186 -17 q 68 197 68 103 q 138 355 68 300 q 319 410 207 410 l 465 410 q 435 509 461 469 q 343 549 408 549 q 238 535 290 549 q 149 503 186 521 q 126 567 138 535 q 106 631 115 599 m 204 197 q 231 135 204 164 q 304 107 257 107 q 390 128 347 107 q 467 185 432 150 l 467 304 l 317 304 q 233 272 261 304 q 204 197 204 240 z "},"ç":{"ha":667,"x_min":61,"x_max":618,"o":"m 399 558 q 269 495 314 558 q 224 338 224 432 q 267 179 224 242 q 397 117 311 117 q 488 128 451 117 q 571 163 525 140 l 615 49 q 537 10 582 25 q 451 -12 492 -6 l 438 -49 q 508 -98 479 -62 q 536 -169 536 -133 q 485 -274 536 -240 q 368 -307 433 -307 q 301 -297 340 -307 q 242 -271 263 -287 l 279 -178 q 323 -194 296 -186 q 368 -203 350 -203 q 403 -197 386 -203 q 421 -172 421 -190 q 388 -131 421 -150 q 300 -107 354 -112 l 336 -12 q 132 99 203 4 q 61 338 61 193 q 151 594 63 496 q 399 692 239 692 q 506 674 440 692 q 618 624 571 657 l 572 511 q 490 545 526 532 q 399 558 453 558 z "},"ć":{"ha":667,"x_min":61,"x_max":618,"o":"m 382 1042 l 546 1042 l 417 818 l 299 818 l 382 1042 m 399 558 q 269 495 314 558 q 224 338 224 432 q 267 179 224 242 q 397 117 311 117 q 488 128 451 117 q 571 163 525 140 l 615 49 q 505 -1 571 15 q 396 -17 439 -17 q 149 81 236 -17 q 61 338 61 178 q 151 594 63 496 q 399 692 239 692 q 506 674 440 692 q 618 624 571 657 l 572 511 q 490 545 526 532 q 399 558 453 558 z "},"č":{"ha":667,"x_min":61,"x_max":636,"o":"m 151 1042 l 300 1042 l 396 936 l 492 1042 l 636 1042 l 440 818 l 347 818 l 151 1042 m 399 558 q 269 495 314 558 q 224 338 224 432 q 267 179 224 242 q 397 117 311 117 q 488 128 451 117 q 571 163 525 140 l 615 49 q 505 -1 571 15 q 396 -17 439 -17 q 149 81 236 -17 q 61 338 61 178 q 151 594 63 496 q 399 692 239 692 q 506 674 440 692 q 618 624 571 657 l 572 511 q 490 545 526 532 q 399 558 453 558 z "},"ď":{"ha":1029,"x_min":61,"x_max":1017,"o":"m 922 1017 q 989 986 961 1017 q 1017 904 1017 956 q 969 752 1017 831 q 846 635 921 674 l 811 708 q 871 763 847 736 q 903 832 894 789 q 852 860 876 833 q 828 922 828 888 q 856 987 828 957 q 922 1017 883 1017 m 401 564 q 263 494 301 564 q 224 340 224 424 q 260 183 224 250 q 401 117 297 117 q 474 133 436 117 q 546 174 513 149 l 546 507 q 474 549 513 533 q 401 564 436 564 m 704 981 l 704 0 l 619 0 l 576 64 q 472 4 532 25 q 363 -17 413 -17 q 138 85 215 -17 q 61 340 61 188 q 142 595 61 493 q 369 697 224 697 q 457 683 408 697 q 546 642 506 668 l 546 965 l 704 981 z "},"è":{"ha":749,"x_min":61,"x_max":693,"o":"m 247 1042 l 411 1042 l 496 818 l 376 818 l 247 1042 m 693 294 l 226 294 q 286 165 236 215 q 428 115 336 115 q 519 128 481 115 q 603 161 558 140 q 627 104 615 133 q 650 47 639 75 q 536 -1 604 14 q 425 -17 468 -17 q 157 80 253 -17 q 61 336 61 176 q 150 594 61 496 q 392 692 239 692 q 629 572 565 692 q 693 294 693 451 m 543 400 q 491 516 529 475 q 388 557 453 557 q 280 515 321 557 q 229 400 239 474 l 543 400 z "},"é":{"ha":749,"x_min":61,"x_max":693,"o":"m 374 1042 l 539 1042 l 408 818 l 290 818 l 374 1042 m 693 294 l 226 294 q 286 165 236 215 q 428 115 336 115 q 519 128 481 115 q 603 161 558 140 q 627 104 615 133 q 650 47 639 75 q 536 -1 604 14 q 425 -17 468 -17 q 157 80 253 -17 q 61 336 61 176 q 150 594 61 496 q 392 692 239 692 q 629 572 565 692 q 693 294 693 451 m 543 400 q 491 516 529 475 q 388 557 453 557 q 280 515 321 557 q 229 400 239 474 l 543 400 z "},"ê":{"ha":749,"x_min":61,"x_max":693,"o":"m 301 818 l 153 818 l 349 1042 l 442 1042 l 638 818 l 493 818 l 397 924 q 350 871 375 897 q 301 818 325 844 m 693 294 l 226 294 q 286 165 236 215 q 428 115 336 115 q 519 128 481 115 q 603 161 558 140 q 627 104 615 133 q 650 47 639 75 q 536 -1 604 14 q 425 -17 468 -17 q 157 80 253 -17 q 61 336 61 176 q 150 594 61 496 q 392 692 239 692 q 629 572 565 692 q 693 294 693 451 m 543 400 q 491 516 529 475 q 388 557 453 557 q 280 515 321 557 q 229 400 239 474 l 543 400 z "},"ë":{"ha":749,"x_min":61,"x_max":693,"o":"m 517 1007 q 575 983 551 1007 q 599 924 599 958 q 575 865 599 889 q 517 842 551 842 q 458 865 482 842 q 433 924 433 889 q 458 983 433 958 q 517 1007 482 1007 m 263 1007 q 322 983 297 1007 q 346 924 346 958 q 322 865 346 889 q 263 842 297 842 q 203 865 228 842 q 179 924 179 889 q 203 983 179 958 q 263 1007 228 1007 m 693 294 l 226 294 q 286 165 236 215 q 428 115 336 115 q 519 128 481 115 q 603 161 558 140 q 627 104 615 133 q 650 47 639 75 q 536 -1 604 14 q 425 -17 468 -17 q 157 80 253 -17 q 61 336 61 176 q 150 594 61 496 q 392 692 239 692 q 629 572 565 692 q 693 294 693 451 m 543 400 q 491 516 529 475 q 388 557 453 557 q 280 515 321 557 q 229 400 239 474 l 543 400 z "},"ē":{"ha":749,"x_min":61,"x_max":693,"o":"m 208 985 l 564 985 l 564 860 l 208 860 l 208 985 m 693 294 l 226 294 q 286 165 236 215 q 428 115 336 115 q 519 128 481 115 q 603 161 558 140 q 627 104 615 133 q 650 47 639 75 q 536 -1 604 14 q 425 -17 468 -17 q 157 80 253 -17 q 61 336 61 176 q 150 594 61 496 q 392 692 239 692 q 629 572 565 692 q 693 294 693 451 m 543 400 q 491 516 529 475 q 388 557 453 557 q 280 515 321 557 q 229 400 239 474 l 543 400 z "},"ė":{"ha":749,"x_min":61,"x_max":693,"o":"m 390 1019 q 455 992 429 1019 q 481 925 481 964 q 455 860 481 886 q 390 833 429 833 q 324 860 351 833 q 296 925 296 886 q 324 992 296 964 q 390 1019 351 1019 m 693 294 l 226 294 q 286 165 236 215 q 428 115 336 115 q 519 128 481 115 q 603 161 558 140 q 627 104 615 133 q 650 47 639 75 q 536 -1 604 14 q 425 -17 468 -17 q 157 80 253 -17 q 61 336 61 176 q 150 594 61 496 q 392 692 239 692 q 629 572 565 692 q 693 294 693 451 m 543 400 q 491 516 529 475 q 388 557 453 557 q 280 515 321 557 q 229 400 239 474 l 543 400 z "},"ę":{"ha":749,"x_min":61,"x_max":693,"o":"m 693 294 l 226 294 q 286 165 236 215 q 428 115 336 115 q 519 128 481 115 q 603 161 558 140 q 627 104 615 133 q 650 47 639 75 q 603 22 629 33 q 550 1 576 10 q 506 -56 526 -19 q 485 -124 485 -93 q 497 -158 485 -146 q 535 -171 510 -171 q 564 -165 547 -171 q 596 -146 581 -158 l 642 -242 q 580 -276 613 -265 q 508 -287 547 -287 q 395 -244 439 -287 q 351 -136 351 -200 q 363 -75 351 -110 q 392 -14 374 -40 q 147 90 233 -4 q 61 336 61 183 q 150 594 61 496 q 392 692 239 692 q 630 572 567 692 q 693 294 693 451 m 543 400 q 491 516 529 475 q 388 557 453 557 q 280 515 321 557 q 229 400 239 474 l 543 400 z "},"ě":{"ha":749,"x_min":61,"x_max":693,"o":"m 150 1042 l 299 1042 q 348 989 324 1015 q 396 936 372 963 l 490 1042 l 635 1042 l 439 818 l 346 818 l 150 1042 m 693 294 l 226 294 q 286 165 236 215 q 428 115 336 115 q 519 128 481 115 q 603 161 558 140 q 627 104 615 133 q 650 47 639 75 q 536 -1 604 14 q 425 -17 468 -17 q 157 80 253 -17 q 61 336 61 176 q 150 594 61 496 q 392 692 239 692 q 629 572 565 692 q 693 294 693 451 m 543 400 q 491 516 529 475 q 388 557 453 557 q 280 515 321 557 q 229 400 239 474 l 543 400 z "},"ğ":{"ha":804,"x_min":61,"x_max":704,"o":"m 593 1038 q 545 889 593 954 q 394 822 497 824 q 244 889 292 824 q 196 1038 196 954 l 304 1038 q 325 968 304 1001 q 394 935 346 935 q 463 968 442 935 q 485 1038 485 1001 l 593 1038 m 546 507 q 474 548 511 532 q 401 564 436 564 q 262 494 301 564 q 222 340 222 424 q 260 183 222 249 q 401 117 297 117 q 474 133 436 117 q 546 174 511 149 l 546 507 m 704 -17 q 625 -212 704 -133 q 378 -290 546 -290 q 257 -272 335 -290 q 128 -219 179 -254 q 152 -163 140 -192 q 175 -107 164 -135 q 274 -149 231 -133 q 374 -164 318 -164 q 501 -125 456 -164 q 546 -15 546 -86 l 546 42 q 455 -1 504 15 q 363 -17 406 -17 q 138 85 215 -17 q 61 339 61 186 q 142 595 61 493 q 369 697 222 697 q 478 675 418 697 q 582 615 539 653 l 619 674 l 704 674 l 704 -17 z "},"ì":{"ha":347,"x_min":4,"x_max":251,"o":"m 4 1042 l 169 1042 l 250 818 l 132 818 l 4 1042 m 93 0 l 93 674 l 251 674 l 251 0 l 93 0 z "},"í":{"ha":347,"x_min":93,"x_max":343,"o":"m 178 1042 l 343 1042 l 214 818 l 94 818 l 178 1042 m 93 0 l 93 674 l 251 674 l 251 0 l 93 0 z "},"î":{"ha":347,"x_min":-68,"x_max":417,"o":"m 81 818 l -68 818 l 126 1042 l 219 1042 l 417 818 l 271 818 l 176 924 l 81 818 m 93 0 l 93 674 l 251 674 l 251 0 l 93 0 z "},"ï":{"ha":347,"x_min":-35,"x_max":382,"o":"m 300 1007 q 358 983 335 1007 q 382 924 382 958 q 358 865 382 889 q 300 842 335 842 q 241 865 265 842 q 217 924 217 889 q 241 983 217 958 q 300 1007 265 1007 m 47 1007 q 106 983 82 1007 q 129 924 129 958 q 106 865 129 889 q 47 842 82 842 q -11 865 13 842 q -35 924 -35 889 q -11 983 -35 958 q 47 1007 13 1007 m 93 0 l 93 674 l 251 674 l 251 0 l 93 0 z "},"ī":{"ha":347,"x_min":-6,"x_max":350,"o":"m -6 985 l 350 985 l 350 860 l -6 860 l -6 985 m 93 0 l 93 674 l 251 674 l 251 0 l 93 0 z "},"į":{"ha":347,"x_min":47,"x_max":340,"o":"m 172 782 q 107 808 133 782 q 81 874 81 835 q 107 940 81 913 q 172 967 133 967 q 238 940 211 967 q 265 874 265 913 q 238 808 265 835 q 172 782 211 782 m 251 674 l 251 0 l 246 0 q 203 -57 224 -21 q 182 -124 182 -93 q 194 -158 182 -146 q 232 -171 206 -171 q 260 -165 243 -171 q 293 -146 276 -158 q 316 -194 304 -169 q 340 -242 328 -218 q 276 -276 310 -265 q 204 -287 243 -287 q 92 -244 136 -287 q 47 -136 47 -200 q 58 -85 47 -115 q 82 -37 68 -56 q 81 -34 82 -36 q 81 -31 81 -32 q 85 -13 81 -22 q 93 1 89 -4 l 93 674 l 251 674 z "},"ľ":{"ha":582,"x_min":100,"x_max":569,"o":"m 474 1017 q 541 985 513 1017 q 569 904 569 954 q 521 752 569 831 q 400 633 472 674 q 383 670 392 651 q 364 707 374 689 q 423 763 399 736 q 454 832 447 789 q 406 860 429 833 q 382 922 382 888 q 409 986 382 956 q 474 1017 436 1017 m 100 0 l 100 965 l 257 981 l 257 0 l 100 0 z "},"ñ":{"ha":796,"x_min":93,"x_max":708,"o":"m 542 988 l 640 988 q 598 865 640 900 q 499 831 556 831 q 419 858 449 831 q 350 885 389 885 q 320 869 332 885 q 308 838 308 854 l 200 838 q 244 959 200 925 q 343 993 288 993 q 427 967 394 993 q 499 940 460 940 q 527 955 514 940 q 542 988 540 969 m 93 0 l 93 674 l 178 674 l 226 593 q 340 669 271 640 q 464 697 408 697 q 651 622 593 697 q 708 433 708 546 l 708 0 l 551 0 l 551 422 q 519 526 551 488 q 426 564 488 564 q 337 540 386 564 q 250 482 288 517 l 250 0 l 93 0 z "},"ń":{"ha":796,"x_min":93,"x_max":708,"o":"m 396 1042 l 560 1042 l 431 818 l 313 818 l 396 1042 m 226 593 q 340 669 271 640 q 464 697 408 697 q 651 622 593 697 q 708 433 708 546 l 708 0 l 551 0 l 551 424 q 520 526 551 489 q 426 564 489 564 q 338 541 386 564 q 250 483 289 518 l 250 0 l 93 0 l 93 674 l 179 674 l 226 593 z "},"ň":{"ha":796,"x_min":93,"x_max":708,"o":"m 179 1042 l 329 1042 l 425 936 l 521 1042 l 664 1042 l 468 818 l 375 818 l 179 1042 m 226 593 q 340 669 271 640 q 464 697 408 697 q 651 622 593 697 q 708 433 708 546 l 708 0 l 551 0 l 551 424 q 520 526 551 489 q 426 564 489 564 q 338 541 386 564 q 250 483 289 518 l 250 0 l 93 0 l 93 674 l 179 674 l 226 593 z "},"ò":{"ha":797,"x_min":61,"x_max":736,"o":"m 257 1042 l 422 1042 l 504 818 l 385 818 l 257 1042 m 388 -17 q 146 81 231 -15 q 61 339 61 178 q 151 594 63 497 q 399 692 240 690 q 649 592 561 692 q 736 332 736 492 q 640 78 735 174 q 388 -17 546 -17 m 575 332 q 533 495 575 433 q 403 557 490 557 q 269 501 315 557 q 224 340 224 444 q 263 176 224 235 q 389 117 301 117 q 525 171 476 117 q 575 332 574 225 z "},"ó":{"ha":797,"x_min":61,"x_max":736,"o":"m 383 1042 l 547 1042 l 419 818 l 300 818 l 383 1042 m 388 -17 q 146 81 231 -15 q 61 339 61 178 q 151 594 63 497 q 399 692 240 690 q 649 592 561 692 q 736 332 736 492 q 640 78 735 174 q 388 -17 546 -17 m 575 332 q 533 495 575 433 q 403 557 490 557 q 269 501 315 557 q 224 340 224 444 q 263 176 224 235 q 389 117 301 117 q 525 171 476 117 q 575 332 574 225 z "},"ô":{"ha":797,"x_min":61,"x_max":736,"o":"m 303 818 l 154 818 l 350 1042 l 442 1042 l 639 818 l 493 818 l 399 924 l 303 818 m 388 -17 q 146 81 231 -15 q 61 339 61 178 q 151 594 63 497 q 399 692 240 690 q 649 592 561 692 q 736 332 736 492 q 640 78 735 174 q 388 -17 546 -17 m 575 332 q 533 495 575 433 q 403 557 490 557 q 269 501 315 557 q 224 340 224 444 q 263 176 224 235 q 389 117 301 117 q 525 171 476 117 q 575 332 574 225 z "},"õ":{"ha":797,"x_min":61,"x_max":735,"o":"m 511 988 l 613 988 q 569 865 613 900 q 471 831 526 831 q 390 858 421 831 q 321 885 360 885 q 292 869 304 885 q 281 838 281 854 l 172 838 q 216 959 172 925 q 314 993 260 993 q 399 967 367 993 q 469 940 432 940 q 499 954 486 940 q 511 988 511 968 m 386 -17 q 146 81 231 -17 q 61 339 61 179 q 151 594 63 496 q 399 692 240 692 q 648 592 561 692 q 735 332 735 492 q 640 79 735 175 q 386 -17 546 -17 m 575 332 q 532 495 575 433 q 403 557 489 557 q 269 501 317 557 q 222 340 222 444 q 262 175 222 233 q 389 117 301 117 q 524 171 474 117 q 575 332 575 225 z "},"ö":{"ha":797,"x_min":61,"x_max":736,"o":"m 272 1007 q 330 983 307 1007 q 353 925 353 958 q 330 867 353 890 q 272 843 307 843 q 214 867 238 843 q 190 925 190 890 q 214 983 190 958 q 272 1007 238 1007 m 525 1007 q 584 983 560 1007 q 608 925 608 958 q 584 867 608 890 q 525 843 560 843 q 467 867 492 843 q 442 925 442 890 q 467 983 442 958 q 525 1007 492 1007 m 388 -17 q 146 81 231 -15 q 61 339 61 178 q 151 594 63 497 q 399 692 240 690 q 649 592 561 692 q 736 332 736 492 q 640 78 735 174 q 388 -17 546 -17 m 575 332 q 533 495 575 433 q 403 557 490 557 q 269 501 315 557 q 224 340 224 444 q 263 176 224 235 q 389 117 301 117 q 525 171 476 117 q 575 332 574 225 z "},"ō":{"ha":797,"x_min":61,"x_max":736,"o":"m 217 985 l 572 985 l 572 861 l 217 861 l 217 985 m 388 -17 q 146 81 231 -15 q 61 339 61 178 q 151 594 63 497 q 399 692 240 690 q 649 592 561 692 q 736 332 736 492 q 640 78 735 174 q 388 -17 546 -17 m 575 332 q 533 495 575 433 q 403 557 490 557 q 269 501 315 557 q 224 340 224 444 q 263 176 224 235 q 389 117 301 117 q 525 171 476 117 q 575 332 574 225 z "},"ő":{"ha":797,"x_min":61,"x_max":736,"o":"m 538 1042 l 689 1042 l 560 818 l 451 818 l 538 1042 m 299 1042 l 451 1042 l 322 818 l 215 818 l 299 1042 m 388 -17 q 146 81 231 -15 q 61 339 61 178 q 151 594 63 497 q 399 692 240 690 q 649 592 561 692 q 736 332 736 492 q 640 78 735 174 q 388 -17 546 -17 m 575 332 q 533 495 575 433 q 403 557 490 557 q 269 501 315 557 q 224 340 224 444 q 263 176 224 235 q 389 117 301 117 q 525 171 476 117 q 575 332 574 225 z "},"ŕ":{"ha":485,"x_min":93,"x_max":475,"o":"m 240 1042 l 404 1042 l 276 818 l 157 818 l 240 1042 m 93 0 l 93 674 l 178 674 q 203 624 190 649 q 229 576 217 600 q 329 642 269 611 q 443 674 389 674 l 475 547 q 365 519 425 547 q 250 442 304 492 l 250 0 l 93 0 z "},"ř":{"ha":485,"x_min":0,"x_max":485,"o":"m 0 1042 l 149 1042 l 244 936 l 339 1042 l 485 1042 l 288 818 l 196 818 l 0 1042 m 93 0 l 93 674 l 178 674 q 203 624 190 649 q 229 576 217 600 q 329 642 269 611 q 443 674 389 674 l 475 547 q 365 519 425 547 q 250 442 304 492 l 250 0 l 93 0 z "},"ś":{"ha":607,"x_min":50,"x_max":556,"o":"m 294 1042 l 458 1042 l 329 818 l 211 818 l 294 1042 m 485 511 q 399 545 442 532 q 306 558 357 558 q 238 541 263 558 q 213 493 213 524 q 242 451 213 469 q 328 411 272 432 q 483 328 411 382 q 556 189 556 275 q 485 38 556 92 q 279 -17 415 -17 q 167 -1 236 -17 q 51 49 97 14 l 99 163 q 190 128 144 140 q 278 117 236 117 q 367 134 336 117 q 399 182 399 151 q 366 241 399 215 q 272 286 333 267 q 122 360 193 313 q 50 490 50 408 q 119 638 50 585 q 308 692 189 692 q 418 674 351 692 q 532 625 485 657 l 485 511 z "},"š":{"ha":607,"x_min":50,"x_max":556,"o":"m 64 1042 l 214 1042 l 310 936 l 406 1042 l 549 1042 l 353 818 l 260 818 l 64 1042 m 485 511 q 399 545 442 532 q 306 558 357 558 q 238 541 263 558 q 213 493 213 524 q 242 451 213 469 q 328 411 272 432 q 483 328 411 382 q 556 189 556 275 q 485 38 556 92 q 279 -17 415 -17 q 167 -1 236 -17 q 51 49 97 14 l 99 163 q 190 128 144 140 q 278 117 236 117 q 367 134 336 117 q 399 182 399 151 q 366 241 399 215 q 272 286 333 267 q 122 360 193 313 q 50 490 50 408 q 119 638 50 585 q 308 692 189 692 q 418 674 351 692 q 532 625 485 657 l 485 511 z "},"ť":{"ha":721,"x_min":14,"x_max":707,"o":"m 613 1017 q 679 986 651 1017 q 707 904 707 956 q 659 752 707 831 q 538 635 611 674 l 503 708 q 561 763 538 736 q 594 832 585 789 q 544 860 568 833 q 519 922 519 888 q 547 987 519 957 q 613 1017 574 1017 m 474 10 q 416 -15 453 -4 q 349 -25 379 -25 q 171 33 236 -25 q 106 201 106 92 l 106 549 l 14 549 l 14 669 l 106 669 l 106 832 l 263 864 l 263 669 l 385 669 l 433 549 l 263 549 l 263 228 q 286 142 263 176 q 360 108 310 108 q 395 113 378 108 q 429 125 413 118 l 474 10 z "},"ù":{"ha":783,"x_min":86,"x_max":689,"o":"m 231 1042 l 394 1042 l 478 818 l 360 818 l 231 1042 m 558 69 q 449 1 513 26 q 331 -25 385 -25 q 143 51 200 -25 q 86 239 86 128 l 86 674 l 244 674 l 244 249 q 276 147 244 185 q 369 108 307 108 q 450 128 406 108 q 532 176 494 147 l 532 674 l 689 674 l 689 0 l 603 0 l 558 69 z "},"ú":{"ha":783,"x_min":86,"x_max":689,"o":"m 379 1042 l 543 1042 l 414 818 l 296 818 l 379 1042 m 558 69 q 449 1 513 26 q 331 -25 385 -25 q 143 51 200 -25 q 86 239 86 128 l 86 674 l 244 674 l 244 249 q 276 147 244 185 q 369 108 307 108 q 450 128 406 108 q 532 176 494 147 l 532 674 l 689 674 l 689 0 l 603 0 l 558 69 z "},"û":{"ha":783,"x_min":86,"x_max":689,"o":"m 300 818 l 149 818 l 346 1042 l 439 1042 l 635 818 l 490 818 l 394 924 l 300 818 m 558 69 q 449 1 513 26 q 331 -25 385 -25 q 143 51 200 -25 q 86 239 86 128 l 86 674 l 244 674 l 244 249 q 276 147 244 185 q 369 108 307 108 q 450 128 406 108 q 532 176 494 147 l 532 674 l 689 674 l 689 0 l 603 0 l 558 69 z "},"ü":{"ha":783,"x_min":86,"x_max":689,"o":"m 268 1007 q 326 983 303 1007 q 349 925 349 958 q 326 867 349 890 q 268 843 303 843 q 208 867 233 843 q 183 925 183 890 q 208 983 183 958 q 268 1007 233 1007 m 521 1007 q 579 983 556 1007 q 603 925 603 958 q 579 867 603 890 q 521 843 556 843 q 463 867 488 843 q 439 925 439 890 q 463 983 439 958 q 521 1007 488 1007 m 558 69 q 449 1 513 26 q 331 -25 385 -25 q 143 51 200 -25 q 86 239 86 128 l 86 674 l 244 674 l 244 249 q 276 147 244 185 q 369 108 307 108 q 450 128 406 108 q 532 176 494 147 l 532 674 l 689 674 l 689 0 l 603 0 l 558 69 z "},"ū":{"ha":783,"x_min":86,"x_max":689,"o":"m 211 985 l 569 985 l 569 861 l 211 861 l 211 985 m 558 69 q 449 1 513 26 q 331 -25 385 -25 q 143 51 200 -25 q 86 239 86 128 l 86 674 l 244 674 l 244 249 q 276 147 244 185 q 369 108 307 108 q 450 128 406 108 q 532 176 494 147 l 532 674 l 689 674 l 689 0 l 603 0 l 558 69 z "},"ů":{"ha":783,"x_min":86,"x_max":689,"o":"m 394 1089 q 493 1050 450 1089 q 536 956 536 1011 q 493 861 536 897 q 394 825 450 825 q 292 861 335 825 q 250 956 250 897 q 292 1050 250 1011 q 394 1089 335 1089 m 394 899 q 433 916 417 899 q 449 956 449 933 q 433 994 449 978 q 394 1011 417 1011 q 354 994 371 1011 q 338 956 338 978 q 354 916 338 933 q 394 899 371 899 m 558 69 q 449 1 513 26 q 331 -25 385 -25 q 143 51 200 -25 q 86 239 86 128 l 86 674 l 244 674 l 244 249 q 276 147 244 185 q 369 108 307 108 q 450 128 406 108 q 532 176 494 147 l 532 674 l 689 674 l 689 0 l 603 0 l 558 69 z "},"ű":{"ha":783,"x_min":86,"x_max":689,"o":"m 532 1042 l 685 1042 l 556 818 l 447 818 l 532 1042 m 294 1042 l 447 1042 l 318 818 l 210 818 l 294 1042 m 558 69 q 449 1 513 26 q 331 -25 385 -25 q 143 51 200 -25 q 86 239 86 128 l 86 674 l 244 674 l 244 249 q 276 147 244 185 q 369 108 307 108 q 450 128 406 108 q 532 176 494 147 l 532 674 l 689 674 l 689 0 l 603 0 l 558 69 z "},"ų":{"ha":783,"x_min":86,"x_max":782,"o":"m 558 69 q 449 1 513 26 q 331 -25 385 -25 q 143 51 200 -25 q 86 239 86 128 l 86 674 l 244 674 l 244 249 q 276 147 244 185 q 369 108 307 108 q 450 128 406 108 q 532 176 494 147 l 532 674 l 689 674 l 689 0 q 645 -56 667 -22 q 624 -124 624 -90 q 637 -158 624 -146 q 675 -171 650 -171 q 703 -165 686 -171 q 735 -146 719 -158 l 782 -243 q 719 -276 753 -265 q 647 -287 686 -287 q 534 -244 578 -287 q 490 -136 490 -200 q 518 -36 490 -82 q 576 39 546 10 l 558 69 z "},"ý":{"ha":683,"x_min":14,"x_max":671,"o":"m 331 1042 l 496 1042 l 367 818 l 247 818 l 331 1042 m 225 -58 l 260 33 l 14 651 l 174 674 l 346 228 l 508 674 l 671 674 l 426 40 l 371 -106 q 269 -235 342 -181 q 114 -307 197 -289 l 60 -182 q 158 -133 110 -160 q 225 -58 207 -106 z "},"ÿ":{"ha":683,"x_min":14,"x_max":671,"o":"m 475 1007 q 533 983 510 1007 q 556 925 556 958 q 533 867 556 890 q 475 843 510 843 q 415 867 440 843 q 390 925 390 890 q 415 983 390 958 q 475 1007 440 1007 m 219 1007 q 278 983 254 1007 q 301 925 301 958 q 278 867 301 890 q 219 843 254 843 q 160 867 185 843 q 136 925 136 890 q 160 983 136 958 q 219 1007 185 1007 m 225 -58 l 260 33 l 14 651 l 174 674 l 346 228 l 508 674 l 671 674 l 426 40 l 371 -106 q 269 -235 342 -181 q 114 -307 197 -289 l 60 -182 q 158 -133 110 -160 q 225 -58 207 -106 z "},"ź":{"ha":632,"x_min":31,"x_max":597,"o":"m 339 1042 l 503 1042 l 374 818 l 254 818 l 339 1042 m 589 597 l 239 126 l 583 126 l 597 0 l 51 0 l 31 82 l 376 557 l 85 557 l 54 685 l 581 685 l 589 597 z "},"ż":{"ha":632,"x_min":31,"x_max":597,"o":"m 347 1019 q 414 992 386 1019 q 442 926 442 965 q 414 860 442 886 q 347 833 386 833 q 281 860 308 833 q 254 926 254 886 q 281 992 254 965 q 347 1019 308 1019 m 589 597 l 239 126 l 583 126 l 597 0 l 51 0 l 31 82 l 376 557 l 85 557 l 54 685 l 581 685 l 589 597 z "},"ž":{"ha":632,"x_min":31,"x_max":597,"o":"m 96 1042 l 244 1042 l 340 936 l 436 1042 l 582 1042 l 385 818 l 292 818 l 96 1042 m 589 597 l 239 126 l 583 126 l 597 0 l 51 0 l 31 82 l 376 557 l 85 557 l 54 685 l 581 685 l 589 597 z "},"ş":{"ha":607,"x_min":50,"x_max":556,"o":"m 485 511 q 399 545 442 532 q 306 558 357 558 q 238 541 263 558 q 213 493 213 524 q 242 451 213 469 q 328 411 272 432 q 483 328 411 382 q 556 189 556 275 q 499 48 556 101 q 333 -15 442 -6 l 319 -49 q 390 -98 361 -62 q 419 -169 419 -133 q 367 -274 419 -240 q 250 -307 315 -307 q 185 -297 224 -307 q 125 -271 146 -287 l 161 -178 q 206 -194 179 -186 q 250 -203 232 -203 q 286 -197 268 -203 q 304 -172 304 -190 q 270 -131 304 -150 q 182 -107 236 -112 l 219 -11 q 130 10 176 -6 q 51 49 83 25 l 99 163 q 190 128 144 140 q 278 117 236 117 q 367 134 336 117 q 399 182 399 151 q 366 241 399 215 q 272 286 333 267 q 122 360 193 313 q 50 490 50 408 q 119 638 50 585 q 308 692 189 692 q 418 674 351 692 q 532 625 485 657 l 485 511 z "},"ķ":{"ha":717,"x_min":100,"x_max":704,"o":"m 100 0 l 100 965 l 257 981 l 257 413 l 551 692 l 640 583 q 544 494 593 539 q 446 406 494 450 l 704 0 l 522 0 l 336 304 q 296 267 317 286 q 257 231 275 249 l 257 0 l 100 0 m 371 -29 q 440 -60 411 -29 q 468 -142 468 -90 q 422 -279 468 -215 q 314 -374 375 -343 l 278 -300 q 322 -267 300 -289 q 353 -214 344 -244 q 303 -185 328 -212 q 279 -122 279 -157 q 306 -58 279 -87 q 371 -29 332 -29 z "},"ļ":{"ha":357,"x_min":89,"x_max":278,"o":"m 100 0 l 100 965 l 257 981 l 257 0 l 100 0 m 185 -29 q 251 -60 224 -29 q 278 -142 278 -90 q 233 -279 278 -215 q 125 -374 188 -343 q 108 -337 117 -356 q 89 -300 99 -318 q 133 -267 111 -289 q 164 -214 156 -244 q 114 -185 138 -212 q 90 -122 90 -157 q 118 -59 90 -89 q 185 -29 146 -29 z "},"ņ":{"ha":796,"x_min":93,"x_max":708,"o":"m 226 593 q 340 669 271 640 q 464 697 408 697 q 651 622 593 697 q 708 433 708 546 l 708 0 l 551 0 l 551 424 q 520 526 551 489 q 426 564 489 564 q 338 541 386 564 q 250 483 289 518 l 250 0 l 93 0 l 93 674 l 179 674 l 226 593 m 399 -29 q 465 -60 438 -29 q 492 -142 492 -90 q 447 -279 492 -215 q 339 -374 401 -343 l 304 -300 q 349 -267 326 -290 q 378 -214 371 -244 q 329 -186 353 -214 q 306 -124 306 -158 q 333 -59 306 -89 q 399 -29 360 -29 z "},"ŗ":{"ha":485,"x_min":83,"x_max":475,"o":"m 93 0 l 93 674 l 178 674 q 203 624 190 649 q 229 576 217 600 q 329 642 269 611 q 443 674 389 674 l 475 547 q 365 519 425 547 q 250 442 304 492 l 250 0 l 93 0 m 178 -29 q 244 -60 217 -29 q 271 -142 271 -90 q 226 -279 271 -215 q 118 -374 182 -343 l 83 -300 q 128 -267 106 -289 q 158 -214 150 -244 q 108 -185 132 -212 q 83 -122 83 -157 q 111 -59 83 -89 q 178 -29 139 -29 z "},"ţ":{"ha":494,"x_min":14,"x_max":474,"o":"m 429 125 l 474 10 q 424 -12 456 -3 q 365 -24 393 -22 l 356 -49 q 426 -98 397 -62 q 456 -169 456 -133 q 403 -274 456 -240 q 286 -307 351 -307 q 220 -297 258 -307 q 160 -271 182 -287 l 197 -178 q 241 -194 214 -186 q 286 -203 268 -203 q 322 -197 304 -203 q 340 -172 340 -190 q 306 -131 340 -150 q 218 -107 272 -112 l 256 -14 q 145 61 185 6 q 106 201 106 117 l 106 549 l 14 549 l 14 669 l 106 669 l 106 832 l 263 864 l 263 669 l 385 669 l 433 549 l 263 549 l 263 228 q 286 142 263 176 q 360 108 310 108 q 395 113 378 108 q 429 125 413 118 z "},"ș":{"ha":607,"x_min":50,"x_max":556,"o":"m 485 511 q 399 545 442 532 q 306 558 357 558 q 238 541 263 558 q 213 493 213 524 q 242 451 213 469 q 328 411 272 432 q 483 328 411 382 q 556 189 556 275 q 485 38 556 92 q 279 -17 415 -17 q 167 -1 236 -17 q 51 49 97 14 l 99 163 q 190 128 144 140 q 278 117 236 117 q 367 134 336 117 q 399 182 399 151 q 366 241 399 215 q 272 286 333 267 q 122 360 193 313 q 50 490 50 408 q 119 638 50 585 q 308 692 189 692 q 418 674 351 692 q 532 625 485 657 l 485 511 m 293 -29 q 360 -60 332 -29 q 389 -142 389 -90 q 344 -279 389 -215 q 236 -374 299 -343 l 200 -300 q 244 -267 222 -290 q 274 -214 267 -244 q 224 -186 249 -214 q 200 -124 200 -158 q 227 -59 200 -89 q 293 -29 254 -29 z "},"ț":{"ha":494,"x_min":14,"x_max":474,"o":"m 474 10 q 416 -15 453 -4 q 349 -25 379 -25 q 171 33 236 -25 q 106 201 106 92 l 106 549 l 14 549 l 14 669 l 106 669 l 106 832 l 263 864 l 263 669 l 385 669 l 433 549 l 263 549 l 263 228 q 286 142 263 176 q 360 108 310 108 q 395 113 378 108 q 429 125 413 118 l 474 10 m 314 -29 q 381 -60 353 -29 q 408 -142 408 -90 q 363 -279 408 -215 q 256 -374 318 -343 l 219 -300 q 264 -267 242 -290 q 294 -214 286 -244 q 245 -186 269 -214 q 221 -124 221 -158 q 248 -59 221 -89 q 314 -29 275 -29 z "},"­":{"ha":182,"x_min":0,"x_max":0,"o":""},"µ":{"ha":796,"x_min":101,"x_max":701,"o":"m 572 69 q 462 1 526 26 q 344 -25 397 -25 q 297 -22 318 -25 q 257 -11 275 -18 l 257 -290 l 101 -304 l 101 674 l 257 674 l 257 249 q 288 147 257 185 q 382 108 319 108 q 463 128 419 108 q 543 176 507 147 l 543 674 l 701 674 l 701 0 l 615 0 l 572 69 z "},"ˉ":{"ha":400,"x_min":22,"x_max":379,"o":"m 22 985 l 379 985 l 379 861 l 22 861 l 22 985 z "},"ℓ":{"ha":582,"x_min":36,"x_max":535,"o":"m 75 224 q 56 293 65 258 q 36 363 46 328 q 83 394 58 376 q 132 429 108 411 l 132 768 q 193 920 132 865 q 340 975 254 975 q 478 922 422 975 q 535 776 535 868 q 463 574 535 681 q 290 378 390 467 l 290 242 q 304 155 290 190 q 365 119 318 119 q 403 124 379 119 q 457 150 426 128 l 510 50 q 430 1 472 17 q 349 -14 388 -14 q 180 52 228 -14 q 132 225 132 118 l 132 258 q 104 240 118 249 q 75 224 90 231 m 379 769 q 365 824 379 808 q 336 839 351 839 q 303 821 317 838 q 290 761 290 804 l 290 572 q 354 668 329 618 q 379 769 379 718 z "},"Ω":{"ha":1040,"x_min":79,"x_max":961,"o":"m 792 475 q 716 735 792 639 q 519 832 640 832 q 324 735 399 832 q 249 475 249 639 q 290 264 249 363 q 403 126 331 165 l 404 0 l 86 0 l 79 126 l 210 126 q 117 283 150 185 q 85 479 85 381 q 199 828 85 694 q 519 967 314 963 q 841 828 726 963 q 956 479 956 694 q 924 283 956 381 q 829 126 892 185 l 961 126 l 953 0 l 635 0 l 638 126 q 751 264 710 165 q 792 475 792 363 z "},"∆":{"ha":881,"x_min":8,"x_max":872,"o":"m 507 944 l 872 22 l 715 0 l 8 0 l 369 944 l 507 944 m 436 731 l 210 125 l 668 125 l 436 731 z "},"∕":{"ha":594,"x_min":8,"x_max":588,"o":"m 588 981 l 168 -6 l 8 0 l 425 986 l 588 981 z "},"∙":{"ha":363,"x_min":39,"x_max":322,"o":"m 181 317 q 80 358 121 317 q 39 457 39 399 q 80 557 39 515 q 181 599 121 599 q 281 557 239 599 q 322 457 322 515 q 281 358 322 399 q 181 317 239 317 z "},"₺":{"ha":782,"x_min":29,"x_max":736,"o":"m 549 579 l 306 493 l 306 146 q 497 231 418 146 q 576 443 576 317 l 736 443 q 617 131 736 253 q 324 1 497 8 q 292 0 308 0 q 260 0 275 0 l 149 0 l 149 438 l 51 404 l 29 524 l 149 565 l 149 628 q 100 610 125 619 q 51 592 75 601 q 40 652 46 622 q 29 713 35 682 l 149 754 l 149 965 l 306 981 l 306 811 q 416 850 361 829 q 526 889 471 871 q 538 828 532 858 q 549 769 543 799 l 306 683 l 306 622 l 526 699 q 538 640 532 669 q 549 579 543 610 z "},"₽":{"ha":883,"x_min":78,"x_max":822,"o":"m 692 178 l 331 178 l 331 0 l 175 0 l 175 178 l 90 178 l 78 300 l 175 300 l 175 371 l 79 371 l 79 500 l 175 500 l 175 944 l 457 944 q 716 883 610 944 q 822 661 822 822 q 707 437 821 503 q 444 371 593 371 l 331 371 l 331 300 l 679 300 l 692 178 m 454 814 l 331 814 l 331 500 l 453 500 q 597 533 542 500 q 658 654 653 565 q 604 784 658 754 q 454 814 550 814 z "},"¢":{"ha":667,"x_min":61,"x_max":618,"o":"m 475 846 l 475 679 q 550 659 511 674 q 618 624 589 644 l 572 511 q 490 545 526 532 q 399 558 453 558 q 269 495 314 558 q 224 338 224 432 q 267 179 224 242 q 397 117 311 117 q 488 128 451 117 q 571 163 525 140 l 615 49 q 551 13 589 28 q 476 -8 514 -1 l 476 -158 l 325 -147 l 325 -11 q 130 102 199 8 q 61 338 61 196 q 131 569 63 476 q 324 683 199 663 l 324 846 l 475 846 z "},"£":{"ha":688,"x_min":72,"x_max":668,"o":"m 333 694 l 333 536 l 504 536 l 556 417 l 333 417 l 333 286 q 326 194 333 239 q 300 122 318 149 l 646 122 q 657 61 651 92 q 668 0 663 31 l 88 0 q 87 61 88 31 q 86 122 86 92 l 92 122 q 156 156 138 124 q 175 240 175 189 l 175 417 l 72 417 l 72 536 l 175 536 l 175 701 q 236 883 175 815 q 414 950 297 950 q 482 939 446 950 q 539 911 518 928 q 517 855 528 883 q 496 797 506 826 q 460 809 479 804 q 425 814 440 814 q 354 780 375 814 q 333 694 333 746 z "},"¤":{"ha":943,"x_min":32,"x_max":910,"o":"m 667 39 q 576 -2 625 13 q 471 -18 526 -17 q 366 -1 415 -17 q 275 40 317 14 l 128 -110 l 32 6 l 171 146 q 133 233 147 185 q 119 336 119 282 q 133 438 119 390 q 172 524 147 486 l 32 667 l 128 781 l 275 632 q 369 674 318 658 q 475 692 419 690 q 579 675 531 690 q 668 633 628 660 l 815 781 l 910 667 l 774 529 q 813 440 800 489 q 828 336 826 392 q 813 232 826 281 q 774 143 799 183 l 910 6 l 815 -110 l 667 39 m 667 335 q 610 482 665 422 q 474 542 554 542 q 338 482 394 540 q 281 338 282 424 q 336 190 282 250 q 469 129 390 131 q 607 188 549 129 q 667 335 665 247 z "},"¥":{"ha":819,"x_min":8,"x_max":813,"o":"m 326 0 l 326 96 l 103 96 q 95 154 99 125 q 89 213 92 183 l 326 213 l 326 317 l 103 317 q 95 375 99 346 q 89 433 92 404 l 292 433 l 8 922 q 89 933 49 928 q 169 944 129 939 l 404 529 l 647 944 l 813 944 l 521 433 l 703 433 l 717 317 l 485 317 l 485 213 l 703 213 l 717 96 l 483 96 l 483 0 l 326 0 z "},"€":{"ha":863,"x_min":54,"x_max":831,"o":"m 682 288 l 358 288 q 438 162 385 211 q 582 113 492 113 q 686 125 642 113 q 772 156 731 138 l 831 39 q 713 -3 781 13 q 585 -19 644 -19 q 328 68 418 -19 q 207 288 238 156 l 69 288 l 54 406 l 189 406 q 187 435 188 419 q 186 468 186 451 q 188 502 186 485 q 190 535 189 519 l 69 535 l 54 653 l 208 653 q 339 877 243 790 q 593 964 435 964 q 704 950 639 964 q 825 906 769 936 l 776 792 q 688 821 719 810 q 594 832 656 832 q 449 784 507 832 q 361 653 390 736 l 668 653 l 682 535 l 336 535 q 333 503 335 519 q 332 469 332 488 q 333 436 332 453 q 336 406 335 419 l 668 406 l 682 288 z "},"$":{"ha":760,"x_min":61,"x_max":697,"o":"m 521 1119 l 521 942 q 582 923 553 935 q 638 900 611 911 q 611 837 625 868 q 585 775 597 806 q 495 813 544 794 q 382 831 446 831 q 266 802 311 831 q 221 719 221 774 q 459 517 221 588 q 697 240 697 447 q 651 101 697 163 q 521 8 604 39 l 521 -171 l 413 -161 l 413 -14 q 383 -17 399 -15 q 350 -18 367 -18 l 329 -18 l 329 -171 l 222 -171 l 222 0 q 135 27 175 11 q 78 57 96 43 l 114 182 q 220 140 154 161 q 349 119 286 119 q 489 151 442 119 q 536 239 536 183 q 299 434 536 365 q 61 717 61 503 q 104 849 61 790 q 222 938 147 907 l 222 1119 l 329 1114 l 329 963 q 355 965 342 964 q 379 967 368 967 q 397 966 389 967 q 413 964 404 965 l 413 1119 l 521 1119 z "},",":{"ha":243,"x_min":15,"x_max":222,"o":"m 126 185 q 194 153 165 185 q 222 72 222 122 q 174 -80 222 -1 q 53 -199 125 -158 l 15 -124 q 75 -69 51 -96 q 107 0 99 -43 q 58 29 82 1 q 35 92 35 57 q 61 156 35 126 q 126 185 88 185 z "},".":{"ha":218,"x_min":15,"x_max":201,"o":"m 110 185 q 175 158 149 185 q 201 93 201 132 q 175 26 201 53 q 110 0 149 0 q 43 26 71 0 q 15 93 15 53 q 43 158 15 132 q 110 185 71 185 z "},"!":{"ha":339,"x_min":75,"x_max":261,"o":"m 251 975 l 231 272 q 169 301 200 286 q 108 329 139 315 l 85 975 l 251 975 m 168 185 q 234 158 207 185 q 261 92 261 131 q 234 26 261 53 q 168 0 207 0 q 103 26 131 0 q 75 92 75 53 q 103 158 75 131 q 168 185 131 185 z "},"¡":{"ha":339,"x_min":75,"x_max":261,"o":"m 168 788 q 102 815 129 788 q 75 882 75 843 q 102 947 75 919 q 168 975 129 975 q 234 947 207 975 q 261 882 261 919 q 234 815 261 843 q 168 788 207 788 m 85 0 l 107 701 l 231 644 l 251 0 l 85 0 z "},":":{"ha":218,"x_min":15,"x_max":201,"o":"m 110 650 q 175 623 149 650 q 201 557 201 596 q 175 491 201 518 q 110 464 149 464 q 43 491 71 464 q 15 557 15 518 q 43 623 15 596 q 110 650 71 650 m 110 197 q 175 171 149 197 q 201 106 201 144 q 175 39 201 65 q 110 13 149 13 q 43 39 71 13 q 15 106 15 65 q 43 171 15 144 q 110 197 71 197 z "},";":{"ha":246,"x_min":15,"x_max":224,"o":"m 131 650 q 197 623 169 650 q 224 557 224 596 q 197 491 224 518 q 131 464 169 464 q 64 491 92 464 q 36 557 36 518 q 64 623 36 596 q 131 650 92 650 m 126 197 q 194 166 165 197 q 222 85 222 135 q 174 -67 222 13 q 53 -186 125 -146 l 15 -111 q 75 -57 51 -83 q 107 13 99 -31 q 58 42 82 14 q 35 104 35 69 q 61 168 35 139 q 126 197 88 197 z "},"?":{"ha":571,"x_min":11,"x_max":550,"o":"m 275 974 q 482 906 414 974 q 550 731 550 839 q 483 575 550 654 q 315 444 417 496 l 294 235 l 182 282 l 171 525 q 338 612 272 558 q 403 728 403 665 q 367 814 403 785 q 271 843 331 843 q 158 822 219 843 q 32 754 97 800 l 11 894 q 135 953 72 933 q 275 974 197 974 m 231 185 q 297 158 269 185 q 324 93 324 132 q 297 26 324 53 q 231 0 269 0 q 165 26 192 0 q 138 93 138 53 q 165 158 138 132 q 231 185 192 185 z "},"¿":{"ha":619,"x_min":54,"x_max":592,"o":"m 372 721 q 306 749 333 721 q 279 815 279 776 q 306 880 279 853 q 372 907 333 907 q 438 880 411 907 q 465 815 465 853 q 438 749 465 776 q 372 721 411 721 m 326 -67 q 122 1 189 -67 q 54 176 54 69 q 121 333 54 254 q 289 464 188 413 l 308 672 l 421 626 l 432 383 q 265 296 331 350 q 200 178 200 242 q 236 94 200 122 q 332 65 272 65 q 444 86 383 65 q 571 154 506 107 l 592 13 q 468 -47 531 -26 q 326 -67 406 -67 z "},"*":{"ha":510,"x_min":8,"x_max":503,"o":"m 318 925 l 467 957 l 503 849 l 354 819 l 456 674 l 363 601 l 256 746 l 149 601 l 54 674 l 156 818 q 83 834 131 825 q 8 849 35 843 l 43 957 l 192 925 q 192 995 192 950 q 193 1068 193 1040 l 317 1068 l 318 925 z "},"\"":{"ha":468,"x_min":8,"x_max":456,"o":"m 363 1017 q 428 986 401 1017 q 456 904 456 956 q 407 752 456 831 q 288 635 358 674 l 251 708 q 310 763 286 736 q 342 832 333 789 q 292 860 315 833 q 268 922 268 888 q 295 987 268 957 q 363 1017 322 1017 m 118 1017 q 185 986 157 1017 q 213 904 213 956 q 165 752 213 831 q 43 635 117 674 l 8 708 q 67 763 43 736 q 97 832 90 789 q 49 860 74 833 q 25 922 25 888 q 52 987 25 957 q 118 1017 79 1017 z "},"'":{"ha":225,"x_min":8,"x_max":213,"o":"m 118 1017 q 185 986 157 1017 q 213 904 213 956 q 165 752 213 831 q 43 635 117 674 l 8 708 q 67 763 43 736 q 97 832 90 789 q 49 860 74 833 q 25 922 25 888 q 52 987 25 957 q 118 1017 79 1017 z "},"‘":{"ha":225,"x_min":13,"x_max":218,"o":"m 107 635 q 40 666 67 635 q 13 747 13 697 q 61 899 13 821 q 182 1017 110 978 l 218 943 q 159 889 183 915 q 126 819 135 863 q 176 790 153 818 q 200 728 200 763 q 173 664 200 693 q 107 635 146 635 z "},"’":{"ha":225,"x_min":8,"x_max":213,"o":"m 118 1017 q 185 986 157 1017 q 213 904 213 956 q 165 752 213 831 q 43 635 117 674 l 8 708 q 67 763 43 736 q 97 832 90 789 q 49 860 74 833 q 25 922 25 888 q 52 987 25 957 q 118 1017 79 1017 z "},"‚":{"ha":225,"x_min":8,"x_max":213,"o":"m 118 185 q 185 153 157 185 q 213 72 213 122 q 165 -80 213 -1 q 43 -199 117 -158 l 8 -124 q 67 -69 43 -96 q 97 0 90 -43 q 49 29 74 1 q 25 92 25 57 q 52 156 25 126 q 118 185 79 185 z "},"“":{"ha":468,"x_min":13,"x_max":461,"o":"m 107 635 q 40 666 67 635 q 13 747 13 697 q 61 899 13 821 q 182 1017 110 978 l 218 943 q 159 889 183 915 q 126 819 135 863 q 176 790 153 818 q 200 728 200 763 q 173 664 200 693 q 107 635 146 635 m 350 635 q 283 666 311 635 q 256 747 256 697 q 305 899 256 821 q 425 1017 354 978 l 461 943 q 402 889 426 915 q 371 819 378 863 q 419 790 394 818 q 444 728 444 763 q 417 664 444 693 q 350 635 389 635 z "},"”":{"ha":468,"x_min":8,"x_max":456,"o":"m 363 1017 q 428 986 401 1017 q 456 904 456 956 q 407 752 456 831 q 288 635 358 674 l 251 708 q 310 763 286 736 q 342 832 333 789 q 292 860 315 833 q 268 922 268 888 q 295 987 268 957 q 363 1017 322 1017 m 118 1017 q 185 986 157 1017 q 213 904 213 956 q 165 752 213 831 q 43 635 117 674 l 8 708 q 67 763 43 736 q 97 832 90 789 q 49 860 74 833 q 25 922 25 888 q 52 987 25 957 q 118 1017 79 1017 z "},"„":{"ha":468,"x_min":8,"x_max":456,"o":"m 363 185 q 428 153 401 185 q 456 72 456 122 q 407 -80 456 -1 q 288 -199 358 -158 l 251 -124 q 310 -69 286 -96 q 342 0 333 -43 q 292 29 315 1 q 268 92 268 57 q 295 156 268 126 q 363 185 322 185 m 118 185 q 185 153 157 185 q 213 72 213 122 q 165 -79 213 0 q 43 -199 117 -158 l 8 -124 q 67 -69 43 -96 q 97 0 90 -43 q 49 29 74 1 q 25 92 25 57 q 52 156 25 126 q 118 185 79 185 z "},"·":{"ha":218,"x_min":15,"x_max":201,"o":"m 110 456 q 175 429 149 456 q 201 364 201 403 q 175 298 201 325 q 110 271 149 271 q 43 298 71 271 q 15 364 15 325 q 43 429 15 403 q 110 456 71 456 z "},"(":{"ha":381,"x_min":61,"x_max":358,"o":"m 235 -54 q 106 184 151 54 q 61 446 61 314 q 106 701 61 575 q 235 944 150 826 l 358 900 q 253 686 299 822 q 208 447 208 550 q 253 202 208 342 q 357 -8 297 63 l 235 -54 z "},")":{"ha":381,"x_min":22,"x_max":319,"o":"m 146 944 q 274 706 228 836 q 319 446 319 576 q 274 190 319 317 q 144 -54 228 64 l 22 -8 q 126 205 82 68 q 169 444 169 342 q 126 689 169 549 q 24 897 83 829 l 146 944 z "},"[":{"ha":428,"x_min":100,"x_max":419,"o":"m 100 967 l 419 967 l 396 844 l 254 844 l 254 -1 l 396 -1 l 419 -122 l 100 -122 l 100 967 z "},"]":{"ha":428,"x_min":8,"x_max":326,"o":"m 326 -122 l 8 -122 l 29 -1 l 171 -1 l 171 844 l 29 844 l 8 967 l 326 967 l 326 -122 z "},"{":{"ha":396,"x_min":43,"x_max":385,"o":"m 256 747 q 280 663 256 713 q 304 569 304 614 q 291 485 304 519 q 246 429 278 451 q 290 370 275 407 q 304 286 304 333 q 280 194 304 247 q 256 110 256 142 q 270 77 256 93 q 319 61 285 61 l 369 61 q 378 1 374 31 q 385 -58 382 -28 l 346 -58 q 178 -17 231 -58 q 125 110 125 24 q 149 207 125 149 q 172 301 172 265 q 149 354 172 333 q 101 375 125 375 l 43 375 l 43 479 l 101 479 q 147 501 129 479 q 164 556 164 522 q 162 583 164 568 q 156 614 160 597 l 156 613 q 138 688 147 650 q 128 758 128 726 q 183 878 128 840 q 346 915 239 915 l 385 915 q 378 855 382 885 q 369 794 374 825 l 319 794 q 269 777 282 794 q 256 747 256 760 z "},"}":{"ha":396,"x_min":11,"x_max":351,"o":"m 138 108 q 113 194 138 146 q 89 286 89 242 q 103 371 89 336 q 149 426 118 406 q 103 487 118 450 q 89 569 89 524 q 113 659 89 608 q 138 749 138 710 q 123 778 138 763 q 75 794 108 794 l 25 794 q 18 855 21 825 q 11 915 15 885 l 49 915 q 217 874 161 915 q 272 747 272 833 q 248 647 272 706 q 224 553 224 589 q 246 501 224 524 q 293 479 268 479 l 351 479 l 351 378 l 293 378 q 247 358 267 378 q 228 304 228 338 q 231 276 228 292 q 239 242 233 260 l 239 243 q 258 170 247 207 q 268 103 268 133 q 211 -20 268 18 q 49 -58 154 -58 l 11 -58 q 18 1 15 -28 q 25 61 21 31 l 75 61 q 122 76 107 61 q 138 108 138 92 z "},"/":{"ha":594,"x_min":8,"x_max":588,"o":"m 588 981 l 168 -6 l 8 0 l 425 986 l 588 981 z "},"\\":{"ha":594,"x_min":8,"x_max":588,"o":"m 425 -6 l 8 981 l 168 986 l 588 0 l 425 -6 z "},"|":{"ha":371,"x_min":108,"x_max":264,"o":"m 264 978 l 264 -12 l 108 0 l 108 989 l 264 978 z "},"¦":{"ha":371,"x_min":108,"x_max":264,"o":"m 264 978 l 264 564 l 108 576 l 108 989 l 264 978 m 264 400 l 264 -12 l 108 0 l 108 411 l 264 400 z "},"«":{"ha":524,"x_min":32,"x_max":507,"o":"m 261 307 l 261 372 q 369 469 315 419 q 478 565 422 518 l 507 461 q 443 400 475 431 q 379 340 411 369 q 443 279 411 310 q 507 219 475 249 l 478 115 q 369 211 422 163 q 261 307 315 260 m 32 372 l 247 565 l 279 461 l 151 340 q 215 279 182 310 q 279 219 247 249 l 247 115 l 32 307 l 32 372 z "},"»":{"ha":524,"x_min":14,"x_max":490,"o":"m 46 565 l 260 372 l 260 307 l 46 115 l 14 219 l 142 340 l 14 461 l 46 565 m 275 565 l 490 372 l 490 307 l 275 115 l 243 219 l 372 340 l 243 461 l 275 565 z "},"π":{"ha":953,"x_min":43,"x_max":910,"o":"m 176 0 l 176 550 l 43 550 l 43 674 l 910 674 l 910 550 l 775 550 l 775 0 l 618 0 l 618 550 l 333 550 l 333 0 l 176 0 z "},"†":{"ha":565,"x_min":26,"x_max":538,"o":"m 369 1083 l 369 868 l 513 868 l 538 724 l 369 724 l 354 -6 l 214 0 l 200 724 l 53 724 l 26 868 l 200 868 l 200 1088 l 369 1083 z "},"‡":{"ha":614,"x_min":43,"x_max":568,"o":"m 214 -8 l 221 225 l 69 225 l 43 368 l 217 368 l 221 708 l 69 708 l 43 853 l 224 853 l 217 1088 l 399 1083 l 392 853 l 543 853 l 568 708 l 393 708 q 393 538 393 624 q 392 368 393 453 l 543 368 l 568 225 l 389 225 l 396 1 l 214 -8 z "},"•":{"ha":363,"x_min":39,"x_max":322,"o":"m 181 317 q 80 358 121 317 q 39 457 39 399 q 80 557 39 515 q 181 599 121 599 q 281 557 239 599 q 322 457 322 515 q 281 358 322 399 q 181 317 239 317 z "},"…":{"ha":664,"x_min":15,"x_max":646,"o":"m 561 171 q 622 146 597 171 q 646 85 646 121 q 622 25 646 50 q 561 0 597 0 q 501 25 526 0 q 476 85 476 50 q 501 146 476 121 q 561 171 526 171 m 335 171 q 394 146 369 171 q 419 85 419 121 q 394 25 419 50 q 335 0 369 0 q 272 25 297 0 q 247 85 247 50 q 272 146 247 121 q 335 171 297 171 m 103 171 q 163 146 138 171 q 188 85 188 121 q 163 25 188 50 q 103 0 138 0 q 42 25 68 0 q 15 85 15 50 q 42 146 15 121 q 103 171 68 171 z "},"‹":{"ha":299,"x_min":32,"x_max":279,"o":"m 32 374 l 247 567 l 279 454 q 218 397 249 426 q 157 340 188 368 l 279 225 l 247 115 l 32 307 l 32 374 z "},"›":{"ha":299,"x_min":19,"x_max":267,"o":"m 51 567 l 267 374 l 267 307 l 51 115 l 19 225 l 140 340 l 19 456 l 51 567 z "},"-":{"ha":417,"x_min":22,"x_max":394,"o":"m 394 318 l 36 318 l 22 442 l 381 442 l 394 318 z "},"_":{"ha":574,"x_min":22,"x_max":551,"o":"m 551 0 l 36 0 l 22 122 l 539 122 l 551 0 z "},"–":{"ha":574,"x_min":22,"x_max":551,"o":"m 551 318 l 36 318 l 22 442 l 539 442 l 551 318 z "},"—":{"ha":717,"x_min":22,"x_max":696,"o":"m 696 318 l 36 318 l 22 442 l 683 442 l 696 318 z "},"#":{"ha":756,"x_min":29,"x_max":726,"o":"m 682 713 l 646 554 l 714 554 l 726 436 l 618 436 l 581 274 l 714 274 l 726 156 l 553 156 l 514 -15 l 382 -8 l 419 156 l 246 156 l 207 -15 l 75 -8 l 113 156 l 43 156 l 29 274 l 139 274 l 176 436 l 43 436 l 29 554 l 204 554 l 242 715 l 375 713 l 338 554 l 510 554 l 547 715 l 682 713 m 311 436 l 275 274 l 444 274 l 483 436 l 311 436 z "},"%":{"ha":1274,"x_min":43,"x_max":1229,"o":"m 921 981 l 503 -6 l 346 0 l 764 986 l 921 981 m 43 740 q 113 912 43 849 q 269 975 182 975 q 429 913 361 975 q 497 740 497 851 q 428 568 497 632 q 271 504 358 504 q 112 566 181 504 q 43 740 43 628 m 178 740 q 205 648 178 678 q 271 618 232 618 q 334 648 306 618 q 363 739 363 678 q 335 829 363 799 q 269 860 308 860 q 207 830 236 860 q 178 740 178 800 m 776 235 q 846 407 776 344 q 1004 469 915 469 q 1162 408 1094 469 q 1229 236 1229 347 q 1160 64 1229 128 q 1004 0 1092 0 q 845 62 914 0 q 776 235 776 124 m 911 236 q 938 144 911 174 q 1004 114 965 114 q 1067 144 1039 114 q 1096 235 1096 174 q 1068 325 1096 294 q 1004 356 1040 356 q 940 326 969 356 q 911 236 911 296 z "},"+":{"ha":710,"x_min":24,"x_max":686,"o":"m 686 321 l 433 321 l 433 6 l 286 11 l 286 321 l 35 321 l 24 440 l 286 440 l 286 742 l 433 738 l 433 440 l 672 440 l 686 321 z "},"÷":{"ha":668,"x_min":24,"x_max":643,"o":"m 332 500 q 260 530 289 500 q 232 599 232 560 q 260 670 232 642 q 332 699 289 699 q 403 670 374 699 q 432 599 432 642 q 403 530 432 560 q 332 500 374 500 m 643 318 l 36 318 l 24 442 l 629 442 l 643 318 m 332 44 q 262 74 290 44 q 233 144 233 104 q 262 217 233 188 q 332 246 290 246 q 403 217 374 246 q 433 144 433 188 q 403 74 433 104 q 332 44 374 44 z "},"×":{"ha":736,"x_min":29,"x_max":707,"o":"m 29 61 l 271 356 l 39 644 l 186 667 l 364 446 q 455 556 408 501 q 546 665 501 610 l 707 665 l 443 344 q 490 283 465 314 q 539 222 514 253 l 685 40 l 525 40 q 438 147 482 93 q 351 253 394 201 q 262 143 307 197 q 172 36 217 89 l 29 61 z "},"±":{"ha":636,"x_min":29,"x_max":606,"o":"m 606 415 l 388 415 l 388 183 l 253 190 l 253 415 l 42 415 l 29 525 l 253 525 l 253 742 l 388 738 l 388 525 l 593 525 l 606 415 m 606 0 l 42 0 l 32 110 l 599 110 l 606 0 z "},"<":{"ha":467,"x_min":19,"x_max":425,"o":"m 393 26 l 19 301 l 19 379 l 393 653 l 425 526 l 175 340 l 425 154 l 393 26 z "},"=":{"ha":685,"x_min":29,"x_max":656,"o":"m 656 436 l 43 436 l 29 554 l 644 554 l 656 436 m 656 156 l 43 156 l 29 274 l 644 274 l 656 156 z "},">":{"ha":467,"x_min":43,"x_max":447,"o":"m 447 301 l 75 26 l 43 154 q 168 247 106 200 q 293 340 231 293 l 43 525 l 75 653 l 447 378 l 447 301 z "},"°":{"ha":346,"x_min":11,"x_max":335,"o":"m 174 997 q 286 952 238 997 q 335 843 335 907 q 286 733 335 776 q 174 690 238 690 q 59 733 107 690 q 11 843 11 776 q 59 952 11 907 q 174 997 107 997 m 236 840 q 218 885 236 867 q 174 904 200 904 q 130 885 147 904 q 113 843 113 867 q 130 798 113 818 q 174 778 147 778 q 218 797 200 778 q 236 840 236 815 z "},"¹":{"ha":517,"x_min":86,"x_max":444,"o":"m 444 467 l 100 467 l 89 575 l 203 575 l 203 901 l 142 867 l 86 965 q 169 1013 128 989 q 251 1060 211 1036 l 344 1060 l 344 575 l 432 575 l 444 467 z "},"²":{"ha":553,"x_min":43,"x_max":490,"o":"m 250 1071 q 419 1011 367 1071 q 472 888 472 951 q 438 774 472 826 q 326 657 403 721 l 229 576 l 474 576 l 490 468 l 43 468 l 43 568 l 240 732 q 308 807 288 771 q 328 888 328 843 q 306 934 328 913 q 242 956 285 956 q 157 928 200 956 q 113 900 114 901 l 60 1003 q 130 1045 82 1019 q 250 1071 178 1071 z "},"³":{"ha":585,"x_min":32,"x_max":497,"o":"m 268 1071 q 431 1017 376 1071 q 485 892 485 963 q 456 802 485 842 q 392 749 426 763 q 463 697 429 740 q 497 589 497 653 q 431 446 497 504 q 253 388 365 388 q 135 408 194 388 q 32 450 76 428 l 93 550 q 165 513 133 525 q 240 501 196 501 q 321 525 290 501 q 351 588 351 549 q 319 666 351 639 q 217 693 286 693 l 179 693 l 164 801 l 224 801 q 317 829 293 801 q 340 890 340 857 q 320 933 340 913 q 249 954 300 954 q 167 938 200 954 q 108 901 135 921 l 51 999 q 152 1051 100 1031 q 268 1071 204 1071 z "},"¼":{"ha":1222,"x_min":86,"x_max":1178,"o":"m 444 467 l 100 467 l 89 575 l 203 575 l 203 901 l 142 867 l 86 965 q 169 1013 128 989 q 251 1060 211 1036 l 344 1060 l 344 575 l 432 575 l 444 467 m 853 692 l 454 -6 l 289 0 l 686 696 l 853 692 m 1165 -110 l 1057 -110 l 1057 -228 l 915 -228 l 915 -110 l 628 -110 l 622 -62 q 618 -28 621 -46 q 614 4 615 -11 l 642 40 q 801 243 719 142 q 958 446 882 344 l 1057 446 l 1057 4 l 1178 4 l 1165 -110 m 760 4 l 915 4 l 915 203 l 760 4 z "},"½":{"ha":1279,"x_min":86,"x_max":1215,"o":"m 444 467 l 100 467 l 89 575 l 203 575 l 203 901 l 142 867 l 86 965 q 169 1013 128 989 q 251 1060 211 1036 l 344 1060 l 344 575 l 432 575 l 444 467 m 683 696 l 850 692 q 650 343 750 518 q 450 -6 550 168 l 285 0 l 683 696 m 975 450 q 1144 390 1092 450 q 1197 267 1197 331 q 1139 124 1197 186 q 956 -43 1081 61 l 1199 -43 l 1215 -153 l 768 -153 l 768 -51 l 965 113 q 1033 188 1011 151 q 1054 267 1054 224 q 1033 313 1054 290 q 968 336 1011 336 q 882 309 925 336 q 838 281 839 282 l 785 383 q 855 424 807 399 q 975 450 903 450 z "},"¾":{"ha":1250,"x_min":32,"x_max":1207,"o":"m 882 692 l 483 -6 l 315 0 l 715 696 l 882 692 m 267 1071 q 431 1017 376 1071 q 485 892 485 963 q 455 801 485 840 q 390 749 425 763 q 462 697 428 740 q 496 589 496 653 q 430 445 496 504 q 253 386 364 386 q 135 407 194 386 q 32 450 76 428 l 93 549 q 164 513 132 525 q 239 501 196 501 q 320 525 289 501 q 351 588 351 549 q 319 665 351 639 q 217 692 286 692 l 179 692 q 172 747 176 719 q 164 801 167 775 l 224 801 q 319 831 297 801 q 340 890 340 861 q 320 931 340 908 q 249 954 300 954 q 167 938 200 954 q 107 901 133 921 l 51 999 q 151 1050 99 1029 q 267 1071 203 1071 m 1194 -110 l 1086 -110 l 1086 -228 l 943 -228 l 943 -110 l 657 -110 l 644 -29 q 643 -12 644 -19 q 640 4 642 -4 l 671 40 l 988 446 l 1086 446 l 1086 4 l 1207 4 l 1194 -110 m 786 4 l 943 4 l 943 203 q 865 103 904 153 q 786 4 825 54 z "},"℮":{"ha":722,"x_min":39,"x_max":671,"o":"m 671 294 l 206 294 q 265 165 215 215 q 404 115 314 115 q 498 128 458 115 q 582 161 538 140 q 606 104 593 133 q 628 47 618 75 q 515 -1 583 14 q 404 -17 446 -17 q 135 80 231 -17 q 39 336 39 176 q 128 594 39 496 q 369 692 217 692 q 607 572 543 692 q 671 294 671 451 m 518 400 q 469 516 508 475 q 365 557 431 557 q 259 515 300 557 q 207 400 218 474 l 518 400 z "},"∂":{"ha":769,"x_min":50,"x_max":692,"o":"m 692 381 q 593 95 692 190 q 346 0 494 0 q 132 91 214 0 q 50 296 50 182 q 133 494 50 407 q 351 582 215 582 q 440 566 399 582 q 515 526 481 550 q 402 690 481 617 q 219 786 324 763 l 290 889 q 582 692 472 851 q 692 381 692 533 m 546 332 q 474 416 525 378 q 351 454 422 454 q 236 403 278 454 q 194 289 194 353 q 237 177 194 225 q 350 129 279 129 q 487 185 438 129 q 546 332 536 240 z "},"∏":{"ha":865,"x_min":100,"x_max":764,"o":"m 100 944 l 764 944 l 764 0 l 608 0 l 608 824 l 254 824 l 254 0 l 100 0 l 100 944 z "},"∑":{"ha":658,"x_min":36,"x_max":633,"o":"m 578 822 l 208 822 l 426 507 l 426 451 l 204 122 l 610 122 l 633 0 l 36 0 l 36 122 l 283 478 q 161 650 224 564 q 39 822 99 736 l 39 944 l 554 944 q 566 883 560 914 q 578 822 572 853 z "},"−":{"ha":625,"x_min":22,"x_max":603,"o":"m 603 318 l 35 318 l 22 442 l 588 442 l 603 318 z "},"√":{"ha":829,"x_min":8,"x_max":822,"o":"m 822 981 l 411 -6 l 243 0 l 8 440 l 169 446 l 322 165 l 664 986 l 822 981 z "},"∞":{"ha":1174,"x_min":54,"x_max":1119,"o":"m 981 361 q 936 472 981 425 q 819 518 892 518 q 710 457 754 518 q 646 328 665 396 l 639 299 q 715 217 668 249 q 819 183 763 185 q 936 237 892 183 q 981 361 981 290 m 193 339 q 238 228 193 275 q 354 181 282 181 q 464 242 419 181 q 528 372 508 304 l 535 403 q 458 483 507 451 q 354 515 410 514 q 238 463 282 515 q 193 339 193 410 m 351 646 q 487 613 424 646 q 597 525 550 581 q 691 612 635 576 q 819 647 747 647 q 1035 567 951 647 q 1119 358 1119 488 q 1035 142 1119 231 q 822 54 951 54 q 687 87 750 54 q 576 176 624 119 q 482 88 538 125 q 354 51 426 51 q 138 132 222 51 q 54 340 54 213 q 138 558 54 469 q 351 646 222 646 z "},"∫":{"ha":564,"x_min":10,"x_max":556,"o":"m 360 -12 q 300 -185 360 -121 q 128 -249 240 -249 q 63 -237 97 -249 q 10 -212 28 -226 l 51 -97 q 85 -108 69 -103 q 117 -112 100 -112 q 185 -79 167 -112 q 203 6 203 -46 l 203 853 q 263 1025 203 963 q 435 1088 322 1088 q 501 1077 467 1088 q 556 1051 535 1067 l 511 938 q 478 948 494 943 q 446 953 463 953 q 378 919 397 953 q 360 835 360 886 l 360 -12 z "},"≈":{"ha":699,"x_min":28,"x_max":669,"o":"m 492 531 q 527 544 507 532 q 550 592 547 556 q 619 577 569 586 q 669 556 669 568 q 603 431 669 458 q 483 404 536 404 q 354 433 429 404 q 208 463 279 463 q 169 450 192 463 q 146 403 147 438 l 28 428 q 94 561 28 533 q 215 589 160 589 q 347 560 263 589 q 492 531 431 531 m 492 261 q 527 274 507 263 q 550 322 547 286 q 619 308 569 317 q 669 286 669 299 q 603 160 669 188 q 483 133 536 133 q 354 163 429 133 q 208 192 279 192 q 169 179 192 192 q 146 133 147 167 l 28 158 q 94 292 28 263 q 215 321 160 321 q 347 291 263 321 q 492 261 431 261 z "},"≠":{"ha":682,"x_min":28,"x_max":654,"o":"m 575 718 l 501 554 l 642 554 l 654 436 l 450 436 l 379 274 l 642 274 l 654 156 l 325 156 l 246 -21 l 107 -14 l 182 156 l 42 156 l 28 274 l 233 274 l 308 436 l 42 436 l 28 554 l 358 554 l 433 722 l 575 718 z "},"≤":{"ha":479,"x_min":25,"x_max":451,"o":"m 421 153 l 25 375 l 25 475 l 421 699 l 451 568 l 197 426 l 451 282 l 421 153 m 447 0 l 36 0 l 26 111 l 440 111 l 447 0 z "},"≥":{"ha":479,"x_min":28,"x_max":454,"o":"m 454 375 l 58 153 l 28 282 l 281 426 l 28 568 l 58 699 l 454 475 l 454 375 m 450 0 l 38 0 l 28 111 l 440 111 l 450 0 z "},"‰":{"ha":1813,"x_min":43,"x_max":1769,"o":"m 922 981 l 504 -6 l 349 0 l 764 986 l 922 981 m 43 740 q 113 912 43 849 q 269 975 182 975 q 429 913 361 975 q 497 740 497 851 q 428 568 497 632 q 271 504 358 504 q 112 566 181 504 q 43 740 43 628 m 178 740 q 205 648 178 678 q 271 618 232 618 q 334 648 306 618 q 363 739 363 678 q 335 829 363 799 q 269 860 308 860 q 207 830 236 860 q 178 740 178 800 m 1315 235 q 1385 407 1315 344 q 1543 469 1454 469 q 1701 408 1632 469 q 1769 236 1769 347 q 1700 64 1769 128 q 1543 0 1631 0 q 1383 62 1451 0 q 1315 235 1315 124 m 776 235 q 846 407 776 344 q 1004 469 915 469 q 1162 408 1094 469 q 1229 236 1229 347 q 1160 64 1229 128 q 1004 0 1092 0 q 845 62 914 0 q 776 235 776 124 m 1450 236 q 1477 144 1450 174 q 1543 114 1504 114 q 1606 144 1578 114 q 1635 235 1635 174 q 1608 325 1635 294 q 1543 356 1581 356 q 1479 326 1508 356 q 1450 236 1450 296 m 911 236 q 938 144 911 174 q 1004 114 965 114 q 1067 144 1039 114 q 1096 235 1096 174 q 1068 325 1096 294 q 1004 356 1040 356 q 940 326 969 356 q 911 236 911 296 z "},"⁄":{"ha":594,"x_min":8,"x_max":588,"o":"m 588 981 l 168 -6 l 8 0 l 425 986 l 588 981 z "},"◊":{"ha":768,"x_min":32,"x_max":735,"o":"m 353 0 l 32 393 l 32 438 l 353 833 l 415 833 l 735 438 l 735 393 l 415 0 l 353 0 m 189 417 l 383 172 l 579 417 l 383 660 l 189 417 z "},"©":{"ha":1186,"x_min":65,"x_max":1121,"o":"m 1121 467 q 978 97 1121 250 q 593 -56 836 -56 q 208 97 350 -56 q 65 467 65 250 q 208 838 65 685 q 593 990 350 990 q 978 838 836 990 q 1121 467 1121 685 m 172 468 q 285 163 172 286 q 593 40 399 40 q 901 163 788 40 q 1014 468 1014 286 q 901 773 1014 650 q 593 896 788 896 q 285 773 399 896 q 172 468 172 650 m 619 660 q 504 608 544 660 q 464 471 464 556 q 503 328 464 379 q 618 276 542 276 q 703 288 669 276 q 779 321 736 300 l 822 206 q 717 158 779 172 q 617 143 656 143 q 385 232 468 143 q 303 469 303 321 q 390 705 303 615 q 618 794 478 794 q 719 779 657 794 q 825 733 781 764 l 781 615 q 705 648 739 636 q 619 660 671 660 z "},"®":{"ha":1032,"x_min":50,"x_max":982,"o":"m 982 676 q 856 350 982 483 q 515 217 731 217 q 176 350 301 217 q 50 676 50 483 q 176 1005 50 871 q 515 1139 301 1139 q 856 1005 731 1139 q 982 676 982 871 m 150 678 q 247 414 150 519 q 515 307 343 308 q 784 414 686 308 q 882 678 882 519 q 784 944 882 839 q 515 1049 686 1049 q 247 944 343 1049 q 150 678 150 839 m 493 851 l 446 851 l 446 717 l 493 717 q 574 729 542 717 q 606 783 606 742 q 575 840 606 829 q 493 851 544 851 m 750 422 l 624 422 q 575 524 599 474 q 528 626 551 575 q 508 626 518 626 q 489 625 499 625 l 446 625 l 446 422 l 333 422 l 333 944 l 524 944 q 665 907 607 944 q 724 788 724 869 q 697 701 724 736 q 633 649 671 667 q 692 535 663 592 q 750 422 722 478 z "},"™":{"ha":1079,"x_min":35,"x_max":1015,"o":"m 486 854 l 310 854 l 310 424 l 197 424 l 197 854 l 35 854 l 35 944 l 471 944 q 479 899 475 922 q 486 854 483 876 m 771 560 l 654 703 l 654 424 l 539 424 l 539 944 l 593 944 q 690 825 642 885 q 786 706 738 765 l 963 944 l 1015 944 l 1015 424 l 901 424 l 901 692 l 804 567 q 788 563 797 565 q 771 560 779 561 z "},"&":{"ha":950,"x_min":65,"x_max":917,"o":"m 229 303 q 291 166 229 208 q 431 124 353 124 q 528 140 483 124 q 606 186 572 156 l 347 422 l 301 464 q 249 392 267 433 q 229 303 231 350 m 639 775 q 554 813 597 794 q 447 831 511 831 q 356 796 389 831 q 324 714 324 761 q 354 623 324 665 q 447 525 385 581 l 686 306 q 717 403 706 349 q 733 519 729 457 l 871 464 q 850 322 867 389 q 806 199 833 256 l 917 100 l 825 -15 l 717 83 q 594 10 665 36 q 431 -17 524 -17 q 172 65 279 -15 q 65 301 65 144 q 105 453 65 381 q 204 574 144 525 q 174 634 185 600 q 164 707 164 668 q 240 889 164 811 q 447 967 317 967 q 578 946 515 967 q 693 900 640 925 l 639 775 z "},"@":{"ha":1119,"x_min":72,"x_max":1057,"o":"m 800 538 l 768 265 q 782 221 768 235 q 811 207 796 207 q 892 263 857 207 q 926 417 926 319 q 840 627 926 546 q 615 708 753 708 q 337 601 461 708 q 213 308 213 493 q 311 75 213 160 q 543 -10 410 -10 q 656 0 594 -10 q 774 39 718 10 q 793 -20 783 10 q 813 -79 803 -50 q 669 -127 742 -117 q 528 -137 597 -137 q 215 -16 357 -137 q 72 308 72 106 q 219 677 72 521 q 618 833 367 833 q 933 718 808 833 q 1057 425 1057 603 q 985 169 1057 256 q 803 83 914 83 q 743 94 772 83 q 692 122 714 104 q 635 97 668 108 q 571 85 603 85 q 388 147 447 85 q 329 306 329 208 q 426 515 329 438 q 647 593 524 593 l 756 593 q 778 565 767 579 q 800 538 790 551 m 568 207 q 614 224 594 207 q 639 265 633 240 q 640 284 639 274 q 642 304 640 294 l 665 478 l 649 478 q 523 433 578 478 q 468 306 468 388 q 491 238 468 269 q 568 207 514 207 z "},"^":{"ha":619,"x_min":15,"x_max":604,"o":"m 178 199 l 15 199 l 258 542 l 361 542 l 604 199 l 443 199 l 310 388 l 178 199 z "},"~":{"ha":606,"x_min":28,"x_max":576,"o":"m 576 461 q 528 301 576 349 q 413 254 479 254 q 296 278 343 254 q 207 303 249 303 q 181 292 194 303 q 165 250 167 281 l 28 250 q 77 409 28 363 q 192 456 126 456 q 309 431 264 456 q 394 406 354 406 q 423 417 408 406 q 439 461 438 429 l 576 461 z "},"§":{"ha":854,"x_min":61,"x_max":790,"o":"m 594 286 q 622 320 613 300 q 632 363 632 340 q 491 505 632 450 q 254 639 350 560 q 230 606 239 625 q 221 565 221 588 q 358 419 221 474 q 594 286 494 365 m 114 35 q 220 -6 154 15 q 349 -28 286 -28 q 489 5 442 -28 q 536 93 536 38 q 299 282 536 215 q 61 561 61 349 q 90 674 61 622 q 169 757 118 725 q 160 795 164 775 q 157 836 157 815 q 241 1013 157 942 q 475 1083 325 1083 q 611 1063 543 1083 q 731 1018 679 1042 q 706 955 718 986 q 679 893 693 924 q 588 931 636 913 q 476 949 540 949 q 360 920 406 949 q 315 838 315 892 q 553 639 315 706 q 790 365 790 572 q 763 253 790 304 q 682 167 735 201 q 693 130 689 149 q 697 90 697 111 q 606 -92 697 -19 q 350 -165 515 -165 q 199 -140 290 -165 q 78 -87 108 -115 l 114 35 z "},"ª":{"ha":474,"x_min":36,"x_max":415,"o":"m 156 656 q 167 626 156 639 q 201 614 178 614 q 252 624 228 614 q 296 651 276 633 l 296 699 l 225 699 q 174 688 192 699 q 156 656 156 678 m 61 935 q 137 963 86 951 q 218 975 188 975 q 358 926 300 975 q 415 808 415 878 l 415 515 l 350 515 l 321 554 q 265 520 299 536 q 197 504 232 504 q 77 545 118 504 q 36 649 36 586 q 83 755 36 717 q 206 793 131 793 l 293 793 q 272 846 293 828 q 219 864 250 864 q 149 854 185 864 q 89 835 114 844 q 75 884 82 858 q 61 935 68 910 z "},"¬":{"ha":710,"x_min":22,"x_max":681,"o":"m 681 494 l 681 156 l 547 163 l 547 440 l 33 440 l 22 564 l 669 564 l 681 494 z "},"¶":{"ha":1260,"x_min":61,"x_max":1215,"o":"m 478 0 l 478 338 l 440 338 q 176 412 292 338 q 61 646 61 486 q 167 876 61 807 q 425 944 274 944 l 1215 944 l 1215 821 l 1083 821 l 1083 0 l 925 0 l 925 821 l 636 821 l 636 0 l 478 0 z "},"º":{"ha":531,"x_min":36,"x_max":493,"o":"m 258 504 q 95 569 154 506 q 36 740 36 632 q 99 912 36 849 q 264 975 161 975 q 433 910 372 975 q 493 738 493 846 q 428 568 493 631 q 258 504 363 506 m 357 736 q 335 831 357 799 q 267 864 313 864 q 200 835 228 864 q 172 740 172 806 q 195 645 172 676 q 261 614 218 614 q 331 643 304 614 q 357 736 357 672 z "},"":{"ha":0,"x_min":24,"x_max":668,"o":"m 346 1450 q 527 1408 442 1450 q 668 1257 613 1365 q 610 1219 640 1239 q 551 1182 581 1200 q 455 1288 511 1258 q 346 1318 399 1318 q 234 1285 293 1318 q 140 1182 175 1253 l 24 1257 q 165 1408 79 1365 q 346 1450 250 1450 m 346 1053 q 276 1083 304 1053 q 247 1153 247 1113 q 276 1224 247 1196 q 346 1253 304 1253 q 417 1224 388 1253 q 446 1153 446 1196 q 417 1083 446 1113 q 346 1053 388 1053 z "},"ँ":{"ha":0,"x_min":24,"x_max":669,"o":"m 346 1250 q 276 1279 304 1250 q 247 1350 247 1308 q 276 1421 247 1392 q 346 1450 304 1450 q 417 1421 388 1450 q 446 1350 446 1392 q 417 1279 446 1308 q 346 1250 388 1250 m 551 1321 l 669 1247 q 528 1096 614 1139 q 346 1053 442 1053 q 165 1096 250 1053 q 24 1247 79 1139 l 142 1321 q 234 1217 175 1250 q 346 1183 293 1183 q 456 1215 400 1183 q 551 1321 511 1246 z "},"ं":{"ha":0,"x_min":24,"x_max":222,"o":"m 122 1063 q 52 1092 81 1063 q 24 1163 24 1121 q 52 1233 24 1204 q 122 1263 81 1263 q 194 1233 165 1263 q 222 1163 222 1204 q 194 1092 222 1121 q 122 1063 165 1063 z "},"ः":{"ha":269,"x_min":35,"x_max":235,"o":"m 135 544 q 63 573 92 544 q 35 643 35 601 q 63 713 35 683 q 135 742 92 742 q 206 713 176 742 q 235 643 235 683 q 206 573 235 601 q 135 544 176 544 m 135 65 q 63 93 92 65 q 35 164 35 121 q 63 234 35 204 q 135 264 92 264 q 206 234 176 264 q 235 164 235 204 q 206 93 235 121 q 135 65 176 65 z "},"ऄ":{"ha":1308,"x_min":88,"x_max":1324,"o":"m 736 265 q 642 61 736 143 q 388 -21 549 -21 q 225 1 304 -21 q 88 57 146 24 l 118 196 q 246 138 182 157 q 379 118 310 118 q 507 155 450 118 q 564 263 564 192 q 515 382 564 338 q 336 426 465 426 l 215 426 l 193 549 l 346 549 q 494 593 446 549 q 543 701 543 638 q 504 791 543 753 q 393 829 465 829 q 261 807 325 829 q 128 736 197 785 q 116 807 122 771 q 104 878 110 843 q 244 944 168 921 q 408 968 321 968 q 641 888 565 968 q 717 704 717 808 q 694 619 717 661 q 636 550 671 578 l 992 550 l 992 810 l 854 810 l 831 944 l 999 944 l 999 951 q 973 1024 999 997 q 896 1050 947 1050 l 819 1050 q 633 1105 704 1050 q 563 1244 563 1160 l 563 1294 l 714 1271 q 743 1207 714 1226 q 819 1188 772 1188 l 901 1188 q 1083 1130 1007 1188 q 1160 990 1160 1072 l 1160 944 l 1301 944 l 1324 810 l 1161 810 l 1161 -22 l 992 0 l 992 424 l 656 424 q 715 355 694 397 q 736 265 736 313 z "},"अ":{"ha":1308,"x_min":88,"x_max":1324,"o":"m 736 265 q 642 61 736 143 q 388 -21 549 -21 q 225 1 304 -21 q 88 57 146 24 l 118 196 q 246 138 182 157 q 379 118 310 118 q 508 154 451 118 q 564 263 564 190 q 515 382 564 338 q 336 426 465 426 l 215 426 l 193 549 l 346 549 q 494 593 446 549 q 543 701 543 638 q 504 791 543 753 q 393 829 465 829 q 261 807 325 829 q 128 736 197 785 q 116 807 122 771 q 104 878 110 843 q 244 944 168 921 q 408 968 321 968 q 641 888 565 968 q 717 704 717 808 q 694 619 717 661 q 636 550 671 578 l 992 550 l 992 810 l 854 810 l 831 944 l 1301 944 l 1324 810 l 1161 810 l 1161 -22 l 992 0 l 992 424 l 656 424 q 715 355 694 397 q 736 265 736 313 z "},"आ":{"ha":1751,"x_min":88,"x_max":1767,"o":"m 736 265 q 642 61 736 143 q 388 -21 549 -21 q 225 1 304 -21 q 88 57 146 24 l 118 196 q 246 138 182 157 q 379 118 310 118 q 508 154 451 118 q 564 263 564 190 q 515 382 564 338 q 336 426 465 426 l 215 426 l 193 549 l 346 549 q 494 593 446 549 q 543 701 543 638 q 504 791 543 753 q 393 829 465 829 q 261 807 325 829 q 128 736 197 785 q 116 807 122 771 q 104 878 110 843 q 244 944 168 921 q 408 968 321 968 q 641 888 565 968 q 717 704 717 808 q 694 619 717 661 q 636 550 671 578 l 992 550 l 992 810 l 854 810 l 831 944 l 1743 944 l 1767 810 l 1606 810 l 1606 -22 l 1433 0 l 1433 810 l 1161 810 l 1161 -22 l 992 0 l 992 424 l 656 424 q 715 355 694 397 q 736 265 736 313 z "},"इ":{"ha":772,"x_min":-15,"x_max":788,"o":"m 307 124 q 345 119 325 121 q 388 117 365 117 q 501 148 465 117 q 536 218 536 179 q 510 283 536 257 q 433 310 485 310 l 304 310 q 143 366 217 310 q 69 517 69 422 q 137 670 69 617 q 303 724 204 724 l 460 724 l 460 810 l 0 810 q -6 876 -3 843 q -15 944 -10 910 l 771 944 q 778 876 775 910 q 788 810 782 843 l 628 810 l 628 582 l 307 582 q 251 561 272 582 q 231 517 231 540 q 253 470 231 490 q 310 450 275 450 l 422 450 q 628 394 547 450 q 710 218 710 339 q 620 49 710 117 q 374 -19 531 -19 l 392 -44 q 444 -110 422 -83 q 481 -154 467 -137 q 424 -194 453 -174 q 368 -235 396 -214 l 193 -3 q 110 57 151 17 q 68 154 68 97 q 92 211 68 189 q 153 233 117 233 q 248 201 206 233 q 307 124 290 168 z "},"ई":{"ha":772,"x_min":-15,"x_max":788,"o":"m 307 124 q 345 119 325 121 q 388 117 365 117 q 502 149 464 118 q 540 218 540 179 q 513 281 540 253 q 433 310 485 310 l 304 310 q 143 366 217 310 q 69 517 69 422 q 137 670 69 617 q 303 724 204 724 l 460 724 l 460 810 l 0 810 q -6 876 -3 843 q -15 944 -10 910 l 433 944 q 390 1024 407 975 q 372 1115 372 1074 q 431 1264 372 1197 q 585 1331 489 1331 q 692 1307 644 1331 q 763 1261 740 1283 l 697 1150 q 658 1178 679 1165 q 608 1190 638 1190 q 548 1160 569 1190 q 526 1096 526 1131 q 548 1011 526 1051 q 594 944 569 971 l 771 944 q 778 876 775 910 q 788 810 782 843 l 628 810 l 628 582 l 307 582 q 252 563 274 582 q 231 517 231 543 q 253 470 231 490 q 310 450 275 450 l 422 450 q 628 394 547 450 q 710 218 710 339 q 620 49 710 118 q 374 -19 531 -19 q 382 -33 374 -25 q 393 -46 390 -42 l 481 -154 q 424 -194 453 -174 q 368 -235 396 -214 l 193 -3 q 111 57 151 17 q 71 156 71 97 q 94 212 71 190 q 153 233 117 233 q 248 201 206 233 q 307 124 290 168 z "},"उ":{"ha":828,"x_min":-15,"x_max":843,"o":"m 729 265 q 635 61 729 143 q 381 -21 542 -21 q 218 1 297 -21 q 82 57 139 24 l 113 196 q 240 138 176 157 q 372 118 303 118 q 501 154 446 118 q 556 263 556 190 q 506 382 556 338 q 329 426 457 426 l 208 426 q 197 488 203 457 q 186 549 192 518 l 339 549 q 488 593 439 549 q 538 701 538 638 q 520 765 538 736 q 469 810 503 793 l 7 810 q -4 876 1 843 q -15 944 -10 910 l 819 944 l 843 810 l 683 810 q 704 760 697 788 q 711 704 711 732 q 674 575 711 642 q 560 483 638 508 q 686 401 643 465 q 729 265 729 336 z "},"ऊ":{"ha":1222,"x_min":-15,"x_max":1238,"o":"m 683 810 q 703 760 696 788 q 711 704 711 732 q 674 576 711 642 q 560 483 636 510 q 605 468 583 478 q 643 444 626 458 q 739 509 678 479 q 876 539 800 539 q 1098 458 1021 539 q 1175 250 1175 376 q 1083 47 1175 121 q 865 -28 992 -28 l 835 111 q 964 151 917 111 q 1011 257 1011 192 q 973 359 1011 319 q 874 399 935 399 q 779 376 815 399 q 719 325 743 353 q 727 295 725 311 q 729 265 729 279 q 635 61 729 143 q 381 -21 542 -21 q 219 1 299 -21 q 81 58 140 24 l 113 197 q 240 138 176 157 q 372 118 303 118 q 500 155 444 118 q 556 263 556 192 q 507 382 556 338 q 329 426 458 426 l 208 426 l 186 550 l 339 550 q 488 594 439 550 q 538 703 538 639 q 519 765 538 736 q 469 810 501 793 l 7 810 l -15 944 l 1215 944 l 1238 810 l 683 810 z "},"ऋ":{"ha":1258,"x_min":-15,"x_max":1274,"o":"m 831 208 q 895 192 876 194 q 944 189 914 189 q 1010 213 983 189 q 1038 283 1038 236 q 1022 360 1038 318 q 972 450 1006 403 q 848 384 938 413 q 679 356 758 356 l 679 -22 l 508 0 l 508 268 l 208 89 q 162 152 185 119 q 115 215 139 185 l 467 424 q 359 503 406 483 q 269 524 313 524 q 202 511 244 524 q 114 476 160 499 l 49 619 q 159 657 92 640 q 253 674 226 674 q 372 661 308 674 q 508 586 436 649 l 508 810 l 7 810 q -4 876 1 843 q -15 944 -10 910 l 1251 944 l 1274 810 l 679 810 l 679 493 q 812 517 753 493 q 889 561 871 542 q 871 598 879 576 q 863 647 863 619 q 889 710 863 690 q 950 729 915 729 q 1049 698 999 729 q 1099 611 1099 667 q 1093 577 1099 593 q 1074 546 1088 561 q 1160 403 1133 478 q 1188 278 1188 329 q 1122 110 1188 169 q 951 50 1056 50 q 868 56 908 50 q 793 75 828 61 l 831 208 z "},"ऌ":{"ha":1196,"x_min":-15,"x_max":1211,"o":"m 863 0 q 887 -58 863 -35 q 953 -81 911 -81 q 993 -76 969 -81 q 1051 -62 1017 -72 l 1079 -196 q 1005 -209 1040 -206 q 939 -212 969 -212 q 786 -156 854 -212 q 718 0 718 -100 q 766 133 718 81 q 878 204 814 186 l 878 419 q 842 515 872 479 q 763 550 811 550 q 678 503 710 550 q 647 386 647 457 l 647 192 l 493 213 l 492 386 q 462 501 492 457 q 361 546 432 546 q 272 511 307 546 q 238 431 238 476 q 273 268 238 356 q 390 15 308 181 l 254 -32 q 130 226 175 121 q 85 440 85 332 q 167 614 85 539 q 361 690 249 689 q 476 668 422 689 q 567 608 531 647 q 653 669 601 649 q 764 690 706 690 q 824 682 793 690 q 878 660 856 674 l 878 810 l 7 810 l -15 944 l 1188 944 l 1211 810 l 1049 810 l 1049 81 l 953 81 q 887 58 911 81 q 863 0 863 35 z "},"ऍ":{"ha":1001,"x_min":-15,"x_max":1018,"o":"m 715 1322 l 832 1250 q 690 1097 776 1139 q 508 1056 604 1056 q 327 1098 413 1056 q 186 1250 242 1140 l 304 1322 q 397 1219 338 1251 q 508 1186 456 1186 q 618 1217 563 1186 q 715 1322 674 1247 m 688 381 l 688 810 l 317 810 l 317 224 q 328 154 317 189 q 378 96 340 119 l 729 -124 l 646 -251 l 289 -40 q 182 58 218 0 q 146 210 146 117 l 146 810 l 7 810 l -15 944 l 996 944 l 1018 810 l 858 810 l 858 351 q 798 192 858 251 q 610 90 738 132 l 538 218 q 653 278 617 246 q 688 381 689 311 z "},"ऎ":{"ha":1001,"x_min":-15,"x_max":1017,"o":"m 396 1188 l 588 1188 q 768 1130 692 1188 q 844 990 844 1072 l 844 944 l 996 944 l 1017 810 l 858 810 l 858 351 q 798 192 858 251 q 608 90 738 132 l 538 218 q 652 278 617 246 q 688 381 688 311 l 688 810 l 317 810 l 317 224 q 328 153 317 188 q 378 96 339 119 l 729 -124 q 688 -187 708 -154 q 644 -250 667 -219 q 494 -161 569 -206 q 343 -71 418 -117 q 195 39 244 -19 q 146 208 146 97 l 146 810 l 7 810 q -4 876 1 843 q -15 944 -10 910 l 685 944 l 685 951 q 657 1023 685 996 q 582 1050 629 1050 l 396 1050 q 208 1105 279 1050 q 138 1244 138 1160 l 138 1294 l 290 1271 q 319 1207 290 1226 q 396 1188 349 1188 z "},"ए":{"ha":1001,"x_min":-15,"x_max":1018,"o":"m 688 381 l 688 810 l 317 810 l 317 224 q 328 154 317 189 q 378 96 340 119 l 729 -124 l 646 -251 l 289 -40 q 182 58 218 0 q 146 210 146 117 l 146 810 l 7 810 l -15 944 l 996 944 l 1018 810 l 858 810 l 858 351 q 798 192 858 251 q 610 90 738 132 l 538 218 q 653 278 617 246 q 688 381 689 311 z "},"ऐ":{"ha":1001,"x_min":-15,"x_max":1018,"o":"m 688 381 l 688 810 l 317 810 l 317 224 q 328 154 317 189 q 378 96 340 119 l 729 -124 l 646 -251 l 289 -40 q 182 58 218 0 q 146 210 146 117 l 146 810 l 7 810 l -15 944 l 629 944 l 314 1235 l 440 1332 l 831 944 l 996 944 l 1018 810 l 858 810 l 858 351 q 798 192 858 251 q 610 90 738 132 l 538 218 q 653 278 617 246 q 688 381 689 311 z "},"ऑ":{"ha":1751,"x_min":88,"x_max":1767,"o":"m 1507 1321 l 1625 1249 q 1484 1097 1569 1139 q 1303 1056 1399 1056 q 1121 1098 1207 1056 q 979 1249 1035 1140 q 1038 1285 1008 1267 q 1096 1321 1067 1303 q 1190 1218 1131 1250 q 1303 1186 1250 1186 q 1408 1216 1350 1186 q 1507 1321 1467 1246 m 736 265 q 642 61 736 143 q 388 -21 549 -21 q 225 1 304 -21 q 88 57 146 24 l 118 196 q 246 138 182 157 q 379 118 310 118 q 508 154 451 118 q 564 263 564 190 q 515 382 564 338 q 336 426 465 426 l 215 426 l 193 549 l 346 549 q 494 593 446 549 q 543 701 543 638 q 504 791 543 753 q 393 829 465 829 q 261 807 325 829 q 128 736 197 785 q 116 807 122 771 q 104 878 110 843 q 244 944 168 921 q 408 968 321 968 q 641 888 565 968 q 717 704 717 808 q 694 619 717 661 q 636 550 671 578 l 992 550 l 992 810 l 854 810 l 831 944 l 1743 944 l 1767 810 l 1606 810 l 1606 -22 l 1433 0 l 1433 810 l 1161 810 l 1161 -22 l 992 0 l 992 424 l 656 424 q 715 355 694 397 q 736 265 736 313 z "},"ऒ":{"ha":1751,"x_min":88,"x_max":1767,"o":"m 1182 1188 l 1339 1188 q 1519 1130 1443 1188 q 1594 990 1594 1072 l 1594 944 l 1743 944 l 1767 810 l 1606 810 l 1606 -22 l 1433 0 l 1433 810 l 1161 810 l 1161 -22 l 992 0 l 992 424 l 656 424 q 715 353 694 397 q 736 263 736 310 q 642 60 736 140 q 388 -21 549 -21 q 225 1 304 -21 q 88 57 146 24 l 118 196 q 246 138 182 157 q 379 118 310 118 q 508 153 451 118 q 564 260 564 189 q 515 381 564 335 q 336 426 465 426 l 215 426 l 193 549 l 346 549 q 494 592 446 549 q 543 700 543 636 q 504 790 543 750 q 393 829 465 829 q 261 807 325 829 q 128 736 197 785 q 116 807 122 771 q 104 878 110 843 q 244 944 168 921 q 408 968 321 968 q 641 888 565 968 q 717 703 717 807 q 694 619 717 660 q 636 550 671 578 l 992 550 l 992 810 l 854 810 l 831 944 l 1436 944 l 1436 951 q 1410 1024 1436 997 q 1332 1050 1383 1050 l 1183 1050 q 996 1105 1067 1050 q 925 1244 925 1160 l 925 1294 l 1079 1271 q 1107 1207 1079 1226 q 1182 1188 1135 1188 z "},"ओ":{"ha":1751,"x_min":88,"x_max":1767,"o":"m 831 944 l 1376 944 q 1219 1089 1297 1015 q 1061 1235 1140 1163 l 1188 1332 l 1579 944 l 1743 944 l 1767 810 l 1606 810 l 1606 -22 l 1433 0 l 1433 810 l 1161 810 l 1161 -22 l 992 0 l 992 424 l 656 424 q 715 355 694 397 q 736 265 736 313 q 642 61 736 143 q 388 -21 549 -21 q 225 1 304 -21 q 88 57 146 24 l 118 196 q 246 138 182 157 q 379 118 310 118 q 508 154 451 118 q 564 263 564 190 q 515 382 564 338 q 336 426 465 426 l 215 426 l 193 549 l 346 549 q 493 595 446 549 q 540 706 540 642 q 504 791 540 753 q 393 829 468 829 q 261 807 325 829 q 128 736 197 785 q 116 807 122 771 q 104 878 110 843 q 244 944 168 921 q 408 968 321 968 q 640 888 565 968 q 714 704 714 808 q 692 621 714 663 q 636 550 671 579 l 992 550 l 992 810 l 854 810 l 831 944 z "},"औ":{"ha":1751,"x_min":88,"x_max":1767,"o":"m 1581 944 l 1743 944 l 1767 810 l 1606 810 l 1606 -22 l 1433 0 l 1433 810 l 1161 810 l 1161 -22 l 992 0 l 992 424 l 656 424 q 715 355 694 397 q 736 265 736 313 q 642 61 736 143 q 388 -21 549 -21 q 225 1 304 -21 q 88 57 146 24 l 118 196 q 246 138 182 157 q 379 118 310 118 q 508 154 451 118 q 564 263 564 190 q 515 382 564 338 q 336 426 465 426 l 215 426 l 193 549 l 346 549 q 494 593 446 549 q 543 701 543 638 q 504 791 543 753 q 393 829 465 829 q 261 807 325 829 q 128 736 197 785 q 116 807 122 771 q 104 878 110 843 q 244 944 168 921 q 408 968 321 968 q 641 888 565 968 q 717 704 717 808 q 694 619 717 661 q 636 550 671 578 l 992 550 l 992 810 l 854 810 l 831 944 l 1422 944 q 1320 1028 1358 1008 q 1211 1047 1282 1047 l 1078 1047 l 1044 1193 l 1204 1193 q 1300 1184 1256 1193 q 1389 1140 1344 1175 l 1314 1367 l 1471 1413 q 1526 1178 1499 1296 q 1581 944 1553 1061 z "},"क":{"ha":1257,"x_min":-15,"x_max":1272,"o":"m 381 97 q 151 182 240 97 q 61 396 61 267 q 149 608 61 522 q 381 694 236 694 q 475 676 425 694 q 547 632 525 657 l 547 810 l 7 810 l -15 944 l 1251 944 l 1272 810 l 718 810 l 718 633 q 789 676 740 656 q 885 696 838 696 q 1117 609 1029 696 q 1206 396 1206 522 q 1104 176 1206 256 q 876 97 1003 97 l 849 238 q 985 282 931 238 q 1039 397 1039 326 q 994 510 1039 465 q 888 554 949 554 q 778 522 817 554 q 718 460 739 490 l 718 -22 l 547 0 l 547 160 q 475 116 525 135 q 381 97 425 97 m 225 394 q 274 282 225 326 q 386 238 324 238 q 485 267 446 238 q 547 326 525 296 l 547 464 q 485 524 525 496 q 386 553 446 553 q 276 509 325 553 q 225 394 226 465 z "},"ख":{"ha":1311,"x_min":-15,"x_max":1326,"o":"m 592 456 q 671 645 592 568 q 879 722 750 722 q 940 716 910 722 q 994 697 969 710 l 994 810 l 482 810 q 510 728 500 772 q 519 644 519 683 q 463 469 519 547 q 317 357 407 390 q 414 200 335 283 q 633 117 493 117 q 766 144 704 117 q 867 210 828 171 q 847 208 857 208 q 826 207 836 207 q 658 282 725 207 q 592 456 592 357 m 765 457 q 800 366 765 397 q 879 335 835 335 q 959 367 925 335 q 993 456 993 399 l 993 458 q 957 547 992 515 q 879 579 922 579 q 800 547 835 579 q 765 457 765 514 m 1165 -22 l 994 0 l 994 106 q 832 11 926 46 q 633 -24 738 -24 q 300 92 421 -24 q 154 338 179 208 q 79 346 111 338 q 42 392 47 354 q 95 513 42 451 q 213 575 149 575 q 249 548 235 575 q 274 494 264 521 q 335 552 308 511 q 361 644 361 593 q 344 738 361 692 q 300 810 328 783 l 7 810 q -4 876 1 843 q -15 944 -10 910 l 1306 944 l 1326 810 l 1165 810 l 1165 -22 z "},"ग":{"ha":940,"x_min":-15,"x_max":954,"o":"m 622 0 l 622 810 l 346 810 l 346 300 q 328 232 346 257 q 276 207 311 207 q 141 271 203 207 q 79 392 79 335 q 110 440 79 422 q 175 457 140 457 l 175 810 l 7 810 q -4 876 1 843 q -15 944 -10 910 l 932 944 l 954 810 l 793 810 l 793 -22 l 622 0 z "},"घ":{"ha":988,"x_min":-15,"x_max":1003,"o":"m 671 0 l 671 214 q 556 136 626 171 q 397 101 485 101 q 174 176 257 101 q 92 367 92 250 q 116 481 92 429 q 186 560 140 532 q 128 635 150 588 q 107 735 107 683 q 113 771 107 750 q 126 810 118 792 l 7 810 l -15 944 l 979 944 l 1003 810 l 842 810 l 842 -22 l 671 0 m 261 364 q 301 282 261 313 q 401 251 342 251 q 581 322 504 251 q 671 531 657 393 l 671 810 l 311 810 q 280 778 290 800 q 269 732 269 756 q 306 653 269 685 q 410 621 342 621 l 474 621 l 501 490 l 419 490 q 299 453 338 490 q 261 364 261 415 z "},"ङ":{"ha":896,"x_min":-15,"x_max":911,"o":"m 799 404 q 728 433 757 404 q 700 503 700 463 q 728 574 700 544 q 799 603 757 603 q 871 574 842 603 q 900 503 900 544 q 871 433 900 463 q 799 404 842 404 m 106 190 q 235 133 169 150 q 371 117 300 117 q 478 145 443 117 q 514 213 514 174 q 490 279 514 249 q 411 310 465 310 l 300 310 q 138 366 213 310 q 64 517 64 422 q 131 670 64 617 q 297 724 199 724 l 463 724 l 463 810 l 7 810 q -4 876 1 843 q -15 944 -10 910 l 889 944 q 900 876 894 910 q 911 810 906 843 l 618 810 l 618 582 l 303 582 q 247 561 269 582 q 225 517 225 540 q 260 464 225 478 q 343 450 296 450 l 397 450 q 615 397 531 450 q 699 218 699 343 q 616 51 699 125 q 379 -22 533 -22 q 215 -2 297 -22 q 76 51 132 18 l 106 190 z "},"च":{"ha":1000,"x_min":-15,"x_max":1015,"o":"m 685 0 l 685 146 q 601 117 650 128 q 506 106 551 106 q 276 176 372 106 q 181 383 181 247 q 192 458 181 424 q 221 519 203 492 l 71 519 l 50 654 l 544 654 l 567 519 l 515 519 q 381 482 425 518 q 338 383 338 446 q 386 283 338 319 q 506 247 435 247 q 618 279 565 247 q 685 363 671 311 l 685 810 l 7 810 l -15 944 l 993 944 l 1015 810 l 854 810 l 854 -22 l 685 0 z "},"छ":{"ha":1143,"x_min":-15,"x_max":1158,"o":"m 1074 531 q 923 170 1074 361 q 490 -21 772 -21 q 208 56 315 -21 q 100 265 100 132 q 144 401 100 336 q 269 485 188 467 q 156 577 193 511 q 119 704 119 643 q 126 760 119 733 q 146 810 133 788 l 7 810 q -4 876 1 843 q -15 944 -10 910 l 1136 944 l 1158 810 l 939 810 l 939 740 q 1040 653 1006 713 q 1074 531 1074 594 m 274 271 q 341 158 274 197 q 500 118 408 118 q 705 174 618 118 q 831 303 792 231 q 692 380 751 318 q 632 531 632 442 q 678 674 632 613 q 797 751 724 736 l 797 810 l 360 810 q 310 765 328 793 q 293 703 293 738 q 342 595 293 639 q 490 551 390 551 l 521 551 q 532 490 526 521 q 543 428 538 458 l 501 428 q 329 387 385 428 q 274 271 274 346 m 901 417 q 922 465 914 438 q 929 522 929 493 q 911 592 929 561 q 849 624 893 624 q 794 597 814 624 q 774 531 774 569 q 814 449 774 481 q 901 417 854 418 z "},"ज":{"ha":1110,"x_min":-15,"x_max":1126,"o":"m 794 513 l 607 513 q 631 453 621 486 q 640 381 640 419 q 538 154 640 225 q 311 83 436 83 q 150 112 226 83 q 21 175 74 140 l 51 328 q 179 253 114 281 q 306 224 244 225 q 431 267 385 224 q 478 374 478 311 q 442 473 478 433 q 326 513 406 513 l 243 513 l 221 647 l 794 647 l 794 810 l 7 810 q -4 876 1 843 q -15 944 -10 910 l 1103 944 l 1126 810 l 963 810 l 963 -22 l 794 0 l 794 513 z "},"झ":{"ha":1224,"x_min":-15,"x_max":1240,"o":"m 907 810 l 628 810 l 628 582 l 307 582 q 251 563 272 582 q 231 517 231 543 q 253 470 231 490 q 310 450 275 450 l 422 450 q 556 431 497 450 q 654 374 615 413 l 907 374 l 907 810 m 307 124 q 345 119 325 121 q 388 117 365 117 q 499 148 461 117 q 536 218 536 179 q 510 283 536 257 q 433 310 485 310 l 304 310 q 143 366 217 310 q 69 517 69 422 q 137 670 69 617 q 303 724 204 724 l 460 724 l 460 810 l 7 810 q -4 876 1 843 q -15 944 -10 910 l 1217 944 l 1240 810 l 1078 810 l 1078 -22 l 907 0 l 907 247 l 706 247 q 708 233 707 240 q 710 218 710 225 q 646 70 710 136 q 467 -14 582 4 q 421 -18 444 -17 q 374 -21 397 -19 l 481 -154 q 424 -194 453 -174 q 368 -235 396 -214 l 193 -3 q 110 57 151 17 q 68 154 68 97 q 92 211 68 189 q 153 233 117 233 q 248 201 206 233 q 307 124 290 168 z "},"ञ":{"ha":1096,"x_min":-15,"x_max":1111,"o":"m 51 343 q 168 269 101 297 q 306 240 235 240 q 422 285 376 240 q 468 404 468 329 q 423 522 468 478 q 307 567 378 567 q 236 561 276 567 q 157 544 196 556 l 119 676 q 219 701 171 694 q 311 708 268 708 q 513 648 428 708 q 618 467 597 588 l 779 467 l 779 810 l 7 810 l -15 944 l 1090 944 l 1111 810 l 949 810 l 949 -22 l 779 0 l 779 331 l 617 331 q 512 157 596 215 q 311 99 428 99 q 151 127 226 99 q 21 192 75 156 l 51 343 z "},"ट":{"ha":894,"x_min":-15,"x_max":908,"o":"m 236 329 q 322 164 236 208 q 507 119 407 119 q 644 137 572 119 q 790 210 715 154 l 813 54 q 671 -5 753 15 q 507 -25 589 -25 q 211 55 344 -25 q 78 329 78 135 q 210 595 78 506 q 522 685 343 685 l 544 685 l 544 810 l 7 810 q -4 876 1 843 q -15 944 -10 910 l 888 944 l 908 810 l 715 810 l 715 543 l 522 543 q 319 485 401 543 q 236 329 236 428 z "},"ठ":{"ha":994,"x_min":-15,"x_max":1011,"o":"m 500 -25 q 208 55 339 -24 q 78 328 78 133 q 174 568 78 481 q 415 676 271 656 l 415 810 l 7 810 l -15 944 l 988 944 l 1011 810 l 586 810 l 586 675 q 824 578 724 657 q 925 331 925 499 q 799 65 925 153 q 500 -25 674 -24 m 765 331 q 683 494 765 451 q 500 538 601 538 q 310 483 385 538 q 236 328 236 428 q 318 163 236 207 q 500 119 400 119 q 691 175 617 119 q 765 331 765 231 z "},"ड":{"ha":746,"x_min":-15,"x_max":761,"o":"m 106 190 q 235 133 169 150 q 371 117 300 117 q 485 148 444 117 q 525 218 525 179 q 500 283 525 257 q 424 310 475 310 l 300 310 q 138 366 213 310 q 64 517 64 422 q 131 670 64 617 q 297 724 199 724 l 463 724 l 463 810 l 7 810 q -4 876 1 843 q -15 944 -10 910 l 738 944 l 761 810 l 618 810 l 618 582 l 303 582 q 247 561 269 582 q 225 517 225 540 q 247 470 225 490 q 304 450 269 450 l 411 450 q 618 394 538 450 q 699 218 699 339 q 616 51 699 125 q 379 -22 533 -22 q 215 -2 297 -22 q 76 51 132 18 l 106 190 z "},"ढ":{"ha":882,"x_min":-15,"x_max":899,"o":"m 715 810 l 715 714 q 716 636 715 675 q 717 558 717 597 l 522 558 q 319 501 401 558 q 236 339 236 443 q 293 190 236 244 q 421 119 350 135 q 394 165 403 136 q 386 217 386 193 q 448 367 386 304 q 601 431 510 431 q 759 375 697 431 q 821 226 821 319 q 733 48 821 121 q 504 -25 644 -25 q 217 55 356 -25 q 78 338 78 135 q 210 607 78 513 q 522 701 343 701 l 544 701 l 544 810 l 7 810 q -4 876 1 843 q -15 944 -10 910 l 876 944 l 899 810 l 715 810 m 608 289 q 556 270 578 289 q 533 214 533 251 q 546 163 533 188 q 582 122 558 139 q 653 162 628 131 q 679 224 679 193 q 660 271 679 253 q 608 289 640 289 z "},"ण":{"ha":1288,"x_min":-15,"x_max":1303,"o":"m 726 501 q 641 280 726 358 q 426 201 556 201 q 213 281 299 203 q 126 501 126 358 l 126 810 l 7 810 q -4 876 1 843 q -15 944 -10 910 l 1281 944 q 1292 876 1286 910 q 1303 810 1297 843 l 1140 810 l 1140 -22 l 969 0 l 969 810 l 726 810 l 726 501 m 297 810 l 297 501 q 331 387 297 429 q 428 344 364 344 q 522 387 489 344 q 556 501 556 429 l 556 810 l 297 810 z "},"त":{"ha":954,"x_min":-15,"x_max":969,"o":"m 639 0 l 639 511 l 392 511 q 285 485 321 511 q 249 407 249 458 q 307 244 249 343 q 449 17 365 144 l 296 -29 q 153 192 225 72 q 81 413 81 313 q 147 581 81 513 q 335 649 214 649 l 639 649 l 639 810 l 7 810 l -15 944 l 949 944 l 969 810 l 810 810 l 810 -22 l 639 0 z "},"थ":{"ha":976,"x_min":63,"x_max":992,"o":"m 333 717 q 292 676 325 693 q 221 658 260 658 q 110 697 158 658 q 63 801 63 735 q 115 921 63 874 q 251 968 168 968 q 408 898 342 968 q 475 724 475 828 q 422 548 475 604 q 310 457 369 492 q 371 392 328 422 q 482 361 414 361 q 596 395 546 361 q 657 489 646 429 q 659 525 658 507 q 660 563 660 543 l 660 810 l 546 810 q 535 876 540 843 q 524 944 529 910 l 969 944 q 981 876 975 910 q 992 810 986 843 l 831 810 l 831 -22 l 660 0 l 660 267 q 584 232 626 246 q 476 218 542 218 q 245 303 349 218 q 142 500 142 389 q 158 522 150 511 q 175 542 167 532 q 283 606 240 563 q 333 717 325 650 m 283 821 q 265 844 278 832 q 236 856 251 856 q 200 842 215 856 q 185 807 185 829 q 198 777 185 789 q 226 765 211 765 q 267 781 253 765 q 283 821 282 797 z "},"द":{"ha":861,"x_min":-15,"x_max":875,"o":"m 803 -4 l 668 -60 q 624 24 646 -18 q 579 106 601 65 q 517 97 547 100 q 465 93 488 93 q 181 173 293 93 q 68 415 68 253 q 187 652 68 576 q 481 728 306 728 l 500 728 l 500 810 l 7 810 q -4 876 1 843 q -15 944 -10 910 l 854 944 l 875 810 l 671 810 l 671 590 l 531 590 q 314 553 401 590 q 226 415 226 515 q 295 283 226 329 q 465 238 364 238 q 490 238 476 238 q 519 240 504 239 q 517 256 518 247 q 517 271 517 264 q 545 335 517 317 q 618 353 574 353 q 703 326 654 353 q 753 251 753 299 q 741 203 753 229 q 708 154 729 176 q 756 74 731 115 q 803 -4 781 32 z "},"ध":{"ha":1047,"x_min":86,"x_max":1063,"o":"m 364 815 q 300 790 331 815 q 269 728 269 765 q 306 650 269 681 q 411 619 343 619 l 457 619 q 479 555 467 588 q 503 490 492 522 l 419 490 q 297 456 339 490 q 256 364 256 421 q 304 278 256 311 q 432 246 353 246 q 633 326 542 246 q 729 556 724 407 q 730 595 729 575 q 731 636 731 615 l 731 810 l 611 810 l 589 944 l 1040 944 l 1063 810 l 901 810 l 901 -22 l 731 0 l 731 218 q 613 133 688 172 q 429 94 539 94 q 171 175 256 94 q 86 367 86 256 q 119 483 86 428 q 199 560 151 539 q 133 633 160 582 q 107 735 107 683 q 176 894 107 824 q 358 964 244 964 q 470 940 425 964 q 540 889 515 915 l 461 779 q 415 808 439 800 q 364 815 392 815 z "},"न":{"ha":900,"x_min":-15,"x_max":915,"o":"m 583 396 l 293 396 q 275 321 293 354 q 231 288 257 288 q 108 338 171 288 q 44 457 44 389 q 68 510 44 492 q 132 529 92 529 l 583 529 l 583 810 l 7 810 q -4 876 1 843 q -15 944 -10 910 l 894 944 l 915 810 l 754 810 l 754 -22 l 583 0 l 583 396 z "},"ऩ":{"ha":900,"x_min":-15,"x_max":915,"o":"m 583 396 l 293 396 q 275 321 293 354 q 231 288 257 288 q 108 338 171 288 q 44 457 44 389 q 68 510 44 492 q 132 529 92 529 l 583 529 l 583 810 l 7 810 q -4 876 1 843 q -15 944 -10 910 l 894 944 l 915 810 l 754 810 l 754 -22 l 583 0 l 583 396 m 243 -87 q 173 -58 201 -87 q 144 11 144 -29 q 173 81 144 51 q 243 110 201 110 q 314 81 285 110 q 343 11 343 51 q 314 -58 343 -29 q 243 -87 285 -87 z "},"प":{"ha":933,"x_min":-15,"x_max":949,"o":"m 617 0 l 617 267 q 535 233 585 246 q 439 219 485 219 q 207 300 301 219 q 113 524 113 381 l 113 810 l 7 810 l -15 944 l 926 944 l 949 810 l 788 810 l 788 -22 l 617 0 m 285 524 q 326 406 285 449 q 446 363 367 363 q 562 400 514 363 q 617 506 610 438 l 617 810 l 285 810 l 285 524 z "},"फ":{"ha":1325,"x_min":-15,"x_max":1342,"o":"m 617 504 l 617 810 l 283 810 l 283 524 q 325 405 283 449 q 446 361 367 361 q 561 399 514 361 q 617 504 608 438 m 917 232 q 1054 276 1000 232 q 1108 390 1108 321 q 1063 503 1108 460 q 957 547 1018 547 q 848 516 886 547 q 788 454 810 485 l 788 -22 l 617 0 l 617 267 q 534 232 583 246 q 439 218 485 218 q 207 299 301 218 q 113 524 113 381 l 113 810 l 7 810 q -4 876 1 843 q -15 944 -10 910 l 1319 944 q 1331 876 1325 910 q 1342 810 1336 843 l 788 810 l 788 633 q 863 672 817 656 q 953 689 910 689 q 1185 603 1097 689 q 1274 389 1274 517 q 1172 170 1274 250 q 944 90 1071 90 l 917 232 z "},"ब":{"ha":875,"x_min":-15,"x_max":885,"o":"m 553 0 l 553 150 q 476 110 522 126 q 386 94 431 94 q 153 180 246 94 q 60 394 60 265 q 151 610 60 522 q 386 697 242 697 q 476 681 431 697 q 553 643 522 665 l 553 810 l 7 810 q -4 876 1 843 q -15 944 -10 910 l 863 944 l 885 810 l 724 810 l 724 -22 l 553 0 m 553 463 q 491 526 531 494 q 382 558 451 558 q 352 555 367 558 q 324 543 338 551 l 535 304 q 544 317 540 310 q 553 329 549 324 l 553 463 m 257 493 q 234 449 243 474 q 225 396 225 425 q 272 281 225 326 q 382 235 318 235 q 431 239 408 235 q 471 251 454 243 l 257 493 z "},"भ":{"ha":1069,"x_min":58,"x_max":1085,"o":"m 193 792 q 210 756 193 768 q 246 743 226 743 q 275 750 260 743 q 297 767 290 757 q 282 820 297 799 q 243 842 267 842 q 207 827 221 842 q 193 792 193 813 m 753 0 l 753 315 l 454 315 q 430 235 454 264 q 386 207 406 207 q 255 255 317 207 q 193 374 193 303 q 224 426 193 403 q 293 447 256 450 l 290 632 q 264 626 278 626 q 240 625 250 625 q 110 675 161 625 q 58 800 58 725 q 115 922 58 875 q 244 968 171 968 q 399 902 343 968 q 456 728 456 836 l 456 447 l 753 447 l 753 810 l 611 810 q 599 876 606 843 q 588 944 593 910 l 1063 944 l 1085 810 l 924 810 l 924 -22 l 753 0 z "},"म":{"ha":946,"x_min":-15,"x_max":961,"o":"m 629 315 l 324 315 q 310 244 324 281 q 253 207 297 207 q 122 255 183 207 q 61 374 61 303 q 86 425 61 403 q 158 447 111 447 l 158 810 l 7 810 q -4 876 1 843 q -15 944 -10 910 l 939 944 q 950 876 944 910 q 961 810 956 843 l 800 810 l 800 -22 l 629 0 l 629 315 m 629 810 l 324 810 l 324 447 l 629 447 l 629 810 z "},"य":{"ha":908,"x_min":-15,"x_max":924,"o":"m 75 500 q 147 564 99 526 q 196 692 196 601 q 174 765 196 733 q 118 810 151 797 l 7 810 q -4 876 1 843 q -15 944 -10 910 l 903 944 l 924 810 l 763 810 l 763 -22 l 592 0 l 592 265 q 516 232 560 246 q 407 218 472 218 q 178 303 281 218 q 75 500 75 389 m 592 810 l 315 810 q 339 753 329 788 q 349 683 349 719 q 322 563 349 619 q 238 467 294 506 q 297 397 254 432 q 413 361 340 361 q 533 400 482 361 q 592 507 585 439 l 592 810 z "},"र":{"ha":636,"x_min":-15,"x_max":651,"o":"m 383 -28 q 278 154 331 63 q 174 338 226 246 q 92 345 126 338 q 51 392 57 353 q 101 513 51 451 q 211 575 150 575 q 251 546 232 575 q 278 492 269 517 q 347 555 322 513 q 372 647 372 597 q 356 740 372 696 q 311 810 339 783 l 7 810 q -4 876 1 843 q -15 944 -10 910 l 629 944 l 651 810 l 494 810 q 522 728 513 772 q 532 644 532 683 q 476 468 532 547 q 328 357 419 389 l 544 13 q 464 -8 504 3 q 383 -28 424 -18 z "},"ऱ":{"ha":636,"x_min":-15,"x_max":651,"o":"m 383 -28 q 278 154 331 63 q 174 338 226 246 q 92 345 126 338 q 51 392 57 353 q 101 513 51 451 q 211 575 150 575 q 251 546 232 575 q 278 492 269 517 q 347 555 322 513 q 372 647 372 597 q 356 740 372 696 q 311 810 339 783 l 7 810 q -4 876 1 843 q -15 944 -10 910 l 629 944 l 651 810 l 494 810 q 522 728 513 772 q 532 644 532 683 q 476 468 532 547 q 328 357 419 389 l 544 13 q 464 -8 504 3 q 383 -28 424 -18 m 119 -87 q 49 -58 78 -87 q 21 11 21 -29 q 49 81 21 51 q 119 110 78 110 q 190 81 161 110 q 219 11 219 51 q 190 -58 219 -29 q 119 -87 161 -87 z "},"ल":{"ha":1196,"x_min":-15,"x_max":1211,"o":"m 878 0 l 878 419 q 842 515 872 479 q 763 550 811 550 q 678 503 710 550 q 647 386 647 457 l 647 192 l 493 213 l 492 386 q 462 501 492 457 q 361 546 432 546 q 272 511 307 546 q 238 431 238 476 q 273 268 238 356 q 390 15 308 181 l 254 -32 q 130 226 175 121 q 85 440 85 332 q 167 614 85 539 q 361 690 249 689 q 476 668 422 689 q 567 608 531 647 q 653 669 601 649 q 764 690 706 690 q 824 682 793 690 q 878 660 856 674 l 878 810 l 7 810 l -15 944 l 1188 944 l 1211 810 l 1049 810 l 1049 -22 l 878 0 z "},"ळ":{"ha":1265,"x_min":-15,"x_max":1281,"o":"m 1064 393 q 1017 514 1064 463 q 890 565 969 565 q 773 498 818 565 q 706 357 728 431 l 696 325 q 780 234 726 269 q 890 199 833 199 q 1015 256 967 199 q 1064 393 1064 314 m 213 368 q 260 248 213 299 q 386 197 308 197 q 506 265 458 197 q 576 403 554 332 q 580 419 576 406 q 585 435 583 432 q 501 524 554 490 q 386 560 449 558 q 260 502 308 560 q 213 368 213 444 m 383 701 q 531 667 463 701 q 651 572 600 632 q 717 643 678 611 q 806 690 756 675 l 806 810 l 7 810 l -15 944 l 1260 944 l 1281 810 l 976 810 l 976 694 q 1149 589 1082 671 q 1215 390 1215 507 q 1123 156 1215 253 q 893 60 1031 60 q 747 94 814 60 q 628 190 679 128 q 526 96 588 135 q 386 57 465 57 q 153 144 244 57 q 63 371 63 231 q 153 605 63 508 q 383 701 243 701 z "},"ऴ":{"ha":1265,"x_min":-15,"x_max":1281,"o":"m 1064 393 q 1017 514 1064 463 q 890 565 969 565 q 773 498 818 565 q 706 357 728 431 l 696 325 q 780 234 726 269 q 890 199 833 199 q 1015 256 967 199 q 1064 393 1064 314 m 213 368 q 260 248 213 299 q 386 197 308 197 q 506 265 458 197 q 576 403 554 332 q 580 419 576 406 q 585 435 583 432 q 501 524 554 490 q 386 560 449 558 q 260 502 308 560 q 213 368 213 444 m 383 701 q 531 667 463 701 q 651 572 600 632 q 717 643 678 611 q 806 690 756 675 l 806 810 l 7 810 l -15 944 l 1260 944 l 1281 810 l 976 810 l 976 694 q 1149 589 1082 671 q 1215 390 1215 507 q 1123 156 1215 253 q 893 60 1031 60 q 747 94 814 60 q 628 190 679 128 q 526 96 588 135 q 386 57 465 57 q 153 144 244 57 q 63 371 63 231 q 153 605 63 508 q 383 701 243 701 m 629 -193 q 558 -165 586 -193 q 529 -94 529 -136 q 558 -24 529 -54 q 629 6 586 6 q 699 -24 671 6 q 728 -94 728 -54 q 699 -165 728 -136 q 629 -193 671 -193 z "},"व":{"ha":864,"x_min":-15,"x_max":879,"o":"m 381 97 q 151 182 240 97 q 61 396 61 267 q 149 608 61 522 q 381 694 236 694 q 475 676 425 694 q 547 632 525 657 l 547 810 l 7 810 l -15 944 l 857 944 l 879 810 l 718 810 l 718 -22 l 547 0 l 547 160 q 475 116 525 135 q 381 97 425 97 m 225 394 q 274 282 225 326 q 386 238 324 238 q 485 267 446 238 q 547 326 525 296 l 547 464 q 485 524 525 496 q 386 553 446 553 q 276 509 325 553 q 225 394 226 465 z "},"श":{"ha":1113,"x_min":67,"x_max":1128,"o":"m 794 0 l 794 810 l 657 810 l 636 944 l 1106 944 l 1128 810 l 965 810 l 965 -22 l 794 0 m 201 797 q 217 765 201 776 q 251 754 233 754 q 314 781 292 754 q 338 828 336 808 q 304 849 324 842 q 263 856 285 856 q 219 837 236 853 q 201 797 201 821 m 194 326 l 144 326 q 97 341 117 326 q 72 381 76 356 q 122 502 72 440 q 233 564 171 564 q 274 532 256 564 q 301 474 292 500 q 392 533 357 488 q 426 635 426 579 q 421 690 426 660 q 401 738 415 719 q 339 670 386 696 q 239 644 292 644 q 117 684 168 644 q 67 794 67 724 q 127 919 67 869 q 276 968 188 968 q 505 869 424 968 q 586 639 586 769 q 515 456 586 531 q 349 346 444 381 q 463 179 406 263 q 579 13 521 96 q 498 -8 539 3 q 417 -28 457 -18 l 194 326 z "},"ष":{"ha":935,"x_min":-15,"x_max":950,"o":"m 618 0 l 618 267 q 535 232 586 246 q 439 218 485 218 q 207 299 301 218 q 113 524 113 381 l 113 810 l 7 810 q -4 876 1 843 q -15 944 -10 910 l 928 944 q 939 876 933 910 q 950 810 944 843 l 789 810 l 789 -22 l 618 0 m 618 518 l 618 810 l 360 810 l 617 503 q 618 510 618 507 q 618 518 618 514 m 283 524 q 325 405 283 449 q 446 361 367 361 q 519 374 485 361 q 575 410 553 388 q 429 590 507 494 q 283 767 351 685 l 283 524 z "},"स":{"ha":1113,"x_min":-15,"x_max":1129,"o":"m 796 810 l 494 810 q 522 728 513 772 q 532 644 532 683 q 524 572 532 606 q 499 508 517 539 l 796 508 l 796 810 m 383 -28 q 278 154 331 63 q 174 338 226 246 q 92 345 126 338 q 51 392 57 353 q 101 513 51 451 q 211 575 150 575 q 251 546 232 575 q 278 492 269 517 q 347 555 322 513 q 372 647 372 597 q 356 740 372 696 q 311 810 339 783 l 7 810 q -4 876 1 843 q -15 944 -10 910 l 1107 944 q 1118 876 1113 910 q 1129 810 1124 843 l 967 810 l 967 -22 l 796 0 l 796 381 l 381 381 q 355 367 368 374 q 328 357 342 361 l 544 13 q 464 -8 504 3 q 383 -28 424 -18 z "},"ह":{"ha":765,"x_min":-15,"x_max":781,"o":"m 536 331 q 499 391 536 365 q 399 417 461 417 q 296 380 335 417 q 257 290 257 343 q 348 163 257 204 q 535 115 439 122 l 499 -22 q 220 67 339 -14 q 101 290 101 147 q 117 382 101 339 q 163 458 132 425 q 123 512 136 481 q 110 586 110 543 q 171 717 110 674 q 319 761 232 761 l 440 761 l 440 810 l 6 810 l -15 944 l 757 944 l 781 810 l 624 810 l 624 632 l 338 632 q 290 620 306 632 q 275 588 275 608 q 283 562 275 574 q 304 544 290 550 q 351 554 326 550 q 401 558 375 558 q 615 492 538 558 q 693 336 693 426 q 672 239 693 288 q 604 160 651 190 l 485 242 q 524 283 513 263 q 536 331 536 304 z "},"ॸ":{"ha":892,"x_min":-15,"x_max":906,"o":"m 324 810 l 324 499 l 481 499 q 713 422 618 499 q 807 201 807 344 l 807 -22 q 720 -11 799 -21 q 636 0 642 -1 l 636 201 q 594 319 636 276 q 474 363 553 363 l 324 363 q 296 283 315 310 q 253 257 276 257 q 122 305 183 257 q 61 424 61 353 q 86 476 61 453 q 158 499 111 499 l 158 810 l 7 810 q -4 876 1 843 q -15 944 -10 910 l 883 944 q 894 876 889 910 q 906 810 900 843 l 324 810 z "},"ऺ":{"ha":0,"x_min":-214,"x_max":-50,"o":"m -50 1231 l -50 944 l -214 944 l -214 1253 l -50 1231 z "},"ऻ":{"ha":461,"x_min":-15,"x_max":476,"o":"m 311 1231 l 311 944 l 453 944 q 465 876 458 910 q 476 810 471 843 l 315 810 l 315 -22 l 143 0 l 143 810 l 7 810 q -4 876 1 843 q -15 944 -10 910 l 147 944 l 147 1253 l 311 1231 z "},"़":{"ha":0,"x_min":24,"x_max":222,"o":"m 122 -271 q 52 -242 81 -271 q 24 -172 24 -214 q 52 -101 24 -131 q 122 -72 81 -72 q 194 -101 165 -72 q 222 -172 222 -131 q 194 -242 222 -214 q 122 -271 165 -271 z "},"ऽ":{"ha":779,"x_min":56,"x_max":696,"o":"m 131 208 q 253 144 189 168 q 378 121 317 121 q 487 153 444 121 q 529 240 529 185 q 461 410 529 311 q 322 589 393 508 l 110 829 l 110 944 l 668 944 l 696 811 l 322 811 l 424 692 q 594 475 501 599 q 686 240 686 351 q 604 51 686 128 q 367 -25 522 -25 q 217 -2 307 -25 q 56 69 128 21 l 131 208 z "},"ा":{"ha":461,"x_min":-15,"x_max":478,"o":"m 143 0 l 143 810 l 7 810 l -15 944 l 453 944 l 478 810 l 315 810 l 315 -22 l 143 0 z "},"ि":{"ha":461,"x_min":-15,"x_max":1093,"o":"m 1029 974 q 740 1113 910 1049 q 432 1178 569 1178 q 301 1139 346 1178 q 256 1050 256 1100 q 270 981 256 1007 q 293 944 285 954 l 453 944 l 478 810 l 315 810 l 315 -22 l 143 0 l 143 810 l 7 810 l -15 944 l 122 944 q 103 988 113 958 q 93 1063 93 1017 q 178 1244 93 1172 q 411 1317 264 1317 q 794 1231 589 1317 q 1093 1079 1000 1146 l 1029 974 z "},"ी":{"ha":461,"x_min":-301,"x_max":475,"o":"m -107 1036 q -185 1017 -146 1026 q -264 1000 -225 1008 q -291 1053 -281 1022 q -301 1126 -301 1085 q -240 1261 -301 1206 q -83 1317 -179 1317 q 153 1190 58 1317 q 292 944 249 1063 l 451 944 q 463 876 457 910 q 475 810 469 843 l 314 810 l 314 -22 l 142 0 l 142 810 l 6 810 q -6 876 0 843 q -17 944 -11 910 l 119 944 q 47 1093 97 1010 q -78 1176 -3 1176 q -123 1156 -108 1176 q -137 1115 -137 1136 q -129 1074 -137 1093 q -107 1036 -121 1056 z "},"ु":{"ha":0,"x_min":-581,"x_max":13,"o":"m -478 -132 q -347 -269 -406 -218 q -219 -319 -287 -319 q -153 -297 -176 -319 q -131 -240 -131 -275 q -155 -183 -131 -206 q -219 -160 -179 -160 l -315 -160 l -315 -25 l -207 -25 q -56 -82 -125 -25 q 13 -240 13 -139 q -57 -397 13 -340 q -222 -454 -126 -454 q -414 -386 -321 -454 q -581 -201 -507 -318 l -478 -132 z "},"ू":{"ha":0,"x_min":-467,"x_max":126,"o":"m 24 -349 q -108 -210 -50 -261 q -235 -160 -167 -160 q -300 -182 -278 -160 q -322 -239 -322 -204 q -299 -297 -322 -274 q -235 -319 -275 -319 l -139 -319 l -139 -454 l -247 -454 q -398 -397 -329 -454 q -467 -239 -467 -339 q -397 -82 -467 -139 q -232 -25 -328 -25 q -40 -93 -133 -25 q 126 -278 54 -161 l 24 -349 z "},"ृ":{"ha":0,"x_min":-474,"x_max":-114,"o":"m -331 -239 q -306 -297 -331 -274 q -240 -319 -282 -319 q -199 -315 -224 -319 q -142 -301 -175 -311 l -114 -433 q -188 -449 -153 -446 q -254 -453 -224 -453 q -406 -396 -339 -453 q -474 -239 -474 -339 q -403 -82 -474 -139 q -254 -25 -333 -25 l -144 -25 l -144 -160 l -240 -160 q -306 -183 -282 -160 q -331 -239 -331 -207 z "},"ॄ":{"ha":0,"x_min":-375,"x_max":-144,"o":"m -337 -231 q -364 -199 -353 -218 q -375 -158 -375 -179 q -325 -54 -375 -83 q -219 -25 -275 -25 l -144 -25 l -144 -129 l -196 -129 q -230 -136 -214 -129 q -246 -158 -246 -143 q -230 -176 -246 -169 q -196 -182 -214 -182 l -151 -182 l -182 -281 q -232 -287 -211 -281 q -253 -307 -253 -293 q -239 -327 -253 -321 q -196 -333 -225 -333 l -147 -333 l -179 -437 l -219 -437 q -325 -408 -275 -437 q -375 -307 -375 -378 q -363 -265 -375 -285 q -337 -231 -351 -244 z "},"ॅ":{"ha":0,"x_min":24,"x_max":669,"o":"m 551 1322 l 669 1250 q 528 1097 614 1139 q 346 1056 442 1056 q 165 1098 250 1056 q 24 1250 79 1140 l 142 1322 q 234 1219 175 1251 q 346 1186 293 1186 q 456 1217 400 1186 q 551 1322 511 1247 z "},"ॆ":{"ha":0,"x_min":-704,"x_max":-142,"o":"m -551 1271 q -507 1201 -551 1214 q -399 1188 -462 1188 q -223 1135 -301 1186 q -143 1010 -144 1085 l -142 871 l -301 871 l -301 951 q -339 1032 -301 1014 q -446 1050 -376 1050 q -640 1111 -576 1050 q -704 1265 -704 1172 l -704 1294 l -551 1271 z "},"े":{"ha":0,"x_min":-672,"x_max":-72,"o":"m -72 861 l -268 861 l -672 1235 l -547 1332 l -72 861 z "},"ै":{"ha":0,"x_min":-701,"x_max":-164,"o":"m -164 936 l -315 936 q -422 1026 -383 1004 q -535 1047 -460 1047 l -668 1047 l -701 1193 l -542 1193 q -447 1185 -490 1193 q -358 1140 -404 1178 q -395 1253 -376 1196 q -432 1367 -414 1311 l -276 1413 q -219 1174 -247 1293 q -164 936 -192 1054 z "},"ॉ":{"ha":461,"x_min":-92,"x_max":553,"o":"m 438 1322 l 553 1250 q 411 1097 497 1139 q 231 1056 325 1056 q 49 1098 135 1056 q -92 1250 -36 1140 l 25 1322 q 119 1219 60 1251 q 231 1186 178 1186 q 340 1217 285 1186 q 438 1322 396 1247 m 143 0 l 143 810 l 7 810 l -15 944 l 453 944 l 478 810 l 315 810 l 315 -22 l 143 0 z "},"ॊ":{"ha":461,"x_min":-265,"x_max":476,"o":"m -114 1271 q -85 1207 -114 1226 q -10 1188 -57 1188 q 31 1187 11 1188 q 72 1185 51 1186 q 240 1124 169 1179 q 310 990 310 1069 l 310 944 l 453 944 q 465 876 458 910 q 476 810 471 843 l 315 810 l 315 -22 l 143 0 l 143 810 l 7 810 q -4 876 1 843 q -15 944 -10 910 l 150 944 l 150 951 q 109 1033 150 1015 q -7 1050 68 1050 q -194 1105 -124 1050 q -265 1244 -265 1160 l -265 1294 l -114 1271 z "},"ो":{"ha":461,"x_min":-218,"x_max":476,"o":"m -15 944 l 96 944 l -218 1235 q -154 1283 -186 1258 q -92 1332 -122 1307 l 299 944 l 453 944 q 465 876 458 910 q 476 810 471 843 l 315 810 l 315 -22 l 143 0 l 143 810 l 7 810 q -4 876 1 843 q -15 944 -10 910 z "},"ौ":{"ha":461,"x_min":-231,"x_max":476,"o":"m 301 944 l 453 944 q 465 876 458 910 q 476 810 471 843 l 315 810 l 315 -22 l 143 0 l 143 810 l 7 810 q -4 876 1 843 q -15 944 -10 910 l 146 944 q 41 1027 78 1007 q -65 1047 4 1047 l -200 1047 l -231 1193 l -104 1193 q 7 1186 -44 1193 q 110 1140 58 1179 q 73 1253 92 1196 q 36 1367 54 1311 l 193 1413 l 301 944 z "},"ॏ":{"ha":461,"x_min":-292,"x_max":478,"o":"m -47 1115 l 39 1115 q 79 1115 60 1115 q 117 1114 99 1115 q 79 1137 99 1125 q 38 1158 60 1149 q -38 1220 -14 1178 q -62 1322 -62 1263 l -62 1365 l 74 1340 q 97 1258 74 1293 q 158 1214 119 1224 q 272 1138 236 1193 q 307 1004 307 1083 l 307 944 l 453 944 l 478 810 l 315 810 l 315 -22 l 143 0 l 143 810 l 7 810 l -15 944 l 158 944 q 140 982 153 971 q 96 993 126 993 l -40 993 q -222 1051 -153 993 q -292 1200 -292 1108 l -292 1242 l -157 1217 q -128 1142 -157 1169 q -47 1115 -99 1115 z "},"्":{"ha":0,"x_min":-421,"x_max":-4,"o":"m -106 -483 l -421 -201 l -301 -93 l -4 -394 l -106 -483 z "},"ॖ":{"ha":0,"x_min":24,"x_max":669,"o":"m 551 -68 l 669 -139 q 528 -291 614 -249 q 346 -333 442 -333 q 165 -291 250 -333 q 24 -139 79 -249 l 142 -68 q 234 -172 175 -139 q 346 -204 293 -204 q 456 -173 400 -204 q 551 -68 511 -142 z "},"ॗ":{"ha":0,"x_min":24,"x_max":844,"o":"m 628 -65 l 744 -133 q 592 -273 683 -240 q 438 -306 501 -306 q 283 -272 374 -306 q 133 -133 193 -239 l 250 -65 q 332 -159 276 -133 q 438 -185 388 -185 q 538 -162 483 -185 q 628 -65 593 -139 m 729 -225 l 844 -297 q 663 -442 776 -401 q 438 -482 550 -482 q 212 -441 329 -482 q 24 -299 94 -400 l 139 -226 q 268 -320 186 -286 q 438 -354 350 -354 q 601 -324 525 -354 q 729 -225 678 -293 z "},"ॎ":{"ha":458,"x_min":143,"x_max":475,"o":"m 143 0 l 143 944 l 451 944 l 475 810 l 313 810 l 313 -22 l 143 0 z "},"ॵ":{"ha":1751,"x_min":88,"x_max":1767,"o":"m 1240 1115 l 1326 1115 q 1367 1115 1347 1115 q 1404 1114 1386 1115 q 1367 1137 1386 1125 q 1325 1158 1347 1149 q 1249 1220 1274 1178 q 1225 1322 1225 1263 l 1225 1365 l 1361 1340 q 1384 1258 1361 1293 q 1446 1214 1407 1224 q 1559 1138 1524 1193 q 1594 1004 1594 1083 l 1594 944 l 1743 944 l 1767 810 l 1606 810 l 1606 -22 l 1433 0 l 1433 810 l 1161 810 l 1161 -22 l 992 0 l 992 424 l 656 424 q 715 355 694 397 q 736 265 736 313 q 642 61 736 143 q 388 -21 549 -21 q 225 1 304 -21 q 88 57 146 24 l 118 196 q 246 138 182 157 q 379 118 310 118 q 508 154 451 118 q 564 263 564 190 q 515 382 564 338 q 336 426 465 426 l 215 426 l 193 549 l 346 549 q 494 594 446 549 q 543 701 543 640 q 504 791 543 753 q 393 829 465 829 q 261 807 325 829 q 128 736 197 785 q 116 807 122 771 q 104 878 110 843 q 244 944 168 921 q 408 968 321 968 q 641 888 565 968 q 717 704 717 808 q 694 619 717 661 q 636 550 671 578 l 992 550 l 992 810 l 854 810 l 831 944 l 1446 944 q 1427 982 1440 971 q 1383 993 1414 993 l 1247 993 q 1065 1051 1135 993 q 996 1200 996 1108 l 996 1242 l 1131 1217 q 1160 1142 1131 1169 q 1240 1115 1189 1115 z "},"ॐ":{"ha":1225,"x_min":88,"x_max":1215,"o":"m 892 1119 q 822 1149 850 1119 q 793 1219 793 1178 q 822 1290 793 1261 q 892 1319 850 1319 q 963 1290 933 1319 q 992 1219 992 1261 q 963 1149 992 1178 q 892 1119 933 1119 m 1097 1190 l 1215 1117 q 1074 965 1160 1008 q 892 922 988 922 q 710 965 796 922 q 569 1117 625 1008 l 688 1190 q 780 1086 721 1119 q 892 1053 839 1053 q 1001 1084 946 1053 q 1097 1190 1057 1115 m 408 968 q 641 888 565 968 q 717 704 717 808 q 680 575 717 642 q 567 483 643 508 q 613 468 592 478 q 650 444 633 458 q 747 508 686 478 q 883 539 807 539 q 1104 460 1026 539 q 1182 256 1182 381 q 1090 44 1182 117 q 871 -28 997 -28 q 855 42 863 7 q 840 111 847 76 q 971 151 924 111 q 1018 256 1018 192 q 979 359 1018 319 q 879 399 940 399 q 787 376 824 399 q 728 325 750 353 q 734 295 732 311 q 736 265 736 279 q 642 61 736 143 q 388 -21 549 -21 q 224 2 304 -21 q 88 57 143 25 l 118 196 q 246 138 182 157 q 379 118 310 118 q 508 154 451 118 q 564 263 564 190 q 515 382 564 338 q 336 426 465 426 l 215 426 l 193 549 l 346 549 q 494 593 446 549 q 543 701 543 638 q 504 791 543 753 q 393 829 465 829 q 261 807 325 829 q 128 736 197 785 q 116 807 122 771 q 104 878 110 843 q 244 944 168 921 q 408 968 321 968 z "},"॑":{"ha":0,"x_min":24,"x_max":182,"o":"m 163 1039 l 42 1039 l 24 1318 l 182 1318 l 163 1039 z "},"॒":{"ha":0,"x_min":24,"x_max":788,"o":"m 788 -237 l 46 -237 l 24 -104 l 767 -104 l 788 -237 z "},"॓":{"ha":0,"x_min":24,"x_max":303,"o":"m 303 1039 l 196 1039 l 24 1318 l 186 1318 l 303 1039 z "},"॔":{"ha":0,"x_min":24,"x_max":303,"o":"m 303 1318 l 129 1038 l 24 1038 q 83 1178 53 1108 q 142 1318 113 1249 l 303 1318 z "},"ॕ":{"ha":0,"x_min":25,"x_max":685,"o":"m 553 1446 l 669 1379 q 528 1231 614 1271 q 347 1192 443 1192 q 166 1231 251 1192 q 25 1379 81 1271 l 142 1446 q 235 1347 176 1376 q 347 1317 294 1317 q 454 1344 396 1317 q 553 1446 513 1371 m 685 1031 l 54 1031 q 43 1090 49 1061 q 32 1149 38 1118 l 663 1149 q 674 1090 668 1118 q 685 1031 679 1061 z "},"ॶ":{"ha":1308,"x_min":88,"x_max":1324,"o":"m 736 265 q 642 61 736 143 q 388 -21 549 -21 q 225 1 304 -21 q 88 57 146 24 l 118 196 q 246 138 182 157 q 379 118 310 118 q 508 154 451 118 q 564 263 564 190 q 515 382 564 338 q 336 426 465 426 l 215 426 l 193 549 l 346 549 q 494 593 446 549 q 543 701 543 638 q 504 791 543 753 q 393 829 465 829 q 261 807 325 829 q 128 736 197 785 q 116 807 122 771 q 104 878 110 843 q 244 944 168 921 q 408 968 321 968 q 641 888 565 968 q 717 704 717 808 q 694 619 717 661 q 636 550 671 578 l 992 550 l 992 810 l 854 810 l 831 944 l 1301 944 l 1324 810 l 1161 810 l 1161 -22 l 992 0 l 992 424 l 656 424 q 715 355 694 397 q 736 265 736 313 m 742 -203 q 849 -172 790 -203 q 947 -67 907 -142 q 1006 -103 976 -85 q 1065 -139 1036 -121 q 924 -291 1010 -249 q 742 -333 838 -333 q 560 -291 646 -333 q 419 -139 475 -249 q 478 -103 449 -121 q 538 -67 507 -85 q 630 -170 571 -137 q 742 -203 689 -203 z "},"ॷ":{"ha":1308,"x_min":88,"x_max":1324,"o":"m 736 265 q 642 61 736 143 q 388 -21 549 -21 q 225 1 304 -21 q 88 57 146 24 l 118 196 q 246 138 182 157 q 379 118 310 118 q 508 154 451 118 q 564 263 564 190 q 515 382 564 338 q 336 426 465 426 l 215 426 l 193 549 l 346 549 q 494 593 446 549 q 543 701 543 638 q 504 791 543 753 q 393 829 465 829 q 261 807 325 829 q 128 736 197 785 q 116 807 122 771 q 104 878 110 843 q 244 944 168 921 q 408 968 321 968 q 641 888 565 968 q 717 704 717 808 q 694 619 717 661 q 636 550 671 578 l 992 550 l 992 810 l 854 810 l 831 944 l 1301 944 l 1324 810 l 1161 810 l 1161 -22 l 992 0 l 992 424 l 656 424 q 715 355 694 397 q 736 265 736 313 m 732 -183 q 832 -160 778 -183 q 921 -65 886 -137 q 980 -99 951 -82 q 1039 -133 1008 -115 q 886 -272 976 -240 q 732 -304 796 -304 q 576 -271 667 -304 q 426 -133 486 -237 q 485 -99 457 -115 q 544 -65 514 -82 q 626 -158 571 -132 q 732 -183 682 -183 m 1024 -225 l 1139 -296 q 956 -441 1069 -400 q 732 -482 843 -482 q 506 -440 624 -482 q 317 -299 388 -399 q 375 -262 346 -281 q 433 -226 404 -244 q 562 -320 481 -286 q 732 -354 643 -354 q 895 -324 818 -354 q 1024 -225 972 -293 z "},"क़":{"ha":1257,"x_min":-15,"x_max":1272,"o":"m 379 554 q 272 510 319 554 q 225 396 225 465 q 272 283 225 328 q 379 238 318 238 q 490 269 456 238 q 547 333 525 300 l 547 458 q 490 522 525 490 q 379 554 456 554 m 847 238 q 985 282 931 238 q 1039 396 1039 326 q 994 510 1039 465 q 888 554 949 554 q 778 522 817 554 q 718 460 739 490 l 718 -22 l 547 0 l 547 153 q 471 113 518 131 q 379 96 424 96 q 149 181 239 96 q 60 394 60 265 q 148 609 60 522 q 379 696 236 696 q 471 678 424 696 q 547 639 518 661 l 547 810 l 7 810 q -4 876 1 843 q -15 944 -10 910 l 1251 944 l 1272 810 l 718 810 l 718 638 q 792 678 746 661 q 883 696 839 696 q 1116 609 1028 696 q 1204 394 1204 522 q 1103 176 1204 256 q 876 96 1003 96 l 847 238 m 244 -192 q 173 -163 201 -192 q 144 -93 144 -135 q 173 -24 144 -53 q 244 6 201 6 q 315 -24 286 6 q 344 -93 344 -53 q 315 -163 344 -135 q 244 -192 286 -192 z "},"ख़":{"ha":1311,"x_min":-15,"x_max":1326,"o":"m 592 456 q 671 645 592 568 q 879 722 750 722 q 940 716 910 722 q 994 697 969 710 l 994 810 l 482 810 q 510 728 500 772 q 519 644 519 683 q 463 469 519 547 q 317 357 407 390 q 414 200 335 283 q 633 117 493 117 q 766 144 704 117 q 867 210 828 171 q 847 208 857 208 q 826 207 836 207 q 658 282 725 207 q 592 456 592 357 m 765 457 q 800 366 765 397 q 879 335 835 335 q 959 367 925 335 q 993 456 993 399 q 958 547 993 514 q 879 579 924 579 q 800 547 835 579 q 765 457 765 514 m 149 -87 q 78 -58 107 -87 q 49 11 49 -29 q 78 81 49 51 q 149 110 107 110 q 218 81 189 110 q 247 11 247 51 q 218 -58 247 -29 q 149 -87 189 -87 m 1165 -22 l 994 0 l 994 106 q 832 11 926 46 q 633 -24 738 -24 q 300 92 421 -24 q 154 338 179 208 q 79 346 111 338 q 42 392 47 354 q 95 513 42 451 q 213 575 149 575 q 249 548 235 575 q 274 494 264 521 q 335 552 308 511 q 361 644 361 593 q 344 738 361 692 q 300 810 328 783 l 7 810 q -4 876 1 843 q -15 944 -10 910 l 1306 944 l 1326 810 l 1165 810 l 1165 -22 z "},"ग़":{"ha":940,"x_min":-15,"x_max":954,"o":"m 622 0 l 622 810 l 346 810 l 346 300 q 328 232 346 257 q 276 207 311 207 q 141 271 203 207 q 79 392 79 335 q 110 440 79 422 q 175 457 140 457 l 175 810 l 7 810 q -4 876 1 843 q -15 944 -10 910 l 932 944 l 954 810 l 793 810 l 793 -22 l 622 0 m 272 -87 q 201 -58 229 -87 q 172 11 172 -29 q 201 81 172 51 q 272 110 229 110 q 342 81 313 110 q 371 11 371 51 q 342 -58 371 -29 q 272 -87 313 -87 z "},"ज़":{"ha":1110,"x_min":-15,"x_max":1126,"o":"m 794 513 l 607 513 q 631 453 621 486 q 640 381 640 419 q 538 154 640 225 q 311 83 436 83 q 150 112 226 83 q 21 175 74 140 l 51 328 q 179 253 114 281 q 306 224 244 225 q 431 267 385 224 q 478 374 478 311 q 442 473 478 433 q 326 513 406 513 l 243 513 l 221 647 l 794 647 l 794 810 l 7 810 q -4 876 1 843 q -15 944 -10 910 l 1103 944 l 1126 810 l 963 810 l 963 -22 l 794 0 l 794 513 m 314 -192 q 243 -163 272 -192 q 214 -93 214 -135 q 243 -24 214 -53 q 314 6 272 6 q 384 -24 354 6 q 414 -93 414 -53 q 384 -163 414 -135 q 314 -192 354 -192 z "},"ड़":{"ha":746,"x_min":-15,"x_max":761,"o":"m 106 190 q 235 133 169 150 q 371 117 300 117 q 489 148 453 117 q 525 218 525 179 q 500 283 525 257 q 424 310 475 310 l 300 310 q 138 366 213 310 q 64 517 64 422 q 131 670 64 617 q 297 724 199 724 l 463 724 l 463 810 l 7 810 q -4 876 1 843 q -15 944 -10 910 l 738 944 l 761 810 l 618 810 l 618 582 l 303 582 q 247 561 269 582 q 225 517 225 540 q 247 470 225 490 q 304 450 269 450 l 411 450 q 618 394 538 450 q 699 218 699 339 q 616 51 699 125 q 379 -22 533 -22 q 215 -2 297 -22 q 76 51 132 18 l 106 190 m 383 -274 q 313 -245 342 -274 q 283 -175 283 -217 q 313 -104 283 -133 q 383 -75 342 -75 q 454 -104 425 -75 q 483 -175 483 -133 q 454 -245 483 -217 q 383 -274 425 -274 z "},"ढ़":{"ha":867,"x_min":-15,"x_max":899,"o":"m 715 810 l 715 714 q 716 636 715 675 q 717 558 717 597 l 522 558 q 319 501 401 558 q 236 339 236 443 q 293 190 236 244 q 421 119 350 135 q 394 165 403 136 q 386 217 386 193 q 448 367 386 304 q 601 431 510 431 q 759 375 697 431 q 821 226 821 319 q 733 48 821 121 q 504 -25 644 -25 q 217 55 356 -25 q 78 338 78 135 q 210 607 78 513 q 522 701 343 701 l 544 701 l 544 810 l 7 810 q -4 876 1 843 q -15 944 -10 910 l 876 944 l 899 810 l 715 810 m 608 289 q 556 270 578 289 q 533 214 533 251 q 546 163 533 188 q 582 122 558 139 q 653 162 628 131 q 679 224 679 193 q 660 271 679 253 q 608 289 640 289 m 507 -276 q 437 -247 465 -276 q 408 -175 408 -218 q 437 -106 408 -136 q 507 -76 465 -76 q 577 -106 547 -76 q 607 -175 607 -136 q 577 -247 607 -218 q 507 -276 547 -276 z "},"फ़":{"ha":1325,"x_min":-15,"x_max":1342,"o":"m 617 504 l 617 810 l 283 810 l 283 524 q 325 405 283 449 q 446 361 367 361 q 561 399 514 361 q 617 504 608 438 m 917 232 q 1054 276 1000 232 q 1108 390 1108 321 q 1063 503 1108 460 q 957 547 1018 547 q 848 516 886 547 q 788 454 810 485 l 788 -22 l 617 0 l 617 267 q 534 232 583 246 q 439 218 485 218 q 207 299 301 218 q 113 524 113 381 l 113 810 l 7 810 q -4 876 1 843 q -15 944 -10 910 l 1319 944 q 1331 876 1325 910 q 1342 810 1336 843 l 788 810 l 788 633 q 863 672 817 656 q 953 689 910 689 q 1185 603 1097 689 q 1274 389 1274 517 q 1172 170 1274 250 q 944 90 1071 90 l 917 232 m 310 -87 q 240 -58 268 -87 q 211 11 211 -29 q 240 81 211 51 q 310 110 268 110 q 381 81 351 110 q 411 11 411 51 q 381 -58 411 -29 q 310 -87 351 -87 z "},"य़":{"ha":908,"x_min":-15,"x_max":924,"o":"m 75 500 q 147 564 99 526 q 196 692 196 601 q 174 765 196 733 q 118 810 151 797 l 7 810 q -4 876 1 843 q -15 944 -10 910 l 903 944 l 924 810 l 763 810 l 763 -22 l 592 0 l 592 265 q 516 232 560 246 q 407 218 472 218 q 178 303 281 218 q 75 500 75 389 m 592 810 l 315 810 q 339 753 329 788 q 349 683 349 719 q 322 563 349 619 q 238 467 294 506 q 297 397 254 432 q 413 361 340 361 q 533 400 482 361 q 592 507 585 439 l 592 810 m 263 -87 q 192 -58 221 -87 q 163 11 163 -29 q 192 81 163 51 q 263 110 221 110 q 333 81 304 110 q 363 11 363 51 q 333 -58 363 -29 q 263 -87 304 -87 z "},"ॠ":{"ha":1251,"x_min":-15,"x_max":1265,"o":"m 890 -121 q 904 -60 890 -86 q 946 -11 918 -33 q 914 19 926 -1 q 901 67 901 39 q 967 193 901 133 q 1033 308 1033 253 q 1016 376 1033 346 q 960 450 999 407 q 842 387 924 411 q 679 357 761 363 l 679 -22 l 508 0 l 508 268 l 208 89 q 162 152 185 119 q 115 215 139 185 l 467 424 q 361 503 407 481 q 275 525 315 525 q 208 512 253 525 q 114 476 163 499 l 49 619 q 161 657 92 642 q 254 672 231 672 q 374 659 311 672 q 508 586 436 646 l 508 810 l 7 810 q -4 876 1 843 q -15 944 -10 910 l 1243 944 l 1265 810 l 679 810 l 679 494 q 808 521 758 507 q 876 561 857 535 q 857 598 865 576 q 849 647 849 619 q 876 710 849 690 q 940 731 903 731 q 1038 699 990 731 q 1086 611 1086 667 q 1080 577 1086 593 q 1060 546 1074 561 q 1151 424 1117 478 q 1185 308 1185 369 q 1119 179 1185 232 q 1054 93 1054 126 q 1068 66 1054 71 q 1100 61 1082 61 l 1156 61 l 1126 -67 l 1092 -67 q 1054 -76 1074 -67 q 1035 -103 1035 -86 q 1051 -132 1035 -124 q 1086 -140 1068 -140 l 1139 -140 l 1107 -269 l 1058 -269 q 949 -233 1008 -269 q 890 -121 890 -196 z "},"ॡ":{"ha":1196,"x_min":-15,"x_max":1211,"o":"m 858 -7 q 825 28 839 4 q 811 75 811 53 q 831 144 811 117 q 878 186 851 172 l 878 419 q 842 515 872 479 q 763 550 811 550 q 678 503 710 550 q 647 386 647 457 l 647 192 l 493 213 l 492 386 q 462 501 492 457 q 361 546 432 546 q 272 511 307 546 q 238 431 238 476 q 273 268 238 356 q 390 15 308 181 l 254 -32 q 130 226 175 121 q 85 440 85 332 q 167 614 85 539 q 361 690 249 689 q 476 668 422 689 q 567 608 531 647 q 653 669 601 649 q 764 690 706 690 q 824 682 793 690 q 878 660 856 674 l 878 810 l 7 810 l -15 944 l 1188 944 l 1211 810 l 1049 810 l 1049 108 l 997 108 q 964 101 981 108 q 947 75 947 93 q 964 50 947 57 q 997 43 981 43 l 1042 43 l 1011 -54 q 959 -62 978 -54 q 940 -86 940 -69 q 954 -112 940 -104 q 997 -121 968 -121 l 1046 -121 l 1015 -224 l 967 -224 q 862 -191 913 -224 q 811 -86 811 -158 q 826 -40 811 -65 q 858 -7 842 -14 z "},"ॢ":{"ha":0,"x_min":24,"x_max":624,"o":"m 382 -211 l 382 -335 l 265 -306 l 265 -211 q 246 -161 265 -176 q 203 -146 226 -146 q 167 -160 183 -146 q 150 -189 150 -175 q 174 -288 150 -236 q 249 -433 199 -340 l 125 -462 q 51 -308 78 -371 q 24 -181 24 -244 q 73 -74 24 -121 q 197 -26 122 -26 q 273 -46 238 -26 q 324 -96 308 -65 q 376 -47 339 -68 q 451 -26 413 -26 q 576 -74 528 -26 q 624 -181 624 -121 q 605 -256 624 -224 q 575 -315 586 -287 q 576 -337 571 -325 q 597 -350 581 -350 l 619 -350 l 592 -458 l 553 -458 q 478 -439 519 -458 q 438 -369 438 -419 q 466 -272 438 -312 q 494 -190 494 -231 q 478 -157 494 -168 q 443 -146 461 -146 q 401 -163 421 -146 q 382 -211 382 -181 z "},"ॣ":{"ha":0,"x_min":24,"x_max":625,"o":"m 557 -572 q 472 -547 508 -572 q 435 -462 435 -521 q 444 -425 435 -442 q 468 -399 454 -408 q 458 -379 461 -392 q 454 -358 454 -367 q 476 -266 453 -299 q 500 -196 500 -233 q 484 -160 500 -174 q 442 -146 468 -146 q 400 -162 419 -146 q 381 -210 381 -179 l 381 -333 l 265 -304 l 265 -210 q 246 -160 265 -175 q 203 -146 226 -146 q 167 -160 183 -146 q 150 -189 150 -175 q 174 -287 150 -236 q 249 -433 199 -339 l 125 -461 q 51 -307 78 -369 q 24 -181 24 -244 q 72 -73 24 -121 q 197 -25 121 -25 q 273 -45 238 -25 q 324 -96 308 -65 q 376 -47 339 -68 q 451 -25 413 -25 q 575 -72 526 -25 q 624 -181 624 -119 q 601 -258 624 -228 q 579 -321 579 -289 q 585 -337 579 -331 q 610 -344 592 -344 l 625 -344 l 597 -440 l 567 -440 q 540 -446 553 -440 q 528 -462 528 -451 q 542 -481 528 -476 q 571 -486 556 -486 l 614 -486 l 585 -572 l 557 -572 z "},"।":{"ha":560,"x_min":194,"x_max":365,"o":"m 365 1049 l 365 -22 l 194 0 l 194 1071 l 365 1049 z "},"॥":{"ha":1044,"x_min":194,"x_max":850,"o":"m 850 1049 l 850 -22 l 678 0 l 678 1071 l 850 1049 m 365 1049 l 365 -22 l 194 0 l 194 1071 l 365 1049 z "},"०":{"ha":938,"x_min":76,"x_max":860,"o":"m 469 79 q 188 194 300 79 q 76 471 76 310 q 188 747 76 632 q 468 864 299 863 q 749 749 638 864 q 860 471 860 633 q 749 194 860 310 q 469 79 638 79 m 228 471 q 296 291 228 363 q 468 219 364 219 q 641 291 574 219 q 708 471 708 363 q 641 651 708 579 q 468 724 574 724 q 296 651 364 724 q 228 471 228 579 z "},"१":{"ha":557,"x_min":67,"x_max":501,"o":"m 69 456 l 183 546 q 203 561 193 553 q 222 576 213 569 q 131 639 179 590 q 83 751 83 688 q 140 906 83 843 q 285 968 197 968 q 438 908 381 968 q 496 761 496 849 q 460 624 496 693 q 336 486 424 556 l 228 400 l 226 399 l 501 13 q 419 -7 461 3 q 338 -26 378 -17 l 67 397 q 67 426 67 411 q 69 456 68 442 m 290 832 q 250 810 265 832 q 235 758 235 788 q 256 694 235 724 q 310 656 276 665 q 340 698 328 671 q 353 750 353 725 q 337 806 353 781 q 290 832 321 832 z "},"२":{"ha":722,"x_min":71,"x_max":643,"o":"m 249 339 l 199 339 q 150 354 171 339 q 129 394 129 369 q 177 513 129 450 q 288 576 225 576 q 328 547 308 576 q 357 488 347 517 q 451 552 418 501 q 483 658 483 603 q 438 778 483 726 q 315 829 393 829 q 203 803 254 829 q 131 763 153 776 q 101 824 117 793 q 71 885 85 854 q 171 938 101 908 q 318 968 240 968 q 566 861 489 968 q 643 653 643 754 q 581 474 643 556 q 406 354 518 393 l 625 13 l 464 -28 l 249 339 z "},"३":{"ha":758,"x_min":71,"x_max":678,"o":"m 111 886 q 238 947 169 925 q 386 968 307 968 q 591 898 521 968 q 661 736 661 828 q 630 620 661 676 q 535 544 599 564 q 640 472 601 529 q 678 349 678 415 q 594 172 678 240 q 378 94 511 103 q 429 29 403 61 q 482 -35 456 -3 q 426 -74 454 -54 q 369 -115 397 -94 q 283 1 326 -57 q 194 117 239 58 q 112 176 153 135 q 71 274 71 217 q 95 330 71 308 q 154 351 119 351 q 250 317 203 351 q 311 236 297 283 q 328 234 319 235 q 344 233 336 233 q 456 265 407 235 q 506 349 506 296 q 463 444 506 403 q 325 486 421 486 l 211 486 l 192 608 l 333 608 q 449 643 408 608 q 489 733 489 678 q 453 803 489 776 q 360 831 417 831 q 236 806 296 831 q 133 747 176 782 q 122 817 128 782 q 111 886 117 851 z "},"४":{"ha":975,"x_min":56,"x_max":919,"o":"m 739 211 q 671 42 739 108 q 488 -25 603 -25 q 303 42 372 -25 q 235 211 235 108 q 281 366 235 285 q 390 533 326 447 q 222 707 313 619 q 56 865 132 794 l 149 986 q 347 794 271 869 q 488 650 424 719 q 626 794 550 719 q 825 986 701 869 l 919 865 q 752 707 843 794 q 583 533 661 619 q 694 366 649 447 q 739 211 739 285 m 393 211 q 422 143 393 168 q 488 118 450 118 q 553 143 526 118 q 581 211 581 168 q 553 303 581 254 q 488 408 526 353 q 421 303 449 353 q 393 211 393 254 z "},"५":{"ha":781,"x_min":111,"x_max":751,"o":"m 411 138 q 477 120 457 122 q 518 118 497 118 q 585 140 565 118 q 604 189 604 161 q 592 268 604 231 q 563 336 581 306 q 515 328 539 331 q 468 325 490 325 q 219 400 326 325 q 111 640 111 475 l 111 944 l 282 944 l 282 640 q 335 505 282 543 q 475 467 388 467 q 467 494 471 481 q 464 522 464 508 q 490 583 464 550 q 560 615 517 615 q 656 581 611 615 q 701 496 701 547 q 697 458 701 476 q 678 422 692 440 q 732 296 713 365 q 751 189 751 226 q 706 43 751 108 q 531 -22 661 -22 q 463 -17 508 -22 q 372 4 418 -12 q 392 71 382 38 q 411 138 401 104 z "},"६":{"ha":806,"x_min":83,"x_max":757,"o":"m 663 156 q 710 75 685 117 q 757 -3 735 33 q 690 -31 724 -17 q 624 -58 657 -44 l 532 107 q 465 96 501 97 q 399 94 428 94 q 170 167 257 94 q 83 349 83 240 q 121 472 83 415 q 226 544 158 529 q 131 620 163 564 q 99 736 99 676 q 170 898 99 828 q 375 968 242 968 q 523 947 454 968 q 649 886 592 925 l 628 747 q 526 806 585 781 q 403 831 467 831 q 308 805 346 831 q 271 733 271 779 q 311 643 271 678 q 426 608 351 608 l 554 608 q 563 547 558 578 q 569 486 567 517 l 436 486 q 298 444 340 486 q 256 349 256 403 q 304 265 256 296 q 417 233 353 233 q 444 235 431 233 q 471 240 458 238 q 470 256 471 249 q 469 272 469 264 q 495 339 469 311 q 564 367 521 367 q 659 335 611 367 q 707 253 707 304 q 694 203 707 229 q 663 156 682 178 z "},"७":{"ha":1019,"x_min":46,"x_max":957,"o":"m 764 596 q 715 692 749 654 q 626 729 682 729 q 553 699 588 729 q 518 621 518 669 q 550 542 518 572 q 633 513 582 513 q 711 535 674 513 q 764 596 749 558 m 781 433 q 703 390 747 406 q 622 374 660 374 q 433 441 508 374 q 357 611 357 508 q 431 798 357 722 q 621 874 504 874 q 874 745 790 874 q 957 417 957 617 q 838 106 957 236 q 506 -25 718 -25 q 163 106 281 -25 q 46 472 46 238 q 131 472 89 472 q 217 471 174 471 q 294 215 217 306 q 507 125 372 125 q 706 210 632 125 q 781 433 781 296 z "},"८":{"ha":808,"x_min":72,"x_max":740,"o":"m 240 303 q 286 178 240 231 q 411 126 332 126 q 533 171 475 126 q 592 360 592 215 l 735 318 q 674 97 740 218 q 401 -25 608 -25 q 158 68 244 -25 q 72 296 72 161 q 210 676 72 479 q 479 986 349 874 l 575 867 q 331 581 421 722 q 240 303 240 440 z "},"९":{"ha":685,"x_min":71,"x_max":615,"o":"m 615 719 q 542 541 615 613 q 358 468 468 469 q 351 463 354 464 q 344 461 347 461 q 353 447 349 454 q 364 432 358 439 q 484 247 457 296 q 511 138 511 199 q 455 25 511 69 q 311 -36 399 -19 l 286 86 q 338 108 319 96 q 357 150 357 121 q 318 234 357 178 q 211 386 279 290 q 114 535 157 461 q 71 693 71 610 q 140 878 71 793 q 336 964 208 964 q 540 890 465 964 q 615 719 615 815 m 342 813 q 263 778 294 813 q 232 692 232 744 q 236 648 232 668 q 246 610 240 628 q 282 597 260 601 q 333 592 304 592 q 420 626 389 592 q 451 706 451 660 q 422 781 451 749 q 342 813 393 813 z "},"॰":{"ha":792,"x_min":61,"x_max":731,"o":"m 399 731 q 634 632 538 731 q 731 393 731 533 q 634 158 731 256 q 397 60 538 60 q 158 158 254 60 q 61 400 61 257 q 158 634 61 538 q 399 731 254 731 m 397 200 q 528 254 472 200 q 583 396 583 308 q 528 534 583 481 q 397 588 472 588 q 265 533 321 588 q 210 396 210 479 q 265 254 210 308 q 397 200 321 200 z "},"ॱ":{"ha":310,"x_min":56,"x_max":254,"o":"m 154 310 q 85 338 114 310 q 56 410 56 367 q 85 479 56 450 q 154 508 114 508 q 226 479 197 508 q 254 410 254 450 q 226 338 254 367 q 154 310 197 310 z "},"ॲ":{"ha":1308,"x_min":88,"x_max":1404,"o":"m 1286 1321 l 1404 1249 q 1262 1097 1347 1139 q 1081 1056 1176 1056 q 900 1098 985 1056 q 760 1249 815 1140 q 817 1285 788 1267 q 875 1321 846 1303 q 969 1218 910 1250 q 1081 1186 1028 1186 q 1186 1216 1128 1186 q 1286 1321 1244 1246 m 736 265 q 642 61 736 143 q 388 -21 549 -21 q 225 1 304 -21 q 88 57 146 24 l 118 196 q 246 138 182 157 q 379 118 310 118 q 508 154 451 118 q 564 263 564 190 q 515 382 564 338 q 336 426 465 426 l 215 426 l 193 549 l 346 549 q 494 593 446 549 q 543 701 543 638 q 504 791 543 753 q 393 829 465 829 q 261 807 325 829 q 128 736 197 785 q 116 807 122 771 q 104 878 110 843 q 244 944 168 921 q 408 968 321 968 q 641 888 565 968 q 717 704 717 808 q 694 619 717 661 q 636 550 671 578 l 992 550 l 992 810 l 854 810 l 831 944 l 1301 944 l 1324 810 l 1161 810 l 1161 -22 l 992 0 l 992 424 l 656 424 q 715 355 694 397 q 736 265 736 313 z "},"ॳ":{"ha":1308,"x_min":88,"x_max":1324,"o":"m 736 265 q 642 61 736 143 q 388 -21 549 -21 q 225 1 304 -21 q 88 57 146 24 l 118 196 q 246 138 182 157 q 379 118 310 118 q 508 154 451 118 q 564 263 564 190 q 515 382 564 338 q 336 426 465 426 l 215 426 l 193 549 l 346 549 q 494 594 446 549 q 543 701 543 640 q 504 791 543 753 q 393 829 465 829 q 261 807 325 829 q 128 736 197 785 q 116 807 122 771 q 104 878 110 843 q 244 944 168 921 q 408 968 321 968 q 641 888 565 968 q 717 704 717 808 q 694 619 717 661 q 636 550 671 578 l 992 550 l 992 810 l 854 810 l 831 944 l 994 944 l 994 1253 l 1158 1231 l 1158 944 l 1301 944 l 1324 810 l 1161 810 l 1161 -22 l 992 0 l 992 424 l 656 424 q 715 355 694 397 q 736 265 736 313 z "},"ॴ":{"ha":1751,"x_min":89,"x_max":1767,"o":"m 992 0 l 992 424 l 657 424 q 716 355 696 397 q 736 265 736 313 q 642 61 736 143 q 388 -21 549 -21 q 225 1 304 -21 q 89 58 146 24 l 118 197 q 246 138 182 157 q 379 118 310 118 q 508 155 453 118 q 564 263 564 192 q 515 382 564 338 q 338 426 467 426 l 217 426 l 193 550 l 346 550 q 495 594 446 550 q 544 703 544 639 q 506 791 544 753 q 394 829 467 829 q 263 807 326 829 q 128 736 199 785 l 106 879 q 245 945 169 921 q 408 969 321 969 q 642 889 565 969 q 718 704 718 808 q 695 619 718 661 q 638 550 672 578 l 992 550 l 992 810 l 854 810 l 831 944 l 1431 944 l 1431 1253 l 1594 1231 l 1594 944 l 1744 944 l 1767 810 l 1606 810 l 1606 -22 l 1433 0 l 1433 810 l 1161 810 l 1161 -22 l 992 0 z "},"ॹ":{"ha":1110,"x_min":-15,"x_max":1126,"o":"m 794 513 l 607 513 q 631 453 621 486 q 640 381 640 419 q 538 154 640 225 q 311 83 436 83 q 150 112 226 83 q 21 175 74 140 l 51 328 q 179 253 114 281 q 306 224 244 225 q 431 267 385 224 q 478 374 478 311 q 442 473 478 433 q 326 513 406 513 l 243 513 l 221 647 l 794 647 l 794 810 l 7 810 q -4 876 1 843 q -15 944 -10 910 l 1103 944 l 1126 810 l 963 810 l 963 -22 l 794 0 l 794 513 m 151 -161 q 83 -132 111 -161 q 54 -61 54 -103 q 83 8 54 -21 q 151 38 111 38 q 223 8 193 38 q 253 -61 253 -21 q 223 -132 253 -103 q 151 -161 193 -161 m 464 -161 q 394 -132 422 -161 q 365 -61 365 -103 q 394 8 365 -21 q 464 38 422 38 q 535 8 506 38 q 564 -61 564 -21 q 535 -132 564 -103 q 464 -161 506 -161 m 310 -344 q 238 -315 267 -344 q 210 -243 210 -286 q 238 -174 210 -203 q 310 -144 267 -144 q 379 -174 350 -144 q 408 -243 408 -203 q 379 -315 408 -286 q 310 -344 350 -344 z "},"ॺ":{"ha":906,"x_min":-12,"x_max":925,"o":"m 106 535 q 168 588 140 544 q 196 692 196 632 q 174 765 196 733 q 118 810 153 797 l 8 810 l -12 944 l 903 944 l 925 810 l 763 810 l 763 -22 l 592 0 l 592 265 q 516 232 560 246 q 408 218 472 218 q 178 303 281 218 q 75 500 75 389 q 91 517 83 508 q 106 535 99 526 m 592 810 l 357 810 q 474 669 417 740 q 592 531 532 599 l 592 810 m 238 467 q 299 397 256 432 q 413 361 342 363 q 497 378 458 361 q 560 426 536 396 q 451 563 503 497 q 349 689 399 629 q 322 566 349 626 q 238 467 296 506 z "},"ॻ":{"ha":940,"x_min":-15,"x_max":954,"o":"m 622 0 l 622 810 l 346 810 l 346 300 q 328 232 346 257 q 276 207 311 207 q 141 271 203 207 q 79 392 79 335 q 110 440 79 422 q 175 457 140 457 l 175 810 l 7 810 q -4 876 1 843 q -15 944 -10 910 l 932 944 l 954 810 l 793 810 l 793 -22 l 622 0 m 824 -236 l 126 -236 l 106 -104 l 801 -104 q 813 -170 807 -137 q 824 -236 818 -203 z "},"ॼ":{"ha":1110,"x_min":-15,"x_max":1126,"o":"m 794 513 l 607 513 q 631 453 621 486 q 640 381 640 419 q 538 154 640 225 q 311 83 436 83 q 150 112 226 83 q 21 175 74 140 l 51 328 q 179 253 114 281 q 306 224 244 225 q 431 267 385 224 q 478 374 478 311 q 442 473 478 433 q 326 513 406 513 l 243 513 l 221 647 l 794 647 l 794 810 l 7 810 q -4 876 1 843 q -15 944 -10 910 l 1103 944 l 1126 810 l 963 810 l 963 -22 l 794 0 l 794 513 m 943 -236 l 114 -236 l 93 -104 l 919 -104 l 943 -236 z "},"ॽ":{"ha":772,"x_min":83,"x_max":704,"o":"m 393 969 q 626 883 549 969 q 704 682 704 796 q 637 499 704 590 q 449 357 569 407 l 450 10 l 278 63 l 278 443 q 459 542 390 478 q 528 681 528 606 q 488 787 528 750 q 383 824 447 824 q 244 794 313 824 q 106 718 176 765 l 83 874 q 225 943 149 917 q 393 969 301 969 z "},"ॾ":{"ha":746,"x_min":-15,"x_max":761,"o":"m 106 190 q 235 133 169 150 q 371 117 300 117 q 485 148 444 117 q 525 218 525 179 q 500 283 525 257 q 424 310 475 310 l 300 310 q 138 366 213 310 q 64 517 64 422 q 131 670 64 617 q 297 724 199 724 l 463 724 l 463 810 l 7 810 q -4 876 1 843 q -15 944 -10 910 l 738 944 l 761 810 l 618 810 l 618 582 l 303 582 q 247 561 269 582 q 225 517 225 540 q 247 470 225 490 q 304 450 269 450 l 411 450 q 618 394 538 450 q 699 218 699 339 q 616 51 699 125 q 379 -22 533 -22 q 215 -2 297 -22 q 76 51 132 18 l 106 190 m 685 -236 l 94 -236 l 71 -104 l 661 -104 l 685 -236 z "},"ॿ":{"ha":869,"x_min":-15,"x_max":885,"o":"m 553 0 l 553 150 q 476 110 522 126 q 386 94 431 94 q 153 180 246 94 q 60 394 60 265 q 151 610 60 522 q 386 697 242 697 q 476 681 431 697 q 553 643 522 665 l 553 810 l 7 810 q -4 876 1 843 q -15 944 -10 910 l 863 944 l 885 810 l 724 810 l 724 -22 l 553 0 m 553 463 q 491 526 531 494 q 382 558 451 558 q 352 555 367 558 q 324 543 338 551 l 535 304 q 544 317 540 310 q 553 329 549 324 l 553 463 m 257 493 q 234 449 243 474 q 225 396 225 425 q 272 281 225 326 q 382 235 318 235 q 431 239 408 235 q 471 251 454 243 l 257 493 m 763 -236 l 118 -236 q 107 -170 113 -203 q 96 -104 101 -137 l 740 -104 q 751 -170 746 -137 q 763 -236 757 -203 z "}}}
